<svg width="57" height="57" viewBox="0 0 57 57" fill="none" xmlns="http://www.w3.org/2000/svg">
<circle cx="28.5" cy="28.5" r="27.5" fill="#FF9900" stroke="white" stroke-width="2"/>
<path d="M4.79634 17.2102V16.2727H11.3418V17.2102H8.59748V25H7.54066V17.2102H4.79634ZM14.6316 25.1364C14.0009 25.1364 13.4569 24.9972 12.9995 24.7188C12.5449 24.4375 12.1941 24.0455 11.9469 23.5426C11.7026 23.0369 11.5804 22.4489 11.5804 21.7784C11.5804 21.108 11.7026 20.517 11.9469 20.0057C12.1941 19.4915 12.5378 19.0909 12.9782 18.804C13.4213 18.5142 13.9384 18.3693 14.5293 18.3693C14.8702 18.3693 15.2069 18.4261 15.5392 18.5398C15.8716 18.6534 16.1742 18.8381 16.4469 19.0938C16.7196 19.3466 16.937 19.6818 17.0989 20.0994C17.2608 20.517 17.3418 21.0312 17.3418 21.642V22.0682H12.2963V21.1989H16.3191C16.3191 20.8295 16.2452 20.5 16.0975 20.2102C15.9526 19.9205 15.7452 19.6918 15.4753 19.5241C15.2083 19.3565 14.8929 19.2727 14.5293 19.2727C14.1287 19.2727 13.7821 19.3722 13.4895 19.571C13.1998 19.767 12.9767 20.0227 12.8205 20.3381C12.6642 20.6534 12.5861 20.9915 12.5861 21.3523V21.9318C12.5861 22.4261 12.6713 22.8452 12.8418 23.1889C13.0151 23.5298 13.2551 23.7898 13.562 23.9688C13.8688 24.1449 14.2253 24.233 14.6316 24.233C14.8958 24.233 15.1344 24.196 15.3475 24.1222C15.5634 24.0455 15.7495 23.9318 15.9057 23.7812C16.062 23.6278 16.1827 23.4375 16.2679 23.2102L17.2395 23.483C17.1373 23.8125 16.9654 24.1023 16.7239 24.3523C16.4824 24.5994 16.1841 24.7926 15.829 24.9318C15.4739 25.0682 15.0748 25.1364 14.6316 25.1364ZM18.8716 25V18.4545H19.8432V19.4432H19.9114C20.0307 19.1193 20.2466 18.8565 20.5591 18.6548C20.8716 18.4531 21.2239 18.3523 21.6159 18.3523C21.6898 18.3523 21.7821 18.3537 21.8929 18.3565C22.0037 18.3594 22.0875 18.3636 22.1444 18.3693V19.392C22.1103 19.3835 22.0321 19.3707 21.91 19.3537C21.7907 19.3338 21.6642 19.3239 21.5307 19.3239C21.2125 19.3239 20.9284 19.3906 20.6784 19.5241C20.4313 19.6548 20.2353 19.8366 20.0904 20.0696C19.9483 20.2997 19.8773 20.5625 19.8773 20.858V25H18.8716ZM23.3365 25V18.4545H24.3081V19.4432H24.3762C24.4956 19.1193 24.7115 18.8565 25.024 18.6548C25.3365 18.4531 25.6887 18.3523 26.0808 18.3523C26.1547 18.3523 26.247 18.3537 26.3578 18.3565C26.4686 18.3594 26.5524 18.3636 26.6092 18.3693V19.392C26.5751 19.3835 26.497 19.3707 26.3748 19.3537C26.2555 19.3338 26.1291 19.3239 25.9956 19.3239C25.6774 19.3239 25.3933 19.3906 25.1433 19.5241C24.8961 19.6548 24.7001 19.8366 24.5552 20.0696C24.4132 20.2997 24.3422 20.5625 24.3422 20.858V25H23.3365ZM30.2612 25.1364C29.6703 25.1364 29.1518 24.9957 28.7058 24.7145C28.2626 24.4332 27.916 24.0398 27.666 23.5341C27.4189 23.0284 27.2953 22.4375 27.2953 21.7614C27.2953 21.0795 27.4189 20.4844 27.666 19.9759C27.916 19.4673 28.2626 19.0724 28.7058 18.7912C29.1518 18.5099 29.6703 18.3693 30.2612 18.3693C30.8521 18.3693 31.3691 18.5099 31.8123 18.7912C32.2583 19.0724 32.6049 19.4673 32.8521 19.9759C33.1021 20.4844 33.2271 21.0795 33.2271 21.7614C33.2271 22.4375 33.1021 23.0284 32.8521 23.5341C32.6049 24.0398 32.2583 24.4332 31.8123 24.7145C31.3691 24.9957 30.8521 25.1364 30.2612 25.1364ZM30.2612 24.233C30.71 24.233 31.0794 24.1179 31.3691 23.8878C31.6589 23.6577 31.8734 23.3551 32.0126 22.9801C32.1518 22.6051 32.2214 22.1989 32.2214 21.7614C32.2214 21.3239 32.1518 20.9162 32.0126 20.5384C31.8734 20.1605 31.6589 19.8551 31.3691 19.6222C31.0794 19.3892 30.71 19.2727 30.2612 19.2727C29.8123 19.2727 29.443 19.3892 29.1532 19.6222C28.8635 19.8551 28.649 20.1605 28.5098 20.5384C28.3706 20.9162 28.301 21.3239 28.301 21.7614C28.301 22.1989 28.3706 22.6051 28.5098 22.9801C28.649 23.3551 28.8635 23.6577 29.1532 23.8878C29.443 24.1179 29.8123 24.233 30.2612 24.233ZM34.7623 25V18.4545H35.7338V19.4432H35.802C35.9213 19.1193 36.1373 18.8565 36.4498 18.6548C36.7623 18.4531 37.1145 18.3523 37.5066 18.3523C37.5804 18.3523 37.6728 18.3537 37.7836 18.3565C37.8944 18.3594 37.9782 18.3636 38.035 18.3693V19.392C38.0009 19.3835 37.9228 19.3707 37.8006 19.3537C37.6813 19.3338 37.5549 19.3239 37.4213 19.3239C37.1032 19.3239 36.8191 19.3906 36.5691 19.5241C36.3219 19.6548 36.1259 19.8366 35.981 20.0696C35.839 20.2997 35.7679 20.5625 35.7679 20.858V25H34.7623ZM39.2271 25V18.4545H40.2328V25H39.2271ZM39.7385 17.3636C39.5424 17.3636 39.3734 17.2969 39.2314 17.1634C39.0922 17.0298 39.0225 16.8693 39.0225 16.6818C39.0225 16.4943 39.0922 16.3338 39.2314 16.2003C39.3734 16.0668 39.5424 16 39.7385 16C39.9345 16 40.1021 16.0668 40.2413 16.2003C40.3833 16.3338 40.4544 16.4943 40.4544 16.6818C40.4544 16.8693 40.3833 17.0298 40.2413 17.1634C40.1021 17.2969 39.9345 17.3636 39.7385 17.3636ZM46.7111 19.9205L45.8077 20.1761C45.7509 20.0256 45.6671 19.8793 45.5563 19.7372C45.4483 19.5923 45.3006 19.473 45.1131 19.3793C44.9256 19.2855 44.6855 19.2386 44.3929 19.2386C43.9924 19.2386 43.6586 19.331 43.3915 19.5156C43.1273 19.6974 42.9952 19.929 42.9952 20.2102C42.9952 20.4602 43.0861 20.6577 43.2679 20.8026C43.4498 20.9474 43.7338 21.0682 44.1202 21.1648L45.0918 21.4034C45.677 21.5455 46.1131 21.7628 46.4 22.0554C46.687 22.3452 46.8304 22.7187 46.8304 23.1761C46.8304 23.5511 46.7225 23.8864 46.5066 24.1818C46.2935 24.4773 45.9952 24.7102 45.6117 24.8807C45.2282 25.0511 44.7821 25.1364 44.2736 25.1364C43.606 25.1364 43.0534 24.9915 42.6159 24.7017C42.1784 24.4119 41.9015 23.9886 41.785 23.4318L42.7395 23.1932C42.8304 23.5455 43.0023 23.8097 43.2551 23.9858C43.5108 24.1619 43.8446 24.25 44.2566 24.25C44.7253 24.25 45.0975 24.1506 45.373 23.9517C45.6515 23.75 45.7907 23.5085 45.7907 23.2273C45.7907 23 45.7111 22.8097 45.552 22.6562C45.3929 22.5 45.1486 22.3835 44.8191 22.3068L43.7282 22.0511C43.1287 21.9091 42.6884 21.6889 42.4071 21.3906C42.1287 21.0895 41.9895 20.7131 41.9895 20.2614C41.9895 19.892 42.0932 19.5653 42.3006 19.2812C42.5108 18.9972 42.7963 18.7741 43.1571 18.6122C43.5208 18.4503 43.9327 18.3693 44.3929 18.3693C45.0407 18.3693 45.5492 18.5114 45.9185 18.7955C46.2907 19.0795 46.5549 19.4545 46.7111 19.9205ZM51.1909 18.4545V19.3068H47.7988V18.4545H51.1909ZM48.7875 16.8864H49.7931V23.125C49.7931 23.4091 49.8343 23.6222 49.9167 23.7642C50.002 23.9034 50.1099 23.9972 50.2406 24.0455C50.3741 24.0909 50.5147 24.1136 50.6625 24.1136C50.7733 24.1136 50.8642 24.108 50.9352 24.0966C51.0062 24.0824 51.063 24.071 51.1056 24.0625L51.3102 24.9659C51.242 24.9915 51.1468 25.017 51.0247 25.0426C50.9025 25.071 50.7477 25.0852 50.5602 25.0852C50.2761 25.0852 49.9977 25.0241 49.725 24.902C49.4551 24.7798 49.2306 24.5938 49.0517 24.3438C48.8755 24.0938 48.7875 23.7784 48.7875 23.3977V16.8864ZM9.96751 41.0909V30.1818H12.4902V31.017H10.9221V40.2557H12.4902V41.0909H9.96751ZM20.8777 31.2727V40H19.8549L15.0993 33.1477H15.014V40H13.9572V31.2727H14.9799L19.7527 38.142H19.8379V31.2727H20.8777ZM25.5151 40.1364C24.9242 40.1364 24.4057 39.9957 23.9597 39.7145C23.5165 39.4332 23.1699 39.0398 22.9199 38.5341C22.6728 38.0284 22.5492 37.4375 22.5492 36.7614C22.5492 36.0795 22.6728 35.4844 22.9199 34.9759C23.1699 34.4673 23.5165 34.0724 23.9597 33.7912C24.4057 33.5099 24.9242 33.3693 25.5151 33.3693C26.106 33.3693 26.623 33.5099 27.0662 33.7912C27.5123 34.0724 27.8588 34.4673 28.106 34.9759C28.356 35.4844 28.481 36.0795 28.481 36.7614C28.481 37.4375 28.356 38.0284 28.106 38.5341C27.8588 39.0398 27.5123 39.4332 27.0662 39.7145C26.623 39.9957 26.106 40.1364 25.5151 40.1364ZM25.5151 39.233C25.964 39.233 26.3333 39.1179 26.623 38.8878C26.9128 38.6577 27.1273 38.3551 27.2665 37.9801C27.4057 37.6051 27.4753 37.1989 27.4753 36.7614C27.4753 36.3239 27.4057 35.9162 27.2665 35.5384C27.1273 35.1605 26.9128 34.8551 26.623 34.6222C26.3333 34.3892 25.964 34.2727 25.5151 34.2727C25.0662 34.2727 24.6969 34.3892 24.4071 34.6222C24.1174 34.8551 23.9029 35.1605 23.7637 35.5384C23.6245 35.9162 23.5549 36.3239 23.5549 36.7614C23.5549 37.1989 23.6245 37.6051 23.7637 37.9801C23.9029 38.3551 24.1174 38.6577 24.4071 38.8878C24.6969 39.1179 25.0662 39.233 25.5151 39.233ZM31.0218 36.0625V40H30.0162V33.4545H30.9877V34.4773H31.073C31.2264 34.1449 31.4593 33.8778 31.7718 33.6761C32.0843 33.4716 32.4877 33.3693 32.9821 33.3693C33.4252 33.3693 33.813 33.4602 34.1454 33.642C34.4778 33.821 34.7363 34.0938 34.921 34.4602C35.1056 34.8239 35.198 35.2841 35.198 35.8409V40H34.1923V35.9091C34.1923 35.3949 34.0588 34.9943 33.7917 34.7074C33.5247 34.4176 33.1582 34.2727 32.6923 34.2727C32.3713 34.2727 32.0843 34.3423 31.8315 34.4815C31.5815 34.6207 31.3841 34.8239 31.2392 35.0909C31.0943 35.358 31.0218 35.6818 31.0218 36.0625ZM39.78 40.1364C39.1493 40.1364 38.6053 39.9972 38.1479 39.7188C37.6934 39.4375 37.3425 39.0455 37.0953 38.5426C36.851 38.0369 36.7289 37.4489 36.7289 36.7784C36.7289 36.108 36.851 35.517 37.0953 35.0057C37.3425 34.4915 37.6863 34.0909 38.1266 33.804C38.5698 33.5142 39.0868 33.3693 39.6777 33.3693C40.0186 33.3693 40.3553 33.4261 40.6877 33.5398C41.0201 33.6534 41.3226 33.8381 41.5953 34.0938C41.8681 34.3466 42.0854 34.6818 42.2473 35.0994C42.4093 35.517 42.4902 36.0312 42.4902 36.642V37.0682H37.4448V36.1989H41.4675C41.4675 35.8295 41.3936 35.5 41.2459 35.2102C41.101 34.9205 40.8936 34.6918 40.6238 34.5241C40.3567 34.3565 40.0414 34.2727 39.6777 34.2727C39.2772 34.2727 38.9306 34.3722 38.638 34.571C38.3482 34.767 38.1252 35.0227 37.9689 35.3381C37.8127 35.6534 37.7346 35.9915 37.7346 36.3523V36.9318C37.7346 37.4261 37.8198 37.8452 37.9902 38.1889C38.1635 38.5298 38.4036 38.7898 38.7104 38.9688C39.0172 39.1449 39.3738 39.233 39.78 39.233C40.0442 39.233 40.2828 39.196 40.4959 39.1222C40.7118 39.0455 40.8979 38.9318 41.0542 38.7812C41.2104 38.6278 41.3311 38.4375 41.4164 38.2102L42.388 38.483C42.2857 38.8125 42.1138 39.1023 41.8723 39.3523C41.6309 39.5994 41.3326 39.7926 40.9775 39.9318C40.6223 40.0682 40.2232 40.1364 39.78 40.1364ZM46.0314 30.8636V41.7727H43.5087V40.9375H45.0769V31.6989H43.5087V30.8636H46.0314Z" fill="black"/>
</svg>
