<svg width="57" height="57" viewBox="0 0 57 57" fill="none" xmlns="http://www.w3.org/2000/svg">
<circle cx="28.5" cy="28.5" r="27.5" fill="#0075FF" stroke="white" stroke-width="2"/>
<path d="M21.0451 22V13.2727H26.2781V14.2102H22.1019V17.1591H25.886V18.0966H22.1019V22H21.0451ZM28.0881 22V13.2727H31.1392C31.7472 13.2727 32.2486 13.3778 32.6435 13.5881C33.0384 13.7955 33.3324 14.0753 33.5256 14.4276C33.7188 14.777 33.8153 15.1648 33.8153 15.5909C33.8153 15.9659 33.7486 16.2756 33.6151 16.5199C33.4844 16.7642 33.3111 16.9574 33.0952 17.0994C32.8821 17.2415 32.6506 17.3466 32.4006 17.4148V17.5C32.6676 17.517 32.9361 17.6108 33.206 17.7812C33.4759 17.9517 33.7017 18.196 33.8835 18.5142C34.0653 18.8324 34.1562 19.2216 34.1562 19.6818C34.1562 20.1193 34.0568 20.5128 33.858 20.8622C33.6591 21.2116 33.3452 21.4886 32.9162 21.6932C32.4872 21.8977 31.929 22 31.2415 22H28.0881ZM29.1449 21.0625H31.2415C31.9318 21.0625 32.4219 20.929 32.7116 20.6619C33.0043 20.392 33.1506 20.0653 33.1506 19.6818C33.1506 19.3864 33.0753 19.1136 32.9247 18.8636C32.7741 18.6108 32.5597 18.4091 32.2812 18.2585C32.0028 18.1051 31.6733 18.0284 31.2926 18.0284H29.1449V21.0625ZM29.1449 17.108H31.1051C31.4233 17.108 31.7102 17.0455 31.9659 16.9205C32.2244 16.7955 32.429 16.6193 32.5795 16.392C32.733 16.1648 32.8097 15.8977 32.8097 15.5909C32.8097 15.2074 32.6761 14.8821 32.4091 14.6151C32.142 14.3452 31.7188 14.2102 31.1392 14.2102H29.1449V17.108ZM36.9496 13.2727V22H35.8928V13.2727H36.9496ZM7.79173 38.0909V27.1818H10.3145V28.017H8.74627V37.2557H10.3145V38.0909H7.79173ZM11.7814 37V28.2727H14.8326C15.4405 28.2727 15.9419 28.3778 16.3368 28.5881C16.7317 28.7955 17.0257 29.0753 17.2189 29.4276C17.4121 29.777 17.5087 30.1648 17.5087 30.5909C17.5087 30.9659 17.4419 31.2756 17.3084 31.5199C17.1777 31.7642 17.0044 31.9574 16.7885 32.0994C16.5755 32.2415 16.3439 32.3466 16.0939 32.4148V32.5C16.361 32.517 16.6294 32.6108 16.8993 32.7812C17.1692 32.9517 17.3951 33.196 17.5769 33.5142C17.7587 33.8324 17.8496 34.2216 17.8496 34.6818C17.8496 35.1193 17.7502 35.5128 17.5513 35.8622C17.3525 36.2116 17.0385 36.4886 16.6096 36.6932C16.1806 36.8977 15.6223 37 14.9348 37H11.7814ZM12.8382 36.0625H14.9348C15.6252 36.0625 16.1152 35.929 16.405 35.6619C16.6976 35.392 16.8439 35.0653 16.8439 34.6818C16.8439 34.3864 16.7686 34.1136 16.6181 33.8636C16.4675 33.6108 16.253 33.4091 15.9746 33.2585C15.6962 33.1051 15.3667 33.0284 14.986 33.0284H12.8382V36.0625ZM12.8382 32.108H14.7985C15.1167 32.108 15.4036 32.0455 15.6593 31.9205C15.9178 31.7955 16.1223 31.6193 16.2729 31.392C16.4263 31.1648 16.503 30.8977 16.503 30.5909C16.503 30.2074 16.3695 29.8821 16.1025 29.6151C15.8354 29.3452 15.4121 29.2102 14.8326 29.2102H12.8382V32.108ZM22.1088 37.1364C21.5179 37.1364 20.9995 36.9957 20.5534 36.7145C20.1103 36.4332 19.7637 36.0398 19.5137 35.5341C19.2665 35.0284 19.1429 34.4375 19.1429 33.7614C19.1429 33.0795 19.2665 32.4844 19.5137 31.9759C19.7637 31.4673 20.1103 31.0724 20.5534 30.7912C20.9995 30.5099 21.5179 30.3693 22.1088 30.3693C22.6998 30.3693 23.2168 30.5099 23.66 30.7912C24.106 31.0724 24.4526 31.4673 24.6998 31.9759C24.9498 32.4844 25.0748 33.0795 25.0748 33.7614C25.0748 34.4375 24.9498 35.0284 24.6998 35.5341C24.4526 36.0398 24.106 36.4332 23.66 36.7145C23.2168 36.9957 22.6998 37.1364 22.1088 37.1364ZM22.1088 36.233C22.5577 36.233 22.927 36.1179 23.2168 35.8878C23.5066 35.6577 23.7211 35.3551 23.8603 34.9801C23.9995 34.6051 24.0691 34.1989 24.0691 33.7614C24.0691 33.3239 23.9995 32.9162 23.8603 32.5384C23.7211 32.1605 23.5066 31.8551 23.2168 31.6222C22.927 31.3892 22.5577 31.2727 22.1088 31.2727C21.66 31.2727 21.2907 31.3892 21.0009 31.6222C20.7111 31.8551 20.4966 32.1605 20.3574 32.5384C20.2182 32.9162 20.1486 33.3239 20.1486 33.7614C20.1486 34.1989 20.2182 34.6051 20.3574 34.9801C20.4966 35.3551 20.7111 35.6577 21.0009 35.8878C21.2907 36.1179 21.66 36.233 22.1088 36.233ZM26.6099 37V30.4545H27.5815V31.4432H27.6497C27.769 31.1193 27.9849 30.8565 28.2974 30.6548C28.6099 30.4531 28.9622 30.3523 29.3542 30.3523C29.4281 30.3523 29.5204 30.3537 29.6312 30.3565C29.742 30.3594 29.8258 30.3636 29.8826 30.3693V31.392C29.8485 31.3835 29.7704 31.3707 29.6483 31.3537C29.5289 31.3338 29.4025 31.3239 29.269 31.3239C28.9508 31.3239 28.6667 31.3906 28.4167 31.5241C28.1696 31.6548 27.9735 31.8366 27.8287 32.0696C27.6866 32.2997 27.6156 32.5625 27.6156 32.858V37H26.6099ZM33.5176 39.5909C33.0318 39.5909 32.6142 39.5284 32.2647 39.4034C31.9153 39.2812 31.6241 39.1193 31.3912 38.9176C31.161 38.7188 30.9778 38.5057 30.8414 38.2784L31.6426 37.7159C31.7335 37.8352 31.8485 37.9716 31.9877 38.125C32.127 38.2812 32.3173 38.4162 32.5588 38.5298C32.8031 38.6463 33.1227 38.7045 33.5176 38.7045C34.046 38.7045 34.4821 38.5767 34.8258 38.321C35.1696 38.0653 35.3414 37.6648 35.3414 37.1193V35.7898H35.2562C35.1824 35.9091 35.0772 36.0568 34.9409 36.233C34.8074 36.4062 34.6142 36.5611 34.3613 36.6974C34.1113 36.831 33.7733 36.8977 33.3471 36.8977C32.8187 36.8977 32.3443 36.7727 31.9238 36.5227C31.5062 36.2727 31.1752 35.9091 30.9309 35.4318C30.6895 34.9545 30.5687 34.375 30.5687 33.6932C30.5687 33.0227 30.6866 32.4389 30.9224 31.9418C31.1582 31.4418 31.4863 31.0554 31.9068 30.7827C32.3272 30.5071 32.813 30.3693 33.3642 30.3693C33.7903 30.3693 34.1284 30.4403 34.3784 30.5824C34.6312 30.7216 34.8244 30.8807 34.9579 31.0597C35.0943 31.2358 35.1994 31.3807 35.2733 31.4943H35.3755V30.4545H36.3471V37.1875C36.3471 37.75 36.2193 38.2074 35.9636 38.5597C35.7108 38.9148 35.3699 39.1747 34.9409 39.3395C34.5147 39.5071 34.0403 39.5909 33.5176 39.5909ZM33.4835 35.9943C33.8869 35.9943 34.2278 35.902 34.5062 35.7173C34.7846 35.5327 34.9963 35.267 35.1412 34.9205C35.286 34.5739 35.3585 34.1591 35.3585 33.6761C35.3585 33.2045 35.2875 32.7884 35.1454 32.4276C35.0034 32.0668 34.7931 31.7841 34.5147 31.5795C34.2363 31.375 33.8926 31.2727 33.4835 31.2727C33.0574 31.2727 32.7022 31.3807 32.4181 31.5966C32.1369 31.8125 31.9252 32.1023 31.7832 32.4659C31.644 32.8295 31.5744 33.233 31.5744 33.6761C31.5744 34.1307 31.6454 34.5327 31.7875 34.8821C31.9324 35.2287 32.1454 35.5014 32.4267 35.7003C32.7108 35.8963 33.063 35.9943 33.4835 35.9943ZM40.8471 37.1364C40.2562 37.1364 39.7377 36.9957 39.2917 36.7145C38.8485 36.4332 38.502 36.0398 38.252 35.5341C38.0048 35.0284 37.8812 34.4375 37.8812 33.7614C37.8812 33.0795 38.0048 32.4844 38.252 31.9759C38.502 31.4673 38.8485 31.0724 39.2917 30.7912C39.7377 30.5099 40.2562 30.3693 40.8471 30.3693C41.438 30.3693 41.9551 30.5099 42.3983 30.7912C42.8443 31.0724 43.1909 31.4673 43.438 31.9759C43.688 32.4844 43.813 33.0795 43.813 33.7614C43.813 34.4375 43.688 35.0284 43.438 35.5341C43.1909 36.0398 42.8443 36.4332 42.3983 36.7145C41.9551 36.9957 41.438 37.1364 40.8471 37.1364ZM40.8471 36.233C41.296 36.233 41.6653 36.1179 41.9551 35.8878C42.2449 35.6577 42.4593 35.3551 42.5985 34.9801C42.7377 34.6051 42.8074 34.1989 42.8074 33.7614C42.8074 33.3239 42.7377 32.9162 42.5985 32.5384C42.4593 32.1605 42.2449 31.8551 41.9551 31.6222C41.6653 31.3892 41.296 31.2727 40.8471 31.2727C40.3983 31.2727 40.0289 31.3892 39.7392 31.6222C39.4494 31.8551 39.2349 32.1605 39.0957 32.5384C38.9565 32.9162 38.8869 33.3239 38.8869 33.7614C38.8869 34.1989 38.9565 34.6051 39.0957 34.9801C39.2349 35.3551 39.4494 35.6577 39.7392 35.8878C40.0289 36.1179 40.3983 36.233 40.8471 36.233ZM46.3539 28.2727V37H45.3482V28.2727H46.3539ZM50.2072 27.8636V38.7727H47.6845V37.9375H49.2527V28.6989H47.6845V27.8636H50.2072Z" fill="black"/>
</svg>
