<svg width="57" height="57" viewBox="0 0 57 57" fill="none" xmlns="http://www.w3.org/2000/svg">
<circle cx="28.5" cy="28.5" r="27.5" fill="#FF0000" stroke="white" stroke-width="2"/>
<path d="M4.79634 17.2102V16.2727H11.3418V17.2102H8.59748V25H7.54066V17.2102H4.79634ZM14.6316 25.1364C14.0009 25.1364 13.4569 24.9972 12.9995 24.7188C12.5449 24.4375 12.1941 24.0455 11.9469 23.5426C11.7026 23.0369 11.5804 22.4489 11.5804 21.7784C11.5804 21.108 11.7026 20.517 11.9469 20.0057C12.1941 19.4915 12.5378 19.0909 12.9782 18.804C13.4213 18.5142 13.9384 18.3693 14.5293 18.3693C14.8702 18.3693 15.2069 18.4261 15.5392 18.5398C15.8716 18.6534 16.1742 18.8381 16.4469 19.0938C16.7196 19.3466 16.937 19.6818 17.0989 20.0994C17.2608 20.517 17.3418 21.0312 17.3418 21.642V22.0682H12.2963V21.1989H16.3191C16.3191 20.8295 16.2452 20.5 16.0975 20.2102C15.9526 19.9205 15.7452 19.6918 15.4753 19.5241C15.2083 19.3565 14.8929 19.2727 14.5293 19.2727C14.1287 19.2727 13.7821 19.3722 13.4895 19.571C13.1998 19.767 12.9767 20.0227 12.8205 20.3381C12.6642 20.6534 12.5861 20.9915 12.5861 21.3523V21.9318C12.5861 22.4261 12.6713 22.8452 12.8418 23.1889C13.0151 23.5298 13.2551 23.7898 13.562 23.9688C13.8688 24.1449 14.2253 24.233 14.6316 24.233C14.8958 24.233 15.1344 24.196 15.3475 24.1222C15.5634 24.0455 15.7495 23.9318 15.9057 23.7812C16.062 23.6278 16.1827 23.4375 16.2679 23.2102L17.2395 23.483C17.1373 23.8125 16.9654 24.1023 16.7239 24.3523C16.4824 24.5994 16.1841 24.7926 15.829 24.9318C15.4739 25.0682 15.0748 25.1364 14.6316 25.1364ZM18.8716 25V18.4545H19.8432V19.4432H19.9114C20.0307 19.1193 20.2466 18.8565 20.5591 18.6548C20.8716 18.4531 21.2239 18.3523 21.6159 18.3523C21.6898 18.3523 21.7821 18.3537 21.8929 18.3565C22.0037 18.3594 22.0875 18.3636 22.1444 18.3693V19.392C22.1103 19.3835 22.0321 19.3707 21.91 19.3537C21.7907 19.3338 21.6642 19.3239 21.5307 19.3239C21.2125 19.3239 20.9284 19.3906 20.6784 19.5241C20.4313 19.6548 20.2353 19.8366 20.0904 20.0696C19.9483 20.2997 19.8773 20.5625 19.8773 20.858V25H18.8716ZM23.3365 25V18.4545H24.3081V19.4432H24.3762C24.4956 19.1193 24.7115 18.8565 25.024 18.6548C25.3365 18.4531 25.6887 18.3523 26.0808 18.3523C26.1547 18.3523 26.247 18.3537 26.3578 18.3565C26.4686 18.3594 26.5524 18.3636 26.6092 18.3693V19.392C26.5751 19.3835 26.497 19.3707 26.3748 19.3537C26.2555 19.3338 26.1291 19.3239 25.9956 19.3239C25.6774 19.3239 25.3933 19.3906 25.1433 19.5241C24.8961 19.6548 24.7001 19.8366 24.5552 20.0696C24.4132 20.2997 24.3422 20.5625 24.3422 20.858V25H23.3365ZM30.2612 25.1364C29.6703 25.1364 29.1518 24.9957 28.7058 24.7145C28.2626 24.4332 27.916 24.0398 27.666 23.5341C27.4189 23.0284 27.2953 22.4375 27.2953 21.7614C27.2953 21.0795 27.4189 20.4844 27.666 19.9759C27.916 19.4673 28.2626 19.0724 28.7058 18.7912C29.1518 18.5099 29.6703 18.3693 30.2612 18.3693C30.8521 18.3693 31.3691 18.5099 31.8123 18.7912C32.2583 19.0724 32.6049 19.4673 32.8521 19.9759C33.1021 20.4844 33.2271 21.0795 33.2271 21.7614C33.2271 22.4375 33.1021 23.0284 32.8521 23.5341C32.6049 24.0398 32.2583 24.4332 31.8123 24.7145C31.3691 24.9957 30.8521 25.1364 30.2612 25.1364ZM30.2612 24.233C30.71 24.233 31.0794 24.1179 31.3691 23.8878C31.6589 23.6577 31.8734 23.3551 32.0126 22.9801C32.1518 22.6051 32.2214 22.1989 32.2214 21.7614C32.2214 21.3239 32.1518 20.9162 32.0126 20.5384C31.8734 20.1605 31.6589 19.8551 31.3691 19.6222C31.0794 19.3892 30.71 19.2727 30.2612 19.2727C29.8123 19.2727 29.443 19.3892 29.1532 19.6222C28.8635 19.8551 28.649 20.1605 28.5098 20.5384C28.3706 20.9162 28.301 21.3239 28.301 21.7614C28.301 22.1989 28.3706 22.6051 28.5098 22.9801C28.649 23.3551 28.8635 23.6577 29.1532 23.8878C29.443 24.1179 29.8123 24.233 30.2612 24.233ZM34.7623 25V18.4545H35.7338V19.4432H35.802C35.9213 19.1193 36.1373 18.8565 36.4498 18.6548C36.7623 18.4531 37.1145 18.3523 37.5066 18.3523C37.5804 18.3523 37.6728 18.3537 37.7836 18.3565C37.8944 18.3594 37.9782 18.3636 38.035 18.3693V19.392C38.0009 19.3835 37.9228 19.3707 37.8006 19.3537C37.6813 19.3338 37.5549 19.3239 37.4213 19.3239C37.1032 19.3239 36.8191 19.3906 36.5691 19.5241C36.3219 19.6548 36.1259 19.8366 35.981 20.0696C35.839 20.2997 35.7679 20.5625 35.7679 20.858V25H34.7623ZM39.2271 25V18.4545H40.2328V25H39.2271ZM39.7385 17.3636C39.5424 17.3636 39.3734 17.2969 39.2314 17.1634C39.0922 17.0298 39.0225 16.8693 39.0225 16.6818C39.0225 16.4943 39.0922 16.3338 39.2314 16.2003C39.3734 16.0668 39.5424 16 39.7385 16C39.9345 16 40.1021 16.0668 40.2413 16.2003C40.3833 16.3338 40.4544 16.4943 40.4544 16.6818C40.4544 16.8693 40.3833 17.0298 40.2413 17.1634C40.1021 17.2969 39.9345 17.3636 39.7385 17.3636ZM46.7111 19.9205L45.8077 20.1761C45.7509 20.0256 45.6671 19.8793 45.5563 19.7372C45.4483 19.5923 45.3006 19.473 45.1131 19.3793C44.9256 19.2855 44.6855 19.2386 44.3929 19.2386C43.9924 19.2386 43.6586 19.331 43.3915 19.5156C43.1273 19.6974 42.9952 19.929 42.9952 20.2102C42.9952 20.4602 43.0861 20.6577 43.2679 20.8026C43.4498 20.9474 43.7338 21.0682 44.1202 21.1648L45.0918 21.4034C45.677 21.5455 46.1131 21.7628 46.4 22.0554C46.687 22.3452 46.8304 22.7187 46.8304 23.1761C46.8304 23.5511 46.7225 23.8864 46.5066 24.1818C46.2935 24.4773 45.9952 24.7102 45.6117 24.8807C45.2282 25.0511 44.7821 25.1364 44.2736 25.1364C43.606 25.1364 43.0534 24.9915 42.6159 24.7017C42.1784 24.4119 41.9015 23.9886 41.785 23.4318L42.7395 23.1932C42.8304 23.5455 43.0023 23.8097 43.2551 23.9858C43.5108 24.1619 43.8446 24.25 44.2566 24.25C44.7253 24.25 45.0975 24.1506 45.373 23.9517C45.6515 23.75 45.7907 23.5085 45.7907 23.2273C45.7907 23 45.7111 22.8097 45.552 22.6562C45.3929 22.5 45.1486 22.3835 44.8191 22.3068L43.7282 22.0511C43.1287 21.9091 42.6884 21.6889 42.4071 21.3906C42.1287 21.0895 41.9895 20.7131 41.9895 20.2614C41.9895 19.892 42.0932 19.5653 42.3006 19.2812C42.5108 18.9972 42.7963 18.7741 43.1571 18.6122C43.5208 18.4503 43.9327 18.3693 44.3929 18.3693C45.0407 18.3693 45.5492 18.5114 45.9185 18.7955C46.2907 19.0795 46.5549 19.4545 46.7111 19.9205ZM51.1909 18.4545V19.3068H47.7988V18.4545H51.1909ZM48.7875 16.8864H49.7931V23.125C49.7931 23.4091 49.8343 23.6222 49.9167 23.7642C50.002 23.9034 50.1099 23.9972 50.2406 24.0455C50.3741 24.0909 50.5147 24.1136 50.6625 24.1136C50.7733 24.1136 50.8642 24.108 50.9352 24.0966C51.0062 24.0824 51.063 24.071 51.1056 24.0625L51.3102 24.9659C51.242 24.9915 51.1468 25.017 51.0247 25.0426C50.9025 25.071 50.7477 25.0852 50.5602 25.0852C50.2761 25.0852 49.9977 25.0241 49.725 24.902C49.4551 24.7798 49.2306 24.5938 49.0517 24.3438C48.8755 24.0938 48.7875 23.7784 48.7875 23.3977V16.8864ZM8.7136 41.0909V30.1818H11.2363V31.017H9.66815V40.2557H11.2363V41.0909H8.7136ZM12.7033 40V31.2727H15.7544C16.3624 31.2727 16.8638 31.3778 17.2587 31.5881C17.6536 31.7955 17.9476 32.0753 18.1408 32.4276C18.334 32.777 18.4306 33.1648 18.4306 33.5909C18.4306 33.9659 18.3638 34.2756 18.2303 34.5199C18.0996 34.7642 17.9263 34.9574 17.7104 35.0994C17.4973 35.2415 17.2658 35.3466 17.0158 35.4148V35.5C17.2828 35.517 17.5513 35.6108 17.8212 35.7812C18.0911 35.9517 18.3169 36.196 18.4988 36.5142C18.6806 36.8324 18.7715 37.2216 18.7715 37.6818C18.7715 38.1193 18.6721 38.5128 18.4732 38.8622C18.2743 39.2116 17.9604 39.4886 17.5314 39.6932C17.1025 39.8977 16.5442 40 15.8567 40H12.7033ZM13.7601 39.0625H15.8567C16.5471 39.0625 17.0371 38.929 17.3269 38.6619C17.6195 38.392 17.7658 38.0653 17.7658 37.6818C17.7658 37.3864 17.6905 37.1136 17.54 36.8636C17.3894 36.6108 17.1749 36.4091 16.8965 36.2585C16.6181 36.1051 16.2885 36.0284 15.9078 36.0284H13.7601V39.0625ZM13.7601 35.108H15.7203C16.0385 35.108 16.3255 35.0455 16.5811 34.9205C16.8397 34.7955 17.0442 34.6193 17.1948 34.392C17.3482 34.1648 17.4249 33.8977 17.4249 33.5909C17.4249 33.2074 17.2914 32.8821 17.0243 32.6151C16.7573 32.3452 16.334 32.2102 15.7544 32.2102H13.7601V35.108ZM23.0307 40.1364C22.4398 40.1364 21.9213 39.9957 21.4753 39.7145C21.0321 39.4332 20.6855 39.0398 20.4355 38.5341C20.1884 38.0284 20.0648 37.4375 20.0648 36.7614C20.0648 36.0795 20.1884 35.4844 20.4355 34.9759C20.6855 34.4673 21.0321 34.0724 21.4753 33.7912C21.9213 33.5099 22.4398 33.3693 23.0307 33.3693C23.6216 33.3693 24.1387 33.5099 24.5819 33.7912C25.0279 34.0724 25.3745 34.4673 25.6216 34.9759C25.8716 35.4844 25.9966 36.0795 25.9966 36.7614C25.9966 37.4375 25.8716 38.0284 25.6216 38.5341C25.3745 39.0398 25.0279 39.4332 24.5819 39.7145C24.1387 39.9957 23.6216 40.1364 23.0307 40.1364ZM23.0307 39.233C23.4796 39.233 23.8489 39.1179 24.1387 38.8878C24.4284 38.6577 24.6429 38.3551 24.7821 37.9801C24.9213 37.6051 24.9909 37.1989 24.9909 36.7614C24.9909 36.3239 24.9213 35.9162 24.7821 35.5384C24.6429 35.1605 24.4284 34.8551 24.1387 34.6222C23.8489 34.3892 23.4796 34.2727 23.0307 34.2727C22.5819 34.2727 22.2125 34.3892 21.9228 34.6222C21.633 34.8551 21.4185 35.1605 21.2793 35.5384C21.1401 35.9162 21.0705 36.3239 21.0705 36.7614C21.0705 37.1989 21.1401 37.6051 21.2793 37.9801C21.4185 38.3551 21.633 38.6577 21.9228 38.8878C22.2125 39.1179 22.5819 39.233 23.0307 39.233ZM27.5318 40V33.4545H28.5034V34.4773H28.5886C28.725 34.1278 28.9451 33.8565 29.2491 33.6634C29.5531 33.4673 29.9181 33.3693 30.3443 33.3693C30.7761 33.3693 31.1355 33.4673 31.4224 33.6634C31.7122 33.8565 31.938 34.1278 32.1 34.4773H32.1681C32.3358 34.1392 32.5872 33.8707 32.9224 33.6719C33.2576 33.4702 33.6596 33.3693 34.1284 33.3693C34.7136 33.3693 35.1923 33.5526 35.5645 33.919C35.9366 34.2827 36.1227 34.8494 36.1227 35.6193V40H35.117V35.6193C35.117 35.1364 34.9849 34.7912 34.7207 34.5838C34.4565 34.3764 34.1454 34.2727 33.7875 34.2727C33.3272 34.2727 32.9707 34.4119 32.7179 34.6903C32.465 34.9659 32.3386 35.3153 32.3386 35.7386V40H31.3159V35.517C31.3159 35.1449 31.1951 34.8452 30.9537 34.6179C30.7122 34.3878 30.4011 34.2727 30.0204 34.2727C29.7591 34.2727 29.5147 34.3423 29.2875 34.4815C29.063 34.6207 28.8812 34.8139 28.742 35.0611C28.6056 35.3054 28.5375 35.5881 28.5375 35.9091V40H27.5318ZM38.0978 40V31.2727H39.1035V34.4943H39.1887C39.2626 34.3807 39.3649 34.2358 39.4956 34.0597C39.6291 33.8807 39.8194 33.7216 40.0666 33.5824C40.3166 33.4403 40.6547 33.3693 41.0808 33.3693C41.6319 33.3693 42.1177 33.5071 42.5382 33.7827C42.9586 34.0582 43.2868 34.4489 43.5226 34.9545C43.7583 35.4602 43.8762 36.0568 43.8762 36.7443C43.8762 37.4375 43.7583 38.0384 43.5226 38.5469C43.2868 39.0526 42.96 39.4446 42.5424 39.723C42.1248 39.9986 41.6433 40.1364 41.0978 40.1364C40.6774 40.1364 40.3407 40.0668 40.0879 39.9276C39.835 39.7855 39.6404 39.625 39.5041 39.446C39.3677 39.2642 39.2626 39.1136 39.1887 38.9943H39.0694V40H38.0978ZM39.0865 36.7273C39.0865 37.2216 39.1589 37.6577 39.3038 38.0355C39.4487 38.4105 39.6603 38.7045 39.9387 38.9176C40.2172 39.1278 40.5581 39.233 40.9615 39.233C41.3819 39.233 41.7328 39.1222 42.014 38.9006C42.2981 38.6761 42.5112 38.375 42.6532 37.9972C42.7981 37.6165 42.8706 37.1932 42.8706 36.7273C42.8706 36.267 42.7995 35.8523 42.6575 35.483C42.5183 35.1108 42.3066 34.8168 42.0225 34.6009C41.7413 34.3821 41.3876 34.2727 40.9615 34.2727C40.5524 34.2727 40.2086 34.3764 39.9302 34.5838C39.6518 34.7884 39.4416 35.0753 39.2995 35.4446C39.1575 35.8111 39.0865 36.2386 39.0865 36.7273ZM47.2853 30.8636V41.7727H44.7626V40.9375H46.3308V31.6989H44.7626V30.8636H47.2853Z" fill="black"/>
</svg>
