<svg width="128" height="128" viewBox="0 0 128 128" fill="none" xmlns="http://www.w3.org/2000/svg">
<path d="M32 4H28V8H32V4Z" fill="#9BADB7"/>
<path d="M36 4H32V8H36V4Z" fill="#9BADB7"/>
<path d="M40 4H36V8H40V4Z" fill="#9BADB7"/>
<path d="M44 4H40V8H44V4Z" fill="#9BADB7"/>
<path d="M48 4H44V8H48V4Z" fill="#9BADB7"/>
<path d="M52 4H48V8H52V4Z" fill="#9BADB7"/>
<path d="M56 4H52V8H56V4Z" fill="#9BADB7"/>
<path d="M60 4H56V8H60V4Z" fill="#9BADB7"/>
<path d="M64 4H60V8H64V4Z" fill="#9BADB7"/>
<path d="M68 4H64V8H68V4Z" fill="#9BADB7"/>
<path d="M72 4H68V8H72V4Z" fill="#9BADB7"/>
<path d="M76 4H72V8H76V4Z" fill="#9BADB7"/>
<path d="M80 4H76V8H80V4Z" fill="#9BADB7"/>
<path d="M84 4H80V8H84V4Z" fill="#9BADB7"/>
<path d="M88 4H84V8H88V4Z" fill="#9BADB7"/>
<path d="M92 4H88V8H92V4Z" fill="#9BADB7"/>
<path d="M96 4H92V8H96V4Z" fill="#9BADB7"/>
<path d="M100 4H96V8H100V4Z" fill="#9BADB7"/>
<path d="M24 8H20V12H24V8Z" fill="#9BADB7"/>
<path d="M28 8H24V12H28V8Z" fill="#9BADB7"/>
<path d="M32 8H28V12H32V8Z" fill="#C1D7E3"/>
<path d="M36 8H32V12H36V8Z" fill="#C1D7E3"/>
<path d="M40 8H36V12H40V8Z" fill="#C1D7E3"/>
<path d="M44 8H40V12H44V8Z" fill="#C1D7E3"/>
<path d="M48 8H44V12H48V8Z" fill="#C1D7E3"/>
<path d="M52 8H48V12H52V8Z" fill="#C1D7E3"/>
<path d="M56 8H52V12H56V8Z" fill="#C1D7E3"/>
<path d="M60 8H56V12H60V8Z" fill="#C1D7E3"/>
<path d="M64 8H60V12H64V8Z" fill="#C1D7E3"/>
<path d="M68 8H64V12H68V8Z" fill="#C1D7E3"/>
<path d="M72 8H68V12H72V8Z" fill="#C1D7E3"/>
<path d="M76 8H72V12H76V8Z" fill="#C1D7E3"/>
<path d="M80 8H76V12H80V8Z" fill="#C1D7E3"/>
<path d="M84 8H80V12H84V8Z" fill="#C1D7E3"/>
<path d="M88 8H84V12H88V8Z" fill="#C1D7E3"/>
<path d="M92 8H88V12H92V8Z" fill="#C1D7E3"/>
<path d="M96 8H92V12H96V8Z" fill="#C1D7E3"/>
<path d="M100 8H96V12H100V8Z" fill="#C1D7E3"/>
<path d="M104 8H100V12H104V8Z" fill="#9BADB7"/>
<path d="M108 8H104V12H108V8Z" fill="#9BADB7"/>
<path d="M20 12H16V16H20V12Z" fill="#9BADB7"/>
<path d="M24 12H20V16H24V12Z" fill="#C1D7E3"/>
<path d="M28 12H24V16H28V12Z" fill="#C1D7E3"/>
<path d="M32 12H28V16H32V12Z" fill="#C1D7E3"/>
<path d="M36 12H32V16H36V12Z" fill="#C1D7E3"/>
<path d="M40 12H36V16H40V12Z" fill="#C1D7E3"/>
<path d="M44 12H40V16H44V12Z" fill="#C1D7E3"/>
<path d="M48 12H44V16H48V12Z" fill="#C1D7E3"/>
<path d="M52 12H48V16H52V12Z" fill="#C1D7E3"/>
<path d="M56 12H52V16H56V12Z" fill="#C1D7E3"/>
<path d="M60 12H56V16H60V12Z" fill="#C1D7E3"/>
<path d="M64 12H60V16H64V12Z" fill="#C1D7E3"/>
<path d="M68 12H64V16H68V12Z" fill="#C1D7E3"/>
<path d="M72 12H68V16H72V12Z" fill="#C1D7E3"/>
<path d="M76 12H72V16H76V12Z" fill="#C1D7E3"/>
<path d="M80 12H76V16H80V12Z" fill="#C1D7E3"/>
<path d="M84 12H80V16H84V12Z" fill="#C1D7E3"/>
<path d="M88 12H84V16H88V12Z" fill="#C1D7E3"/>
<path d="M92 12H88V16H92V12Z" fill="#C1D7E3"/>
<path d="M96 12H92V16H96V12Z" fill="#C1D7E3"/>
<path d="M100 12H96V16H100V12Z" fill="#C1D7E3"/>
<path d="M104 12H100V16H104V12Z" fill="#C1D7E3"/>
<path d="M108 12H104V16H108V12Z" fill="#C1D7E3"/>
<path d="M112 12H108V16H112V12Z" fill="#9BADB7"/>
<path d="M12 16H8V20H12V16Z" fill="#9BADB7"/>
<path d="M16 16H12V20H16V16Z" fill="#9BADB7"/>
<path d="M20 16H16V20H20V16Z" fill="#C1D7E3"/>
<path d="M24 16H20V20H24V16Z" fill="#C1D7E3"/>
<path d="M28 16H24V20H28V16Z" fill="#C1D7E3"/>
<path d="M32 16H28V20H32V16Z" fill="#B6CBD6"/>
<path d="M36 16H32V20H36V16Z" fill="#B6CBD6"/>
<path d="M40 16H36V20H40V16Z" fill="#B6CBD6"/>
<path d="M44 16H40V20H44V16Z" fill="#B6CBD6"/>
<path d="M48 16H44V20H48V16Z" fill="#B6CBD6"/>
<path d="M52 16H48V20H52V16Z" fill="#B6CBD6"/>
<path d="M56 16H52V20H56V16Z" fill="#B6CBD6"/>
<path d="M60 16H56V20H60V16Z" fill="#B6CBD6"/>
<path d="M64 16H60V20H64V16Z" fill="#B6CBD6"/>
<path d="M68 16H64V20H68V16Z" fill="#B6CBD6"/>
<path d="M72 16H68V20H72V16Z" fill="#B6CBD6"/>
<path d="M76 16H72V20H76V16Z" fill="#B6CBD6"/>
<path d="M80 16H76V20H80V16Z" fill="#B6CBD6"/>
<path d="M84 16H80V20H84V16Z" fill="#B6CBD6"/>
<path d="M88 16H84V20H88V16Z" fill="#B6CBD6"/>
<path d="M92 16H88V20H92V16Z" fill="#B6CBD6"/>
<path d="M96 16H92V20H96V16Z" fill="#B6CBD6"/>
<path d="M100 16H96V20H100V16Z" fill="#B6CBD6"/>
<path d="M104 16H100V20H104V16Z" fill="#C1D7E3"/>
<path d="M108 16H104V20H108V16Z" fill="#C1D7E3"/>
<path d="M112 16H108V20H112V16Z" fill="#C1D7E3"/>
<path d="M116 16H112V20H116V16Z" fill="#9BADB7"/>
<path d="M120 16H116V20H120V16Z" fill="#9BADB7"/>
<path d="M8 20H4V24H8V20Z" fill="#9BADB7"/>
<path d="M12 20H8V24H12V20Z" fill="#C1D7E3"/>
<path d="M16 20H12V24H16V20Z" fill="#C1D7E3"/>
<path d="M20 20H16V24H20V20Z" fill="#C1D7E3"/>
<path d="M24 20H20V24H24V20Z" fill="#B6CBD6"/>
<path d="M28 20H24V24H28V20Z" fill="#B6CBD6"/>
<path d="M32 20H28V24H32V20Z" fill="#B6CBD6"/>
<path d="M36 20H32V24H36V20Z" fill="#B6CBD6"/>
<path d="M40 20H36V24H40V20Z" fill="#B6CBD6"/>
<path d="M44 20H40V24H44V20Z" fill="#B6CBD6"/>
<path d="M48 20H44V24H48V20Z" fill="#B6CBD6"/>
<path d="M52 20H48V24H52V20Z" fill="#B6CBD6"/>
<path d="M56 20H52V24H56V20Z" fill="#B6CBD6"/>
<path d="M60 20H56V24H60V20Z" fill="#B6CBD6"/>
<path d="M64 20H60V24H64V20Z" fill="#B6CBD6"/>
<path d="M68 20H64V24H68V20Z" fill="#B6CBD6"/>
<path d="M72 20H68V24H72V20Z" fill="#B6CBD6"/>
<path d="M76 20H72V24H76V20Z" fill="#B6CBD6"/>
<path d="M80 20H76V24H80V20Z" fill="#B6CBD6"/>
<path d="M84 20H80V24H84V20Z" fill="#B6CBD6"/>
<path d="M88 20H84V24H88V20Z" fill="#B6CBD6"/>
<path d="M92 20H88V24H92V20Z" fill="#B6CBD6"/>
<path d="M96 20H92V24H96V20Z" fill="#B6CBD6"/>
<path d="M100 20H96V24H100V20Z" fill="#B6CBD6"/>
<path d="M104 20H100V24H104V20Z" fill="#B6CBD6"/>
<path d="M108 20H104V24H108V20Z" fill="#B6CBD6"/>
<path d="M112 20H108V24H112V20Z" fill="#C1D7E3"/>
<path d="M116 20H112V24H116V20Z" fill="#C1D7E3"/>
<path d="M120 20H116V24H120V20Z" fill="#C1D7E3"/>
<path d="M124 20H120V24H124V20Z" fill="#9BADB7"/>
<path d="M8 24H4V28H8V24Z" fill="#9BADB7"/>
<path d="M12 24H8V28H12V24Z" fill="#C1D7E3"/>
<path d="M16 24H12V28H16V24Z" fill="#C1D7E3"/>
<path d="M20 24H16V28H20V24Z" fill="#B6CBD6"/>
<path d="M24 24H20V28H24V24Z" fill="#B6CBD6"/>
<path d="M28 24H24V28H28V24Z" fill="#B6CBD6"/>
<path d="M32 24H28V28H32V24Z" fill="#B6CBD6"/>
<path d="M36 24H32V28H36V24Z" fill="#B6CBD6"/>
<path d="M40 24H36V28H40V24Z" fill="#B6CBD6"/>
<path d="M44 24H40V28H44V24Z" fill="#B6CBD6"/>
<path d="M48 24H44V28H48V24Z" fill="#B6CBD6"/>
<path d="M52 24H48V28H52V24Z" fill="#B6CBD6"/>
<path d="M56 24H52V28H56V24Z" fill="#B6CBD6"/>
<path d="M60 24H56V28H60V24Z" fill="#B6CBD6"/>
<path d="M64 24H60V28H64V24Z" fill="#B6CBD6"/>
<path d="M68 24H64V28H68V24Z" fill="#B6CBD6"/>
<path d="M72 24H68V28H72V24Z" fill="#B6CBD6"/>
<path d="M76 24H72V28H76V24Z" fill="#B6CBD6"/>
<path d="M80 24H76V28H80V24Z" fill="#B6CBD6"/>
<path d="M84 24H80V28H84V24Z" fill="#B6CBD6"/>
<path d="M88 24H84V28H88V24Z" fill="#B6CBD6"/>
<path d="M92 24H88V28H92V24Z" fill="#B6CBD6"/>
<path d="M96 24H92V28H96V24Z" fill="#B6CBD6"/>
<path d="M100 24H96V28H100V24Z" fill="#B6CBD6"/>
<path d="M104 24H100V28H104V24Z" fill="#B6CBD6"/>
<path d="M108 24H104V28H108V24Z" fill="#B6CBD6"/>
<path d="M112 24H108V28H112V24Z" fill="#B6CBD6"/>
<path d="M116 24H112V28H116V24Z" fill="#C1D7E3"/>
<path d="M120 24H116V28H120V24Z" fill="#C1D7E3"/>
<path d="M124 24H120V28H124V24Z" fill="#9BADB7"/>
<path d="M8 28H4V32H8V28Z" fill="#9BADB7"/>
<path d="M12 28H8V32H12V28Z" fill="#C1D7E3"/>
<path d="M16 28H12V32H16V28Z" fill="#B6CBD6"/>
<path d="M20 28H16V32H20V28Z" fill="#B6CBD6"/>
<path d="M24 28H20V32H24V28Z" fill="#B6CBD6"/>
<path d="M28 28H24V32H28V28Z" fill="#B6CBD6"/>
<path d="M32 28H28V32H32V28Z" fill="#B6CBD6"/>
<path d="M36 28H32V32H36V28Z" fill="#B6CBD6"/>
<path d="M40 28H36V32H40V28Z" fill="#B6CBD6"/>
<path d="M44 28H40V32H44V28Z" fill="#B6CBD6"/>
<path d="M48 28H44V32H48V28Z" fill="#B6CBD6"/>
<path d="M52 28H48V32H52V28Z" fill="#B6CBD6"/>
<path d="M56 28H52V32H56V28Z" fill="#B6CBD6"/>
<path d="M60 28H56V32H60V28Z" fill="#B6CBD6"/>
<path d="M64 28H60V32H64V28Z" fill="#B6CBD6"/>
<path d="M68 28H64V32H68V28Z" fill="#B6CBD6"/>
<path d="M72 28H68V32H72V28Z" fill="#B6CBD6"/>
<path d="M76 28H72V32H76V28Z" fill="#B6CBD6"/>
<path d="M80 28H76V32H80V28Z" fill="#B6CBD6"/>
<path d="M84 28H80V32H84V28Z" fill="#B6CBD6"/>
<path d="M88 28H84V32H88V28Z" fill="#B6CBD6"/>
<path d="M92 28H88V32H92V28Z" fill="#B6CBD6"/>
<path d="M96 28H92V32H96V28Z" fill="#B6CBD6"/>
<path d="M100 28H96V32H100V28Z" fill="#B6CBD6"/>
<path d="M104 28H100V32H104V28Z" fill="#B6CBD6"/>
<path d="M108 28H104V32H108V28Z" fill="#B6CBD6"/>
<path d="M112 28H108V32H112V28Z" fill="#B6CBD6"/>
<path d="M116 28H112V32H116V28Z" fill="#B6CBD6"/>
<path d="M120 28H116V32H120V28Z" fill="#C1D7E3"/>
<path d="M124 28H120V32H124V28Z" fill="#9BADB7"/>
<path d="M8 32H4V36H8V32Z" fill="#9BADB7"/>
<path d="M12 32H8V36H12V32Z" fill="#C1D7E3"/>
<path d="M16 32H12V36H16V32Z" fill="#B6CBD6"/>
<path d="M20 32H16V36H20V32Z" fill="#B6CBD6"/>
<path d="M24 32H20V36H24V32Z" fill="#B6CBD6"/>
<path d="M28 32H24V36H28V32Z" fill="#B6CBD6"/>
<path d="M32 32H28V36H32V32Z" fill="#B6CBD6"/>
<path d="M36 32H32V36H36V32Z" fill="#B6CBD6"/>
<path d="M40 32H36V36H40V32Z" fill="#B6CBD6"/>
<path d="M44 32H40V36H44V32Z" fill="#B6CBD6"/>
<path d="M48 32H44V36H48V32Z" fill="#B6CBD6"/>
<path d="M52 32H48V36H52V32Z" fill="#B6CBD6"/>
<path d="M56 32H52V36H56V32Z" fill="#B6CBD6"/>
<path d="M60 32H56V36H60V32Z" fill="#B6CBD6"/>
<path d="M64 32H60V36H64V32Z" fill="#B6CBD6"/>
<path d="M68 32H64V36H68V32Z" fill="#B6CBD6"/>
<path d="M72 32H68V36H72V32Z" fill="#B6CBD6"/>
<path d="M76 32H72V36H76V32Z" fill="#B6CBD6"/>
<path d="M80 32H76V36H80V32Z" fill="#B6CBD6"/>
<path d="M84 32H80V36H84V32Z" fill="#B6CBD6"/>
<path d="M88 32H84V36H88V32Z" fill="#B6CBD6"/>
<path d="M92 32H88V36H92V32Z" fill="#B6CBD6"/>
<path d="M96 32H92V36H96V32Z" fill="#B6CBD6"/>
<path d="M100 32H96V36H100V32Z" fill="#B6CBD6"/>
<path d="M104 32H100V36H104V32Z" fill="#B6CBD6"/>
<path d="M108 32H104V36H108V32Z" fill="#B6CBD6"/>
<path d="M112 32H108V36H112V32Z" fill="#B6CBD6"/>
<path d="M116 32H112V36H116V32Z" fill="#B6CBD6"/>
<path d="M120 32H116V36H120V32Z" fill="#C1D7E3"/>
<path d="M124 32H120V36H124V32Z" fill="#9BADB7"/>
<path d="M8 36H4V40H8V36Z" fill="#9BADB7"/>
<path d="M12 36H8V40H12V36Z" fill="#C1D7E3"/>
<path d="M16 36H12V40H16V36Z" fill="#B6CBD6"/>
<path d="M20 36H16V40H20V36Z" fill="#B6CBD6"/>
<path d="M24 36H20V40H24V36Z" fill="#B6CBD6"/>
<path d="M28 36H24V40H28V36Z" fill="#B6CBD6"/>
<path d="M32 36H28V40H32V36Z" fill="#B6CBD6"/>
<path d="M36 36H32V40H36V36Z" fill="#B6CBD6"/>
<path d="M40 36H36V40H40V36Z" fill="#B6CBD6"/>
<path d="M44 36H40V40H44V36Z" fill="#B6CBD6"/>
<path d="M48 36H44V40H48V36Z" fill="#B6CBD6"/>
<path d="M52 36H48V40H52V36Z" fill="#B6CBD6"/>
<path d="M56 36H52V40H56V36Z" fill="#B6CBD6"/>
<path d="M60 36H56V40H60V36Z" fill="#B6CBD6"/>
<path d="M64 36H60V40H64V36Z" fill="#B6CBD6"/>
<path d="M68 36H64V40H68V36Z" fill="#B6CBD6"/>
<path d="M72 36H68V40H72V36Z" fill="#B6CBD6"/>
<path d="M76 36H72V40H76V36Z" fill="#B6CBD6"/>
<path d="M80 36H76V40H80V36Z" fill="#B6CBD6"/>
<path d="M84 36H80V40H84V36Z" fill="#B6CBD6"/>
<path d="M88 36H84V40H88V36Z" fill="#B6CBD6"/>
<path d="M92 36H88V40H92V36Z" fill="#B6CBD6"/>
<path d="M96 36H92V40H96V36Z" fill="#B6CBD6"/>
<path d="M100 36H96V40H100V36Z" fill="#B6CBD6"/>
<path d="M104 36H100V40H104V36Z" fill="#B6CBD6"/>
<path d="M108 36H104V40H108V36Z" fill="#B6CBD6"/>
<path d="M112 36H108V40H112V36Z" fill="#B6CBD6"/>
<path d="M116 36H112V40H116V36Z" fill="#B6CBD6"/>
<path d="M120 36H116V40H120V36Z" fill="#C1D7E3"/>
<path d="M124 36H120V40H124V36Z" fill="#9BADB7"/>
<path d="M8 40H4V44H8V40Z" fill="#9BADB7"/>
<path d="M12 40H8V44H12V40Z" fill="#C1D7E3"/>
<path d="M16 40H12V44H16V40Z" fill="#B6CBD6"/>
<path d="M20 40H16V44H20V40Z" fill="#B6CBD6"/>
<path d="M24 40H20V44H24V40Z" fill="#B6CBD6"/>
<path d="M28 40H24V44H28V40Z" fill="#B6CBD6"/>
<path d="M32 40H28V44H32V40Z" fill="#B6CBD6"/>
<path d="M36 40H32V44H36V40Z" fill="#B6CBD6"/>
<path d="M40 40H36V44H40V40Z" fill="#B6CBD6"/>
<path d="M44 40H40V44H44V40Z" fill="#B6CBD6"/>
<path d="M48 40H44V44H48V40Z" fill="#B6CBD6"/>
<path d="M52 40H48V44H52V40Z" fill="#B6CBD6"/>
<path d="M56 40H52V44H56V40Z" fill="#B6CBD6"/>
<path d="M60 40H56V44H60V40Z" fill="#B6CBD6"/>
<path d="M64 40H60V44H64V40Z" fill="#B6CBD6"/>
<path d="M68 40H64V44H68V40Z" fill="#B6CBD6"/>
<path d="M72 40H68V44H72V40Z" fill="#B6CBD6"/>
<path d="M76 40H72V44H76V40Z" fill="#B6CBD6"/>
<path d="M80 40H76V44H80V40Z" fill="#B6CBD6"/>
<path d="M84 40H80V44H84V40Z" fill="#B6CBD6"/>
<path d="M88 40H84V44H88V40Z" fill="#B6CBD6"/>
<path d="M92 40H88V44H92V40Z" fill="#B6CBD6"/>
<path d="M96 40H92V44H96V40Z" fill="#B6CBD6"/>
<path d="M100 40H96V44H100V40Z" fill="#B6CBD6"/>
<path d="M104 40H100V44H104V40Z" fill="#B6CBD6"/>
<path d="M108 40H104V44H108V40Z" fill="#B6CBD6"/>
<path d="M112 40H108V44H112V40Z" fill="#B6CBD6"/>
<path d="M116 40H112V44H116V40Z" fill="#B6CBD6"/>
<path d="M120 40H116V44H120V40Z" fill="#C1D7E3"/>
<path d="M124 40H120V44H124V40Z" fill="#9BADB7"/>
<path d="M8 44H4V48H8V44Z" fill="#9BADB7"/>
<path d="M12 44H8V48H12V44Z" fill="#C1D7E3"/>
<path d="M16 44H12V48H16V44Z" fill="#B6CBD6"/>
<path d="M20 44H16V48H20V44Z" fill="#B6CBD6"/>
<path d="M24 44H20V48H24V44Z" fill="#B6CBD6"/>
<path d="M28 44H24V48H28V44Z" fill="#B6CBD6"/>
<path d="M32 44H28V48H32V44Z" fill="#B6CBD6"/>
<path d="M36 44H32V48H36V44Z" fill="#B6CBD6"/>
<path d="M40 44H36V48H40V44Z" fill="#B6CBD6"/>
<path d="M44 44H40V48H44V44Z" fill="#B6CBD6"/>
<path d="M48 44H44V48H48V44Z" fill="#B6CBD6"/>
<path d="M52 44H48V48H52V44Z" fill="#B6CBD6"/>
<path d="M56 44H52V48H56V44Z" fill="#B6CBD6"/>
<path d="M60 44H56V48H60V44Z" fill="#B6CBD6"/>
<path d="M64 44H60V48H64V44Z" fill="#B6CBD6"/>
<path d="M68 44H64V48H68V44Z" fill="#B6CBD6"/>
<path d="M72 44H68V48H72V44Z" fill="#B6CBD6"/>
<path d="M76 44H72V48H76V44Z" fill="#B6CBD6"/>
<path d="M80 44H76V48H80V44Z" fill="#B6CBD6"/>
<path d="M84 44H80V48H84V44Z" fill="#B6CBD6"/>
<path d="M88 44H84V48H88V44Z" fill="#B6CBD6"/>
<path d="M92 44H88V48H92V44Z" fill="#B6CBD6"/>
<path d="M96 44H92V48H96V44Z" fill="#B6CBD6"/>
<path d="M100 44H96V48H100V44Z" fill="#B6CBD6"/>
<path d="M104 44H100V48H104V44Z" fill="#B6CBD6"/>
<path d="M108 44H104V48H108V44Z" fill="#B6CBD6"/>
<path d="M112 44H108V48H112V44Z" fill="#B6CBD6"/>
<path d="M116 44H112V48H116V44Z" fill="#B6CBD6"/>
<path d="M120 44H116V48H120V44Z" fill="#C1D7E3"/>
<path d="M124 44H120V48H124V44Z" fill="#9BADB7"/>
<path d="M8 48H4V52H8V48Z" fill="#9BADB7"/>
<path d="M12 48H8V52H12V48Z" fill="#C1D7E3"/>
<path d="M16 48H12V52H16V48Z" fill="#B6CBD6"/>
<path d="M20 48H16V52H20V48Z" fill="#B6CBD6"/>
<path d="M24 48H20V52H24V48Z" fill="#B6CBD6"/>
<path d="M28 48H24V52H28V48Z" fill="#B6CBD6"/>
<path d="M32 48H28V52H32V48Z" fill="#B6CBD6"/>
<path d="M36 48H32V52H36V48Z" fill="#B6CBD6"/>
<path d="M40 48H36V52H40V48Z" fill="#B6CBD6"/>
<path d="M44 48H40V52H44V48Z" fill="#B6CBD6"/>
<path d="M48 48H44V52H48V48Z" fill="#B6CBD6"/>
<path d="M52 48H48V52H52V48Z" fill="#B6CBD6"/>
<path d="M56 48H52V52H56V48Z" fill="#B6CBD6"/>
<path d="M60 48H56V52H60V48Z" fill="#B6CBD6"/>
<path d="M64 48H60V52H64V48Z" fill="#B6CBD6"/>
<path d="M68 48H64V52H68V48Z" fill="#B6CBD6"/>
<path d="M72 48H68V52H72V48Z" fill="#B6CBD6"/>
<path d="M76 48H72V52H76V48Z" fill="#B6CBD6"/>
<path d="M80 48H76V52H80V48Z" fill="#B6CBD6"/>
<path d="M84 48H80V52H84V48Z" fill="#B6CBD6"/>
<path d="M88 48H84V52H88V48Z" fill="#B6CBD6"/>
<path d="M92 48H88V52H92V48Z" fill="#B6CBD6"/>
<path d="M96 48H92V52H96V48Z" fill="#B6CBD6"/>
<path d="M100 48H96V52H100V48Z" fill="#B6CBD6"/>
<path d="M104 48H100V52H104V48Z" fill="#B6CBD6"/>
<path d="M108 48H104V52H108V48Z" fill="#B6CBD6"/>
<path d="M112 48H108V52H112V48Z" fill="#B6CBD6"/>
<path d="M116 48H112V52H116V48Z" fill="#B6CBD6"/>
<path d="M120 48H116V52H120V48Z" fill="#C1D7E3"/>
<path d="M124 48H120V52H124V48Z" fill="#9BADB7"/>
<path d="M8 52H4V56H8V52Z" fill="#9BADB7"/>
<path d="M12 52H8V56H12V52Z" fill="#C1D7E3"/>
<path d="M16 52H12V56H16V52Z" fill="#B6CBD6"/>
<path d="M20 52H16V56H20V52Z" fill="#B6CBD6"/>
<path d="M24 52H20V56H24V52Z" fill="#B6CBD6"/>
<path d="M28 52H24V56H28V52Z" fill="#B6CBD6"/>
<path d="M32 52H28V56H32V52Z" fill="#B6CBD6"/>
<path d="M36 52H32V56H36V52Z" fill="#B6CBD6"/>
<path d="M40 52H36V56H40V52Z" fill="#B6CBD6"/>
<path d="M44 52H40V56H44V52Z" fill="#B6CBD6"/>
<path d="M48 52H44V56H48V52Z" fill="#B6CBD6"/>
<path d="M52 52H48V56H52V52Z" fill="#B6CBD6"/>
<path d="M56 52H52V56H56V52Z" fill="#B6CBD6"/>
<path d="M60 52H56V56H60V52Z" fill="#B6CBD6"/>
<path d="M64 52H60V56H64V52Z" fill="#B6CBD6"/>
<path d="M68 52H64V56H68V52Z" fill="#B6CBD6"/>
<path d="M72 52H68V56H72V52Z" fill="#B6CBD6"/>
<path d="M76 52H72V56H76V52Z" fill="#B6CBD6"/>
<path d="M80 52H76V56H80V52Z" fill="#B6CBD6"/>
<path d="M84 52H80V56H84V52Z" fill="#B6CBD6"/>
<path d="M88 52H84V56H88V52Z" fill="#B6CBD6"/>
<path d="M92 52H88V56H92V52Z" fill="#B6CBD6"/>
<path d="M96 52H92V56H96V52Z" fill="#B6CBD6"/>
<path d="M100 52H96V56H100V52Z" fill="#B6CBD6"/>
<path d="M104 52H100V56H104V52Z" fill="#B6CBD6"/>
<path d="M108 52H104V56H108V52Z" fill="#B6CBD6"/>
<path d="M112 52H108V56H112V52Z" fill="#B6CBD6"/>
<path d="M116 52H112V56H116V52Z" fill="#B6CBD6"/>
<path d="M120 52H116V56H120V52Z" fill="#C1D7E3"/>
<path d="M124 52H120V56H124V52Z" fill="#9BADB7"/>
<path d="M8 56H4V60H8V56Z" fill="#9BADB7"/>
<path d="M12 56H8V60H12V56Z" fill="#C1D7E3"/>
<path d="M16 56H12V60H16V56Z" fill="#B6CBD6"/>
<path d="M20 56H16V60H20V56Z" fill="#B6CBD6"/>
<path d="M24 56H20V60H24V56Z" fill="#B6CBD6"/>
<path d="M28 56H24V60H28V56Z" fill="#B6CBD6"/>
<path d="M32 56H28V60H32V56Z" fill="#B6CBD6"/>
<path d="M36 56H32V60H36V56Z" fill="#B6CBD6"/>
<path d="M40 56H36V60H40V56Z" fill="#B6CBD6"/>
<path d="M44 56H40V60H44V56Z" fill="#B6CBD6"/>
<path d="M48 56H44V60H48V56Z" fill="#B6CBD6"/>
<path d="M52 56H48V60H52V56Z" fill="#B6CBD6"/>
<path d="M56 56H52V60H56V56Z" fill="#B6CBD6"/>
<path d="M60 56H56V60H60V56Z" fill="#B6CBD6"/>
<path d="M64 56H60V60H64V56Z" fill="#B6CBD6"/>
<path d="M68 56H64V60H68V56Z" fill="#B6CBD6"/>
<path d="M72 56H68V60H72V56Z" fill="#B6CBD6"/>
<path d="M76 56H72V60H76V56Z" fill="#B6CBD6"/>
<path d="M80 56H76V60H80V56Z" fill="#B6CBD6"/>
<path d="M84 56H80V60H84V56Z" fill="#B6CBD6"/>
<path d="M88 56H84V60H88V56Z" fill="#B6CBD6"/>
<path d="M92 56H88V60H92V56Z" fill="#B6CBD6"/>
<path d="M96 56H92V60H96V56Z" fill="#B6CBD6"/>
<path d="M100 56H96V60H100V56Z" fill="#B6CBD6"/>
<path d="M104 56H100V60H104V56Z" fill="#B6CBD6"/>
<path d="M108 56H104V60H108V56Z" fill="#B6CBD6"/>
<path d="M112 56H108V60H112V56Z" fill="#B6CBD6"/>
<path d="M116 56H112V60H116V56Z" fill="#B6CBD6"/>
<path d="M120 56H116V60H120V56Z" fill="#C1D7E3"/>
<path d="M124 56H120V60H124V56Z" fill="#9BADB7"/>
<path d="M8 60H4V64H8V60Z" fill="#9BADB7"/>
<path d="M12 60H8V64H12V60Z" fill="#C1D7E3"/>
<path d="M16 60H12V64H16V60Z" fill="#B6CBD6"/>
<path d="M20 60H16V64H20V60Z" fill="#B6CBD6"/>
<path d="M24 60H20V64H24V60Z" fill="#B6CBD6"/>
<path d="M28 60H24V64H28V60Z" fill="#B6CBD6"/>
<path d="M32 60H28V64H32V60Z" fill="#B6CBD6"/>
<path d="M36 60H32V64H36V60Z" fill="#B6CBD6"/>
<path d="M40 60H36V64H40V60Z" fill="#B6CBD6"/>
<path d="M44 60H40V64H44V60Z" fill="#B6CBD6"/>
<path d="M48 60H44V64H48V60Z" fill="#B6CBD6"/>
<path d="M52 60H48V64H52V60Z" fill="#B6CBD6"/>
<path d="M56 60H52V64H56V60Z" fill="#B6CBD6"/>
<path d="M60 60H56V64H60V60Z" fill="#B6CBD6"/>
<path d="M64 60H60V64H64V60Z" fill="#B6CBD6"/>
<path d="M68 60H64V64H68V60Z" fill="#B6CBD6"/>
<path d="M72 60H68V64H72V60Z" fill="#B6CBD6"/>
<path d="M76 60H72V64H76V60Z" fill="#B6CBD6"/>
<path d="M80 60H76V64H80V60Z" fill="#B6CBD6"/>
<path d="M84 60H80V64H84V60Z" fill="#B6CBD6"/>
<path d="M88 60H84V64H88V60Z" fill="#B6CBD6"/>
<path d="M92 60H88V64H92V60Z" fill="#B6CBD6"/>
<path d="M96 60H92V64H96V60Z" fill="#B6CBD6"/>
<path d="M100 60H96V64H100V60Z" fill="#B6CBD6"/>
<path d="M104 60H100V64H104V60Z" fill="#B6CBD6"/>
<path d="M108 60H104V64H108V60Z" fill="#B6CBD6"/>
<path d="M112 60H108V64H112V60Z" fill="#B6CBD6"/>
<path d="M116 60H112V64H116V60Z" fill="#B6CBD6"/>
<path d="M120 60H116V64H120V60Z" fill="#C1D7E3"/>
<path d="M124 60H120V64H124V60Z" fill="#9BADB7"/>
<path d="M8 64H4V68H8V64Z" fill="#9BADB7"/>
<path d="M12 64H8V68H12V64Z" fill="#B6CBD6"/>
<path d="M16 64H12V68H16V64Z" fill="#B6CBD6"/>
<path d="M20 64H16V68H20V64Z" fill="#B6CBD6"/>
<path d="M24 64H20V68H24V64Z" fill="#B6CBD6"/>
<path d="M28 64H24V68H28V64Z" fill="#B6CBD6"/>
<path d="M32 64H28V68H32V64Z" fill="#B6CBD6"/>
<path d="M36 64H32V68H36V64Z" fill="#B6CBD6"/>
<path d="M40 64H36V68H40V64Z" fill="#B6CBD6"/>
<path d="M44 64H40V68H44V64Z" fill="#B6CBD6"/>
<path d="M48 64H44V68H48V64Z" fill="#B6CBD6"/>
<path d="M52 64H48V68H52V64Z" fill="#B6CBD6"/>
<path d="M56 64H52V68H56V64Z" fill="#B6CBD6"/>
<path d="M60 64H56V68H60V64Z" fill="#B6CBD6"/>
<path d="M64 64H60V68H64V64Z" fill="#B6CBD6"/>
<path d="M68 64H64V68H68V64Z" fill="#B6CBD6"/>
<path d="M72 64H68V68H72V64Z" fill="#B6CBD6"/>
<path d="M76 64H72V68H76V64Z" fill="#B6CBD6"/>
<path d="M80 64H76V68H80V64Z" fill="#B6CBD6"/>
<path d="M84 64H80V68H84V64Z" fill="#B6CBD6"/>
<path d="M88 64H84V68H88V64Z" fill="#B6CBD6"/>
<path d="M92 64H88V68H92V64Z" fill="#B6CBD6"/>
<path d="M96 64H92V68H96V64Z" fill="#B6CBD6"/>
<path d="M100 64H96V68H100V64Z" fill="#B6CBD6"/>
<path d="M104 64H100V68H104V64Z" fill="#B6CBD6"/>
<path d="M108 64H104V68H108V64Z" fill="#B6CBD6"/>
<path d="M112 64H108V68H112V64Z" fill="#B6CBD6"/>
<path d="M116 64H112V68H116V64Z" fill="#B6CBD6"/>
<path d="M120 64H116V68H120V64Z" fill="#B6CBD6"/>
<path d="M124 64H120V68H124V64Z" fill="#9BADB7"/>
<path d="M8 68H4V72H8V68Z" fill="#9BADB7"/>
<path d="M12 68H8V72H12V68Z" fill="#B6CBD6"/>
<path d="M16 68H12V72H16V68Z" fill="#B6CBD6"/>
<path d="M20 68H16V72H20V68Z" fill="#B6CBD6"/>
<path d="M24 68H20V72H24V68Z" fill="#B6CBD6"/>
<path d="M28 68H24V72H28V68Z" fill="#B6CBD6"/>
<path d="M32 68H28V72H32V68Z" fill="#B6CBD6"/>
<path d="M36 68H32V72H36V68Z" fill="#B6CBD6"/>
<path d="M40 68H36V72H40V68Z" fill="#B6CBD6"/>
<path d="M44 68H40V72H44V68Z" fill="#B6CBD6"/>
<path d="M48 68H44V72H48V68Z" fill="#B6CBD6"/>
<path d="M52 68H48V72H52V68Z" fill="#B6CBD6"/>
<path d="M56 68H52V72H56V68Z" fill="#B6CBD6"/>
<path d="M60 68H56V72H60V68Z" fill="#B6CBD6"/>
<path d="M64 68H60V72H64V68Z" fill="#B6CBD6"/>
<path d="M68 68H64V72H68V68Z" fill="#B6CBD6"/>
<path d="M72 68H68V72H72V68Z" fill="#B6CBD6"/>
<path d="M76 68H72V72H76V68Z" fill="#B6CBD6"/>
<path d="M80 68H76V72H80V68Z" fill="#B6CBD6"/>
<path d="M84 68H80V72H84V68Z" fill="#B6CBD6"/>
<path d="M88 68H84V72H88V68Z" fill="#B6CBD6"/>
<path d="M92 68H88V72H92V68Z" fill="#B6CBD6"/>
<path d="M96 68H92V72H96V68Z" fill="#B6CBD6"/>
<path d="M100 68H96V72H100V68Z" fill="#B6CBD6"/>
<path d="M104 68H100V72H104V68Z" fill="#B6CBD6"/>
<path d="M108 68H104V72H108V68Z" fill="#B6CBD6"/>
<path d="M112 68H108V72H112V68Z" fill="#B6CBD6"/>
<path d="M116 68H112V72H116V68Z" fill="#B6CBD6"/>
<path d="M120 68H116V72H120V68Z" fill="#B6CBD6"/>
<path d="M124 68H120V72H124V68Z" fill="#9BADB7"/>
<path d="M8 72H4V76H8V72Z" fill="#9BADB7"/>
<path d="M12 72H8V76H12V72Z" fill="#B6CBD6"/>
<path d="M16 72H12V76H16V72Z" fill="#B6CBD6"/>
<path d="M20 72H16V76H20V72Z" fill="#B6CBD6"/>
<path d="M24 72H20V76H24V72Z" fill="#B6CBD6"/>
<path d="M28 72H24V76H28V72Z" fill="#B6CBD6"/>
<path d="M32 72H28V76H32V72Z" fill="#B6CBD6"/>
<path d="M36 72H32V76H36V72Z" fill="#B6CBD6"/>
<path d="M40 72H36V76H40V72Z" fill="#B6CBD6"/>
<path d="M44 72H40V76H44V72Z" fill="#B6CBD6"/>
<path d="M48 72H44V76H48V72Z" fill="#B6CBD6"/>
<path d="M52 72H48V76H52V72Z" fill="#B6CBD6"/>
<path d="M56 72H52V76H56V72Z" fill="#B6CBD6"/>
<path d="M60 72H56V76H60V72Z" fill="#B6CBD6"/>
<path d="M64 72H60V76H64V72Z" fill="#B6CBD6"/>
<path d="M68 72H64V76H68V72Z" fill="#B6CBD6"/>
<path d="M72 72H68V76H72V72Z" fill="#B6CBD6"/>
<path d="M76 72H72V76H76V72Z" fill="#B6CBD6"/>
<path d="M80 72H76V76H80V72Z" fill="#B6CBD6"/>
<path d="M84 72H80V76H84V72Z" fill="#B6CBD6"/>
<path d="M88 72H84V76H88V72Z" fill="#B6CBD6"/>
<path d="M92 72H88V76H92V72Z" fill="#B6CBD6"/>
<path d="M96 72H92V76H96V72Z" fill="#B6CBD6"/>
<path d="M100 72H96V76H100V72Z" fill="#B6CBD6"/>
<path d="M104 72H100V76H104V72Z" fill="#B6CBD6"/>
<path d="M108 72H104V76H108V72Z" fill="#B6CBD6"/>
<path d="M112 72H108V76H112V72Z" fill="#B6CBD6"/>
<path d="M116 72H112V76H116V72Z" fill="#B6CBD6"/>
<path d="M120 72H116V76H120V72Z" fill="#B6CBD6"/>
<path d="M124 72H120V76H124V72Z" fill="#9BADB7"/>
<path d="M8 76H4V80H8V76Z" fill="#9BADB7"/>
<path d="M12 76H8V80H12V76Z" fill="#B6CBD6"/>
<path d="M16 76H12V80H16V76Z" fill="#B6CBD6"/>
<path d="M20 76H16V80H20V76Z" fill="#B6CBD6"/>
<path d="M24 76H20V80H24V76Z" fill="#B6CBD6"/>
<path d="M28 76H24V80H28V76Z" fill="#B6CBD6"/>
<path d="M32 76H28V80H32V76Z" fill="#B6CBD6"/>
<path d="M36 76H32V80H36V76Z" fill="#B6CBD6"/>
<path d="M40 76H36V80H40V76Z" fill="#B6CBD6"/>
<path d="M44 76H40V80H44V76Z" fill="#B6CBD6"/>
<path d="M48 76H44V80H48V76Z" fill="#B6CBD6"/>
<path d="M52 76H48V80H52V76Z" fill="#B6CBD6"/>
<path d="M56 76H52V80H56V76Z" fill="#B6CBD6"/>
<path d="M60 76H56V80H60V76Z" fill="#B6CBD6"/>
<path d="M64 76H60V80H64V76Z" fill="#B6CBD6"/>
<path d="M68 76H64V80H68V76Z" fill="#B6CBD6"/>
<path d="M72 76H68V80H72V76Z" fill="#B6CBD6"/>
<path d="M76 76H72V80H76V76Z" fill="#B6CBD6"/>
<path d="M80 76H76V80H80V76Z" fill="#B6CBD6"/>
<path d="M84 76H80V80H84V76Z" fill="#B6CBD6"/>
<path d="M88 76H84V80H88V76Z" fill="#B6CBD6"/>
<path d="M92 76H88V80H92V76Z" fill="#B6CBD6"/>
<path d="M96 76H92V80H96V76Z" fill="#B6CBD6"/>
<path d="M100 76H96V80H100V76Z" fill="#B6CBD6"/>
<path d="M104 76H100V80H104V76Z" fill="#B6CBD6"/>
<path d="M108 76H104V80H108V76Z" fill="#B6CBD6"/>
<path d="M112 76H108V80H112V76Z" fill="#B6CBD6"/>
<path d="M116 76H112V80H116V76Z" fill="#B6CBD6"/>
<path d="M120 76H116V80H120V76Z" fill="#B6CBD6"/>
<path d="M124 76H120V80H124V76Z" fill="#9BADB7"/>
<path d="M8 80H4V84H8V80Z" fill="#9BADB7"/>
<path d="M12 80H8V84H12V80Z" fill="#B6CBD6"/>
<path d="M16 80H12V84H16V80Z" fill="#B6CBD6"/>
<path d="M20 80H16V84H20V80Z" fill="#B6CBD6"/>
<path d="M24 80H20V84H24V80Z" fill="#B6CBD6"/>
<path d="M28 80H24V84H28V80Z" fill="#B6CBD6"/>
<path d="M32 80H28V84H32V80Z" fill="#B6CBD6"/>
<path d="M36 80H32V84H36V80Z" fill="#B6CBD6"/>
<path d="M40 80H36V84H40V80Z" fill="#B6CBD6"/>
<path d="M44 80H40V84H44V80Z" fill="#B6CBD6"/>
<path d="M48 80H44V84H48V80Z" fill="#B6CBD6"/>
<path d="M52 80H48V84H52V80Z" fill="#B6CBD6"/>
<path d="M56 80H52V84H56V80Z" fill="#B6CBD6"/>
<path d="M60 80H56V84H60V80Z" fill="#B6CBD6"/>
<path d="M64 80H60V84H64V80Z" fill="#B6CBD6"/>
<path d="M68 80H64V84H68V80Z" fill="#B6CBD6"/>
<path d="M72 80H68V84H72V80Z" fill="#B6CBD6"/>
<path d="M76 80H72V84H76V80Z" fill="#B6CBD6"/>
<path d="M80 80H76V84H80V80Z" fill="#B6CBD6"/>
<path d="M84 80H80V84H84V80Z" fill="#B6CBD6"/>
<path d="M88 80H84V84H88V80Z" fill="#B6CBD6"/>
<path d="M92 80H88V84H92V80Z" fill="#B6CBD6"/>
<path d="M96 80H92V84H96V80Z" fill="#B6CBD6"/>
<path d="M100 80H96V84H100V80Z" fill="#B6CBD6"/>
<path d="M104 80H100V84H104V80Z" fill="#B6CBD6"/>
<path d="M108 80H104V84H108V80Z" fill="#B6CBD6"/>
<path d="M112 80H108V84H112V80Z" fill="#B6CBD6"/>
<path d="M116 80H112V84H116V80Z" fill="#B6CBD6"/>
<path d="M120 80H116V84H120V80Z" fill="#B6CBD6"/>
<path d="M124 80H120V84H124V80Z" fill="#9BADB7"/>
<path d="M8 84H4V88H8V84Z" fill="#9BADB7"/>
<path d="M12 84H8V88H12V84Z" fill="#B6CBD6"/>
<path d="M16 84H12V88H16V84Z" fill="#B6CBD6"/>
<path d="M20 84H16V88H20V84Z" fill="#B6CBD6"/>
<path d="M24 84H20V88H24V84Z" fill="#B6CBD6"/>
<path d="M28 84H24V88H28V84Z" fill="#B6CBD6"/>
<path d="M32 84H28V88H32V84Z" fill="#B6CBD6"/>
<path d="M36 84H32V88H36V84Z" fill="#B6CBD6"/>
<path d="M40 84H36V88H40V84Z" fill="#B6CBD6"/>
<path d="M44 84H40V88H44V84Z" fill="#B6CBD6"/>
<path d="M48 84H44V88H48V84Z" fill="#B6CBD6"/>
<path d="M52 84H48V88H52V84Z" fill="#B6CBD6"/>
<path d="M56 84H52V88H56V84Z" fill="#B6CBD6"/>
<path d="M60 84H56V88H60V84Z" fill="#B6CBD6"/>
<path d="M64 84H60V88H64V84Z" fill="#B6CBD6"/>
<path d="M68 84H64V88H68V84Z" fill="#B6CBD6"/>
<path d="M72 84H68V88H72V84Z" fill="#B6CBD6"/>
<path d="M76 84H72V88H76V84Z" fill="#B6CBD6"/>
<path d="M80 84H76V88H80V84Z" fill="#B6CBD6"/>
<path d="M84 84H80V88H84V84Z" fill="#B6CBD6"/>
<path d="M88 84H84V88H88V84Z" fill="#B6CBD6"/>
<path d="M92 84H88V88H92V84Z" fill="#B6CBD6"/>
<path d="M96 84H92V88H96V84Z" fill="#B6CBD6"/>
<path d="M100 84H96V88H100V84Z" fill="#B6CBD6"/>
<path d="M104 84H100V88H104V84Z" fill="#B6CBD6"/>
<path d="M108 84H104V88H108V84Z" fill="#B6CBD6"/>
<path d="M112 84H108V88H112V84Z" fill="#B6CBD6"/>
<path d="M116 84H112V88H116V84Z" fill="#B6CBD6"/>
<path d="M120 84H116V88H120V84Z" fill="#B6CBD6"/>
<path d="M124 84H120V88H124V84Z" fill="#9BADB7"/>
<path d="M8 88H4V92H8V88Z" fill="#9BADB7"/>
<path d="M12 88H8V92H12V88Z" fill="#B6CBD6"/>
<path d="M16 88H12V92H16V88Z" fill="#B6CBD6"/>
<path d="M20 88H16V92H20V88Z" fill="#B6CBD6"/>
<path d="M24 88H20V92H24V88Z" fill="#B6CBD6"/>
<path d="M28 88H24V92H28V88Z" fill="#B6CBD6"/>
<path d="M32 88H28V92H32V88Z" fill="#B6CBD6"/>
<path d="M36 88H32V92H36V88Z" fill="#B6CBD6"/>
<path d="M40 88H36V92H40V88Z" fill="#B6CBD6"/>
<path d="M44 88H40V92H44V88Z" fill="#B6CBD6"/>
<path d="M48 88H44V92H48V88Z" fill="#B6CBD6"/>
<path d="M52 88H48V92H52V88Z" fill="#B6CBD6"/>
<path d="M56 88H52V92H56V88Z" fill="#B6CBD6"/>
<path d="M60 88H56V92H60V88Z" fill="#B6CBD6"/>
<path d="M64 88H60V92H64V88Z" fill="#B6CBD6"/>
<path d="M68 88H64V92H68V88Z" fill="#B6CBD6"/>
<path d="M72 88H68V92H72V88Z" fill="#B6CBD6"/>
<path d="M76 88H72V92H76V88Z" fill="#B6CBD6"/>
<path d="M80 88H76V92H80V88Z" fill="#B6CBD6"/>
<path d="M84 88H80V92H84V88Z" fill="#B6CBD6"/>
<path d="M88 88H84V92H88V88Z" fill="#B6CBD6"/>
<path d="M92 88H88V92H92V88Z" fill="#B6CBD6"/>
<path d="M96 88H92V92H96V88Z" fill="#B6CBD6"/>
<path d="M100 88H96V92H100V88Z" fill="#B6CBD6"/>
<path d="M104 88H100V92H104V88Z" fill="#B6CBD6"/>
<path d="M108 88H104V92H108V88Z" fill="#B6CBD6"/>
<path d="M112 88H108V92H112V88Z" fill="#B6CBD6"/>
<path d="M116 88H112V92H116V88Z" fill="#B6CBD6"/>
<path d="M120 88H116V92H120V88Z" fill="#B6CBD6"/>
<path d="M124 88H120V92H124V88Z" fill="#9BADB7"/>
<path d="M8 92H4V96H8V92Z" fill="#9BADB7"/>
<path d="M12 92H8V96H12V92Z" fill="#B6CBD6"/>
<path d="M16 92H12V96H16V92Z" fill="#B6CBD6"/>
<path d="M20 92H16V96H20V92Z" fill="#B6CBD6"/>
<path d="M24 92H20V96H24V92Z" fill="#B6CBD6"/>
<path d="M28 92H24V96H28V92Z" fill="#B6CBD6"/>
<path d="M32 92H28V96H32V92Z" fill="#B6CBD6"/>
<path d="M36 92H32V96H36V92Z" fill="#B6CBD6"/>
<path d="M40 92H36V96H40V92Z" fill="#B6CBD6"/>
<path d="M44 92H40V96H44V92Z" fill="#B6CBD6"/>
<path d="M48 92H44V96H48V92Z" fill="#B6CBD6"/>
<path d="M52 92H48V96H52V92Z" fill="#B6CBD6"/>
<path d="M56 92H52V96H56V92Z" fill="#B6CBD6"/>
<path d="M60 92H56V96H60V92Z" fill="#B6CBD6"/>
<path d="M64 92H60V96H64V92Z" fill="#B6CBD6"/>
<path d="M68 92H64V96H68V92Z" fill="#B6CBD6"/>
<path d="M72 92H68V96H72V92Z" fill="#B6CBD6"/>
<path d="M76 92H72V96H76V92Z" fill="#B6CBD6"/>
<path d="M80 92H76V96H80V92Z" fill="#B6CBD6"/>
<path d="M84 92H80V96H84V92Z" fill="#B6CBD6"/>
<path d="M88 92H84V96H88V92Z" fill="#B6CBD6"/>
<path d="M92 92H88V96H92V92Z" fill="#B6CBD6"/>
<path d="M96 92H92V96H96V92Z" fill="#B6CBD6"/>
<path d="M100 92H96V96H100V92Z" fill="#B6CBD6"/>
<path d="M104 92H100V96H104V92Z" fill="#B6CBD6"/>
<path d="M108 92H104V96H108V92Z" fill="#B6CBD6"/>
<path d="M112 92H108V96H112V92Z" fill="#B6CBD6"/>
<path d="M116 92H112V96H116V92Z" fill="#B6CBD6"/>
<path d="M120 92H116V96H120V92Z" fill="#B6CBD6"/>
<path d="M124 92H120V96H124V92Z" fill="#9BADB7"/>
<path d="M8 96H4V100H8V96Z" fill="#9BADB7"/>
<path d="M12 96H8V100H12V96Z" fill="#B6CBD6"/>
<path d="M16 96H12V100H16V96Z" fill="#B6CBD6"/>
<path d="M20 96H16V100H20V96Z" fill="#B6CBD6"/>
<path d="M24 96H20V100H24V96Z" fill="#B6CBD6"/>
<path d="M28 96H24V100H28V96Z" fill="#B6CBD6"/>
<path d="M32 96H28V100H32V96Z" fill="#B6CBD6"/>
<path d="M36 96H32V100H36V96Z" fill="#B6CBD6"/>
<path d="M40 96H36V100H40V96Z" fill="#B6CBD6"/>
<path d="M44 96H40V100H44V96Z" fill="#B6CBD6"/>
<path d="M48 96H44V100H48V96Z" fill="#B6CBD6"/>
<path d="M52 96H48V100H52V96Z" fill="#B6CBD6"/>
<path d="M56 96H52V100H56V96Z" fill="#B6CBD6"/>
<path d="M60 96H56V100H60V96Z" fill="#B6CBD6"/>
<path d="M64 96H60V100H64V96Z" fill="#B6CBD6"/>
<path d="M68 96H64V100H68V96Z" fill="#B6CBD6"/>
<path d="M72 96H68V100H72V96Z" fill="#B6CBD6"/>
<path d="M76 96H72V100H76V96Z" fill="#B6CBD6"/>
<path d="M80 96H76V100H80V96Z" fill="#B6CBD6"/>
<path d="M84 96H80V100H84V96Z" fill="#B6CBD6"/>
<path d="M88 96H84V100H88V96Z" fill="#B6CBD6"/>
<path d="M92 96H88V100H92V96Z" fill="#B6CBD6"/>
<path d="M96 96H92V100H96V96Z" fill="#B6CBD6"/>
<path d="M100 96H96V100H100V96Z" fill="#B6CBD6"/>
<path d="M104 96H100V100H104V96Z" fill="#B6CBD6"/>
<path d="M108 96H104V100H108V96Z" fill="#B6CBD6"/>
<path d="M112 96H108V100H112V96Z" fill="#B6CBD6"/>
<path d="M116 96H112V100H116V96Z" fill="#B6CBD6"/>
<path d="M120 96H116V100H120V96Z" fill="#B6CBD6"/>
<path d="M124 96H120V100H124V96Z" fill="#9BADB7"/>
<path d="M8 100H4V104H8V100Z" fill="#9BADB7"/>
<path d="M12 100H8V104H12V100Z" fill="#B6CBD6"/>
<path d="M16 100H12V104H16V100Z" fill="#B6CBD6"/>
<path d="M20 100H16V104H20V100Z" fill="#B6CBD6"/>
<path d="M24 100H20V104H24V100Z" fill="#B6CBD6"/>
<path d="M28 100H24V104H28V100Z" fill="#B6CBD6"/>
<path d="M32 100H28V104H32V100Z" fill="#B6CBD6"/>
<path d="M36 100H32V104H36V100Z" fill="#B6CBD6"/>
<path d="M40 100H36V104H40V100Z" fill="#B6CBD6"/>
<path d="M44 100H40V104H44V100Z" fill="#B6CBD6"/>
<path d="M48 100H44V104H48V100Z" fill="#B6CBD6"/>
<path d="M52 100H48V104H52V100Z" fill="#B6CBD6"/>
<path d="M56 100H52V104H56V100Z" fill="#B6CBD6"/>
<path d="M60 100H56V104H60V100Z" fill="#B6CBD6"/>
<path d="M64 100H60V104H64V100Z" fill="#B6CBD6"/>
<path d="M68 100H64V104H68V100Z" fill="#B6CBD6"/>
<path d="M72 100H68V104H72V100Z" fill="#B6CBD6"/>
<path d="M76 100H72V104H76V100Z" fill="#B6CBD6"/>
<path d="M80 100H76V104H80V100Z" fill="#B6CBD6"/>
<path d="M84 100H80V104H84V100Z" fill="#B6CBD6"/>
<path d="M88 100H84V104H88V100Z" fill="#B6CBD6"/>
<path d="M92 100H88V104H92V100Z" fill="#B6CBD6"/>
<path d="M96 100H92V104H96V100Z" fill="#B6CBD6"/>
<path d="M100 100H96V104H100V100Z" fill="#B6CBD6"/>
<path d="M104 100H100V104H104V100Z" fill="#B6CBD6"/>
<path d="M108 100H104V104H108V100Z" fill="#B6CBD6"/>
<path d="M112 100H108V104H112V100Z" fill="#B6CBD6"/>
<path d="M116 100H112V104H116V100Z" fill="#B6CBD6"/>
<path d="M120 100H116V104H120V100Z" fill="#B6CBD6"/>
<path d="M124 100H120V104H124V100Z" fill="#9BADB7"/>
<path d="M8 104H4V108H8V104Z" fill="#9BADB7"/>
<path d="M12 104H8V108H12V104Z" fill="#B6CBD6"/>
<path d="M16 104H12V108H16V104Z" fill="#B6CBD6"/>
<path d="M20 104H16V108H20V104Z" fill="#B6CBD6"/>
<path d="M24 104H20V108H24V104Z" fill="#B6CBD6"/>
<path d="M28 104H24V108H28V104Z" fill="#B6CBD6"/>
<path d="M32 104H28V108H32V104Z" fill="#B6CBD6"/>
<path d="M36 104H32V108H36V104Z" fill="#B6CBD6"/>
<path d="M40 104H36V108H40V104Z" fill="#B6CBD6"/>
<path d="M44 104H40V108H44V104Z" fill="#B6CBD6"/>
<path d="M48 104H44V108H48V104Z" fill="#B6CBD6"/>
<path d="M52 104H48V108H52V104Z" fill="#B6CBD6"/>
<path d="M56 104H52V108H56V104Z" fill="#B6CBD6"/>
<path d="M60 104H56V108H60V104Z" fill="#B6CBD6"/>
<path d="M64 104H60V108H64V104Z" fill="#B6CBD6"/>
<path d="M68 104H64V108H68V104Z" fill="#B6CBD6"/>
<path d="M72 104H68V108H72V104Z" fill="#B6CBD6"/>
<path d="M76 104H72V108H76V104Z" fill="#B6CBD6"/>
<path d="M80 104H76V108H80V104Z" fill="#B6CBD6"/>
<path d="M84 104H80V108H84V104Z" fill="#B6CBD6"/>
<path d="M88 104H84V108H88V104Z" fill="#B6CBD6"/>
<path d="M92 104H88V108H92V104Z" fill="#B6CBD6"/>
<path d="M96 104H92V108H96V104Z" fill="#B6CBD6"/>
<path d="M100 104H96V108H100V104Z" fill="#B6CBD6"/>
<path d="M104 104H100V108H104V104Z" fill="#B6CBD6"/>
<path d="M108 104H104V108H108V104Z" fill="#B6CBD6"/>
<path d="M112 104H108V108H112V104Z" fill="#B6CBD6"/>
<path d="M116 104H112V108H116V104Z" fill="#B6CBD6"/>
<path d="M120 104H116V108H120V104Z" fill="#B6CBD6"/>
<path d="M124 104H120V108H124V104Z" fill="#9BADB7"/>
<path d="M8 108H4V112H8V108Z" fill="#79888F"/>
<path d="M12 108H8V112H12V108Z" fill="#9BADB7"/>
<path d="M16 108H12V112H16V108Z" fill="#9BADB7"/>
<path d="M20 108H16V112H20V108Z" fill="#B6CBD6"/>
<path d="M24 108H20V112H24V108Z" fill="#B6CBD6"/>
<path d="M28 108H24V112H28V108Z" fill="#B6CBD6"/>
<path d="M32 108H28V112H32V108Z" fill="#B6CBD6"/>
<path d="M36 108H32V112H36V108Z" fill="#B6CBD6"/>
<path d="M40 108H36V112H40V108Z" fill="#B6CBD6"/>
<path d="M44 108H40V112H44V108Z" fill="#B6CBD6"/>
<path d="M48 108H44V112H48V108Z" fill="#B6CBD6"/>
<path d="M52 108H48V112H52V108Z" fill="#B6CBD6"/>
<path d="M56 108H52V112H56V108Z" fill="#B6CBD6"/>
<path d="M60 108H56V112H60V108Z" fill="#B6CBD6"/>
<path d="M64 108H60V112H64V108Z" fill="#B6CBD6"/>
<path d="M68 108H64V112H68V108Z" fill="#B6CBD6"/>
<path d="M72 108H68V112H72V108Z" fill="#B6CBD6"/>
<path d="M76 108H72V112H76V108Z" fill="#B6CBD6"/>
<path d="M80 108H76V112H80V108Z" fill="#B6CBD6"/>
<path d="M84 108H80V112H84V108Z" fill="#B6CBD6"/>
<path d="M88 108H84V112H88V108Z" fill="#B6CBD6"/>
<path d="M92 108H88V112H92V108Z" fill="#B6CBD6"/>
<path d="M96 108H92V112H96V108Z" fill="#B6CBD6"/>
<path d="M100 108H96V112H100V108Z" fill="#B6CBD6"/>
<path d="M104 108H100V112H104V108Z" fill="#B6CBD6"/>
<path d="M108 108H104V112H108V108Z" fill="#B6CBD6"/>
<path d="M112 108H108V112H112V108Z" fill="#B6CBD6"/>
<path d="M116 108H112V112H116V108Z" fill="#9BADB7"/>
<path d="M120 108H116V112H120V108Z" fill="#9BADB7"/>
<path d="M124 108H120V112H124V108Z" fill="#79888F"/>
<path d="M12 112H8V116H12V112Z" fill="#79888F"/>
<path d="M16 112H12V116H16V112Z" fill="#79888F"/>
<path d="M20 112H16V116H20V112Z" fill="#9BADB7"/>
<path d="M24 112H20V116H24V112Z" fill="#B6CBD6"/>
<path d="M28 112H24V116H28V112Z" fill="#B6CBD6"/>
<path d="M32 112H28V116H32V112Z" fill="#B6CBD6"/>
<path d="M36 112H32V116H36V112Z" fill="#B6CBD6"/>
<path d="M40 112H36V116H40V112Z" fill="#B6CBD6"/>
<path d="M44 112H40V116H44V112Z" fill="#B6CBD6"/>
<path d="M48 112H44V116H48V112Z" fill="#B6CBD6"/>
<path d="M52 112H48V116H52V112Z" fill="#B6CBD6"/>
<path d="M56 112H52V116H56V112Z" fill="#B6CBD6"/>
<path d="M60 112H56V116H60V112Z" fill="#B6CBD6"/>
<path d="M64 112H60V116H64V112Z" fill="#B6CBD6"/>
<path d="M68 112H64V116H68V112Z" fill="#B6CBD6"/>
<path d="M72 112H68V116H72V112Z" fill="#B6CBD6"/>
<path d="M76 112H72V116H76V112Z" fill="#B6CBD6"/>
<path d="M80 112H76V116H80V112Z" fill="#B6CBD6"/>
<path d="M84 112H80V116H84V112Z" fill="#B6CBD6"/>
<path d="M88 112H84V116H88V112Z" fill="#B6CBD6"/>
<path d="M92 112H88V116H92V112Z" fill="#B6CBD6"/>
<path d="M96 112H92V116H96V112Z" fill="#B6CBD6"/>
<path d="M100 112H96V116H100V112Z" fill="#B6CBD6"/>
<path d="M104 112H100V116H104V112Z" fill="#B6CBD6"/>
<path d="M108 112H104V116H108V112Z" fill="#B6CBD6"/>
<path d="M112 112H108V116H112V112Z" fill="#9BADB7"/>
<path d="M116 112H112V116H116V112Z" fill="#79888F"/>
<path d="M120 112H116V116H120V112Z" fill="#79888F"/>
<path d="M20 116H16V120H20V116Z" fill="#79888F"/>
<path d="M24 116H20V120H24V116Z" fill="#9BADB7"/>
<path d="M28 116H24V120H28V116Z" fill="#9BADB7"/>
<path d="M32 116H28V120H32V116Z" fill="#B6CBD6"/>
<path d="M36 116H32V120H36V116Z" fill="#B6CBD6"/>
<path d="M40 116H36V120H40V116Z" fill="#B6CBD6"/>
<path d="M44 116H40V120H44V116Z" fill="#B6CBD6"/>
<path d="M48 116H44V120H48V116Z" fill="#B6CBD6"/>
<path d="M52 116H48V120H52V116Z" fill="#B6CBD6"/>
<path d="M56 116H52V120H56V116Z" fill="#B6CBD6"/>
<path d="M60 116H56V120H60V116Z" fill="#B6CBD6"/>
<path d="M64 116H60V120H64V116Z" fill="#B6CBD6"/>
<path d="M68 116H64V120H68V116Z" fill="#B6CBD6"/>
<path d="M72 116H68V120H72V116Z" fill="#B6CBD6"/>
<path d="M76 116H72V120H76V116Z" fill="#B6CBD6"/>
<path d="M80 116H76V120H80V116Z" fill="#B6CBD6"/>
<path d="M84 116H80V120H84V116Z" fill="#B6CBD6"/>
<path d="M88 116H84V120H88V116Z" fill="#B6CBD6"/>
<path d="M92 116H88V120H92V116Z" fill="#B6CBD6"/>
<path d="M96 116H92V120H96V116Z" fill="#B6CBD6"/>
<path d="M100 116H96V120H100V116Z" fill="#B6CBD6"/>
<path d="M104 116H100V120H104V116Z" fill="#9BADB7"/>
<path d="M108 116H104V120H108V116Z" fill="#9BADB7"/>
<path d="M112 116H108V120H112V116Z" fill="#79888F"/>
<path d="M24 120H20V124H24V120Z" fill="#79888F"/>
<path d="M28 120H24V124H28V120Z" fill="#79888F"/>
<path d="M32 120H28V124H32V120Z" fill="#9BADB7"/>
<path d="M36 120H32V124H36V120Z" fill="#9BADB7"/>
<path d="M40 120H36V124H40V120Z" fill="#9BADB7"/>
<path d="M44 120H40V124H44V120Z" fill="#9BADB7"/>
<path d="M48 120H44V124H48V120Z" fill="#9BADB7"/>
<path d="M52 120H48V124H52V120Z" fill="#9BADB7"/>
<path d="M56 120H52V124H56V120Z" fill="#9BADB7"/>
<path d="M60 120H56V124H60V120Z" fill="#9BADB7"/>
<path d="M64 120H60V124H64V120Z" fill="#9BADB7"/>
<path d="M68 120H64V124H68V120Z" fill="#9BADB7"/>
<path d="M72 120H68V124H72V120Z" fill="#9BADB7"/>
<path d="M76 120H72V124H76V120Z" fill="#9BADB7"/>
<path d="M80 120H76V124H80V120Z" fill="#9BADB7"/>
<path d="M84 120H80V124H84V120Z" fill="#9BADB7"/>
<path d="M88 120H84V124H88V120Z" fill="#9BADB7"/>
<path d="M92 120H88V124H92V120Z" fill="#9BADB7"/>
<path d="M96 120H92V124H96V120Z" fill="#9BADB7"/>
<path d="M100 120H96V124H100V120Z" fill="#9BADB7"/>
<path d="M104 120H100V124H104V120Z" fill="#79888F"/>
<path d="M108 120H104V124H108V120Z" fill="#79888F"/>
<path d="M32 124H28V128H32V124Z" fill="#79888F"/>
<path d="M36 124H32V128H36V124Z" fill="#79888F"/>
<path d="M40 124H36V128H40V124Z" fill="#79888F"/>
<path d="M44 124H40V128H44V124Z" fill="#79888F"/>
<path d="M48 124H44V128H48V124Z" fill="#79888F"/>
<path d="M52 124H48V128H52V124Z" fill="#79888F"/>
<path d="M56 124H52V128H56V124Z" fill="#79888F"/>
<path d="M60 124H56V128H60V124Z" fill="#79888F"/>
<path d="M64 124H60V128H64V124Z" fill="#79888F"/>
<path d="M68 124H64V128H68V124Z" fill="#79888F"/>
<path d="M72 124H68V128H72V124Z" fill="#79888F"/>
<path d="M76 124H72V128H76V124Z" fill="#79888F"/>
<path d="M80 124H76V128H80V124Z" fill="#79888F"/>
<path d="M84 124H80V128H84V124Z" fill="#79888F"/>
<path d="M88 124H84V128H88V124Z" fill="#79888F"/>
<path d="M92 124H88V128H92V124Z" fill="#79888F"/>
<path d="M96 124H92V128H96V124Z" fill="#79888F"/>
<path d="M100 124H96V128H100V124Z" fill="#79888F"/>
<path d="M51.5 21H50.5V22H51.5V21Z" fill="#EEEEEE"/>
<path d="M52.5 21H51.5V22H52.5V21Z" fill="#EEEEEE"/>
<path d="M53.5 21H52.5V22H53.5V21Z" fill="#EEEEEE"/>
<path d="M54.5 21H53.5V22H54.5V21Z" fill="#EEEEEE"/>
<path d="M51.5 22H50.5V23H51.5V22Z" fill="#EEEEEE"/>
<path d="M52.5 22H51.5V23H52.5V22Z" fill="black"/>
<path d="M53.5 22H52.5V23H53.5V22Z" fill="black"/>
<path d="M54.5 22H53.5V23H54.5V22Z" fill="#EEEEEE"/>
<path d="M55.5 22H54.5V23H55.5V22Z" fill="#EEEEEE"/>
<path d="M51.5 23H50.5V24H51.5V23Z" fill="#EEEEEE"/>
<path d="M52.5 23H51.5V24H52.5V23Z" fill="black"/>
<path d="M53.5 23H52.5V24H53.5V23Z" fill="#90877F"/>
<path d="M54.5 23H53.5V24H54.5V23Z" fill="black"/>
<path d="M55.5 23H54.5V24H55.5V23Z" fill="#EEEEEE"/>
<path d="M43.5 24H42.5V25H43.5V24Z" fill="#EEEEEE"/>
<path d="M44.5 24H43.5V25H44.5V24Z" fill="#EEEEEE"/>
<path d="M45.5 24H44.5V25H45.5V24Z" fill="#EEEEEE"/>
<path d="M46.5 24H45.5V25H46.5V24Z" fill="#EEEEEE"/>
<path d="M51.5 24H50.5V25H51.5V24Z" fill="#EEEEEE"/>
<path d="M52.5 24H51.5V25H52.5V24Z" fill="black"/>
<path d="M53.5 24H52.5V25H53.5V24Z" fill="#90877F"/>
<path d="M54.5 24H53.5V25H54.5V24Z" fill="black"/>
<path d="M55.5 24H54.5V25H55.5V24Z" fill="#EEEEEE"/>
<path d="M56.5 24H55.5V25H56.5V24Z" fill="#EEEEEE"/>
<path d="M43.5 25H42.5V26H43.5V25Z" fill="#EEEEEE"/>
<path d="M44.5 25H43.5V26H44.5V25Z" fill="black"/>
<path d="M45.5 25H44.5V26H45.5V25Z" fill="black"/>
<path d="M46.5 25H45.5V26H46.5V25Z" fill="#EEEEEE"/>
<path d="M47.5 25H46.5V26H47.5V25Z" fill="#EEEEEE"/>
<path d="M51.5 25H50.5V26H51.5V25Z" fill="#EEEEEE"/>
<path d="M52.5 25H51.5V26H52.5V25Z" fill="black"/>
<path d="M53.5 25H52.5V26H53.5V25Z" fill="#C7BCB1"/>
<path d="M54.5 25H53.5V26H54.5V25Z" fill="#90877F"/>
<path d="M55.5 25H54.5V26H55.5V25Z" fill="black"/>
<path d="M56.5 25H55.5V26H56.5V25Z" fill="#EEEEEE"/>
<path d="M43.5 26H42.5V27H43.5V26Z" fill="#EEEEEE"/>
<path d="M44.5 26H43.5V27H44.5V26Z" fill="black"/>
<path d="M45.5 26H44.5V27H45.5V26Z" fill="#C7BCB1"/>
<path d="M46.5 26H45.5V27H46.5V26Z" fill="black"/>
<path d="M47.5 26H46.5V27H47.5V26Z" fill="#EEEEEE"/>
<path d="M48.5 26H47.5V27H48.5V26Z" fill="#EEEEEE"/>
<path d="M51.5 26H50.5V27H51.5V26Z" fill="#EEEEEE"/>
<path d="M52.5 26H51.5V27H52.5V26Z" fill="black"/>
<path d="M53.5 26H52.5V27H53.5V26Z" fill="#C7BCB1"/>
<path d="M54.5 26H53.5V27H54.5V26Z" fill="#90877F"/>
<path d="M55.5 26H54.5V27H55.5V26Z" fill="black"/>
<path d="M56.5 26H55.5V27H56.5V26Z" fill="#EEEEEE"/>
<path d="M57.5 26H56.5V27H57.5V26Z" fill="#EEEEEE"/>
<path d="M43.5 27H42.5V28H43.5V27Z" fill="#EEEEEE"/>
<path d="M44.5 27H43.5V28H44.5V27Z" fill="black"/>
<path d="M45.5 27H44.5V28H45.5V27Z" fill="#C7BCB1"/>
<path d="M46.5 27H45.5V28H46.5V27Z" fill="#90877F"/>
<path d="M47.5 27H46.5V28H47.5V27Z" fill="black"/>
<path d="M48.5 27H47.5V28H48.5V27Z" fill="#EEEEEE"/>
<path d="M49.5 27H48.5V28H49.5V27Z" fill="#EEEEEE"/>
<path d="M51.5 27H50.5V28H51.5V27Z" fill="#EEEEEE"/>
<path d="M52.5 27H51.5V28H52.5V27Z" fill="black"/>
<path d="M53.5 27H52.5V28H53.5V27Z" fill="#C7BCB1"/>
<path d="M54.5 27H53.5V28H54.5V27Z" fill="#C7BCB1"/>
<path d="M55.5 27H54.5V28H55.5V27Z" fill="#90877F"/>
<path d="M56.5 27H55.5V28H56.5V27Z" fill="black"/>
<path d="M57.5 27H56.5V28H57.5V27Z" fill="#EEEEEE"/>
<path d="M43.5 28H42.5V29H43.5V28Z" fill="#EEEEEE"/>
<path d="M44.5 28H43.5V29H44.5V28Z" fill="black"/>
<path d="M45.5 28H44.5V29H45.5V28Z" fill="#C7BCB1"/>
<path d="M46.5 28H45.5V29H46.5V28Z" fill="#C7BCB1"/>
<path d="M47.5 28H46.5V29H47.5V28Z" fill="#90877F"/>
<path d="M48.5 28H47.5V29H48.5V28Z" fill="black"/>
<path d="M49.5 28H48.5V29H49.5V28Z" fill="#EEEEEE"/>
<path d="M51.5 28H50.5V29H51.5V28Z" fill="#EEEEEE"/>
<path d="M52.5 28H51.5V29H52.5V28Z" fill="#EEEEEE"/>
<path d="M53.5 28H52.5V29H53.5V28Z" fill="black"/>
<path d="M54.5 28H53.5V29H54.5V28Z" fill="#C7BCB1"/>
<path d="M55.5 28H54.5V29H55.5V28Z" fill="#90877F"/>
<path d="M56.5 28H55.5V29H56.5V28Z" fill="black"/>
<path d="M57.5 28H56.5V29H57.5V28Z" fill="#EEEEEE"/>
<path d="M58.5 28H57.5V29H58.5V28Z" fill="#EEEEEE"/>
<path d="M43.5 29H42.5V30H43.5V29Z" fill="#EEEEEE"/>
<path d="M44.5 29H43.5V30H44.5V29Z" fill="#EEEEEE"/>
<path d="M45.5 29H44.5V30H45.5V29Z" fill="black"/>
<path d="M46.5 29H45.5V30H46.5V29Z" fill="#C7BCB1"/>
<path d="M47.5 29H46.5V30H47.5V29Z" fill="#90877F"/>
<path d="M48.5 29H47.5V30H48.5V29Z" fill="black"/>
<path d="M49.5 29H48.5V30H49.5V29Z" fill="#EEEEEE"/>
<path d="M50.5 29H49.5V30H50.5V29Z" fill="#EEEEEE"/>
<path d="M52.5 29H51.5V30H52.5V29Z" fill="#EEEEEE"/>
<path d="M53.5 29H52.5V30H53.5V29Z" fill="black"/>
<path d="M54.5 29H53.5V30H54.5V29Z" fill="#C7BCB1"/>
<path d="M55.5 29H54.5V30H55.5V29Z" fill="#C7BCB1"/>
<path d="M56.5 29H55.5V30H56.5V29Z" fill="#90877F"/>
<path d="M57.5 29H56.5V30H57.5V29Z" fill="black"/>
<path d="M58.5 29H57.5V30H58.5V29Z" fill="#EEEEEE"/>
<path d="M44.5 30H43.5V31H44.5V30Z" fill="#EEEEEE"/>
<path d="M45.5 30H44.5V31H45.5V30Z" fill="black"/>
<path d="M46.5 30H45.5V31H46.5V30Z" fill="#C7BCB1"/>
<path d="M47.5 30H46.5V31H47.5V30Z" fill="#C7BCB1"/>
<path d="M48.5 30H47.5V31H48.5V30Z" fill="#90877F"/>
<path d="M49.5 30H48.5V31H49.5V30Z" fill="black"/>
<path d="M50.5 30H49.5V31H50.5V30Z" fill="#EEEEEE"/>
<path d="M51.5 30H50.5V31H51.5V30Z" fill="#EEEEEE"/>
<path d="M52.5 30H51.5V31H52.5V30Z" fill="#EEEEEE"/>
<path d="M53.5 30H52.5V31H53.5V30Z" fill="black"/>
<path d="M54.5 30H53.5V31H54.5V30Z" fill="#C7BCB1"/>
<path d="M55.5 30H54.5V31H55.5V30Z" fill="#C7BCB1"/>
<path d="M56.5 30H55.5V31H56.5V30Z" fill="#90877F"/>
<path d="M57.5 30H56.5V31H57.5V30Z" fill="black"/>
<path d="M58.5 30H57.5V31H58.5V30Z" fill="#EEEEEE"/>
<path d="M59.5 30H58.5V31H59.5V30Z" fill="#EEEEEE"/>
<path d="M44.5 31H43.5V32H44.5V31Z" fill="#EEEEEE"/>
<path d="M45.5 31H44.5V32H45.5V31Z" fill="#EEEEEE"/>
<path d="M46.5 31H45.5V32H46.5V31Z" fill="black"/>
<path d="M47.5 31H46.5V32H47.5V31Z" fill="#C7BCB1"/>
<path d="M48.5 31H47.5V32H48.5V31Z" fill="#C7BCB1"/>
<path d="M49.5 31H48.5V32H49.5V31Z" fill="#90877F"/>
<path d="M50.5 31H49.5V32H50.5V31Z" fill="black"/>
<path d="M51.5 31H50.5V32H51.5V31Z" fill="#EEEEEE"/>
<path d="M52.5 31H51.5V32H52.5V31Z" fill="#EEEEEE"/>
<path d="M53.5 31H52.5V32H53.5V31Z" fill="#EEEEEE"/>
<path d="M54.5 31H53.5V32H54.5V31Z" fill="black"/>
<path d="M55.5 31H54.5V32H55.5V31Z" fill="#C7BCB1"/>
<path d="M56.5 31H55.5V32H56.5V31Z" fill="#90877F"/>
<path d="M57.5 31H56.5V32H57.5V31Z" fill="#90877F"/>
<path d="M58.5 31H57.5V32H58.5V31Z" fill="black"/>
<path d="M59.5 31H58.5V32H59.5V31Z" fill="#EEEEEE"/>
<path d="M45.5 32H44.5V33H45.5V32Z" fill="#EEEEEE"/>
<path d="M46.5 32H45.5V33H46.5V32Z" fill="black"/>
<path d="M47.5 32H46.5V33H47.5V32Z" fill="#C7BCB1"/>
<path d="M48.5 32H47.5V33H48.5V32Z" fill="#C7BCB1"/>
<path d="M49.5 32H48.5V33H49.5V32Z" fill="#90877F"/>
<path d="M50.5 32H49.5V33H50.5V32Z" fill="#90877F"/>
<path d="M51.5 32H50.5V33H51.5V32Z" fill="black"/>
<path d="M52.5 32H51.5V33H52.5V32Z" fill="#EEEEEE"/>
<path d="M53.5 32H52.5V33H53.5V32Z" fill="#EEEEEE"/>
<path d="M54.5 32H53.5V33H54.5V32Z" fill="black"/>
<path d="M55.5 32H54.5V33H55.5V32Z" fill="#C7BCB1"/>
<path d="M56.5 32H55.5V33H56.5V32Z" fill="#C7BCB1"/>
<path d="M57.5 32H56.5V33H57.5V32Z" fill="#90877F"/>
<path d="M58.5 32H57.5V33H58.5V32Z" fill="black"/>
<path d="M59.5 32H58.5V33H59.5V32Z" fill="#EEEEEE"/>
<path d="M45.5 33H44.5V34H45.5V33Z" fill="#EEEEEE"/>
<path d="M46.5 33H45.5V34H46.5V33Z" fill="#EEEEEE"/>
<path d="M47.5 33H46.5V34H47.5V33Z" fill="black"/>
<path d="M48.5 33H47.5V34H48.5V33Z" fill="#C7BCB1"/>
<path d="M49.5 33H48.5V34H49.5V33Z" fill="#C7BCB1"/>
<path d="M50.5 33H49.5V34H50.5V33Z" fill="#C7BCB1"/>
<path d="M51.5 33H50.5V34H51.5V33Z" fill="#90877F"/>
<path d="M52.5 33H51.5V34H52.5V33Z" fill="black"/>
<path d="M53.5 33H52.5V34H53.5V33Z" fill="#EEEEEE"/>
<path d="M54.5 33H53.5V34H54.5V33Z" fill="black"/>
<path d="M55.5 33H54.5V34H55.5V33Z" fill="#C7BCB1"/>
<path d="M56.5 33H55.5V34H56.5V33Z" fill="#C7BCB1"/>
<path d="M57.5 33H56.5V34H57.5V33Z" fill="#90877F"/>
<path d="M58.5 33H57.5V34H58.5V33Z" fill="black"/>
<path d="M59.5 33H58.5V34H59.5V33Z" fill="#EEEEEE"/>
<path d="M60.5 33H59.5V34H60.5V33Z" fill="#EEEEEE"/>
<path d="M61.5 33H60.5V34H61.5V33Z" fill="#EEEEEE"/>
<path d="M62.5 33H61.5V34H62.5V33Z" fill="#EEEEEE"/>
<path d="M63.5 33H62.5V34H63.5V33Z" fill="#EEEEEE"/>
<path d="M64.5 33H63.5V34H64.5V33Z" fill="#EEEEEE"/>
<path d="M65.5 33H64.5V34H65.5V33Z" fill="#EEEEEE"/>
<path d="M46.5 34H45.5V35H46.5V34Z" fill="#EEEEEE"/>
<path d="M47.5 34H46.5V35H47.5V34Z" fill="black"/>
<path d="M48.5 34H47.5V35H48.5V34Z" fill="#C7BCB1"/>
<path d="M49.5 34H48.5V35H49.5V34Z" fill="#C7BCB1"/>
<path d="M50.5 34H49.5V35H50.5V34Z" fill="#C7BCB1"/>
<path d="M51.5 34H50.5V35H51.5V34Z" fill="#90877F"/>
<path d="M52.5 34H51.5V35H52.5V34Z" fill="black"/>
<path d="M53.5 34H52.5V35H53.5V34Z" fill="black"/>
<path d="M54.5 34H53.5V35H54.5V34Z" fill="black"/>
<path d="M55.5 34H54.5V35H55.5V34Z" fill="#C7BCB1"/>
<path d="M56.5 34H55.5V35H56.5V34Z" fill="#C7BCB1"/>
<path d="M57.5 34H56.5V35H57.5V34Z" fill="#90877F"/>
<path d="M58.5 34H57.5V35H58.5V34Z" fill="#90877F"/>
<path d="M59.5 34H58.5V35H59.5V34Z" fill="black"/>
<path d="M60.5 34H59.5V35H60.5V34Z" fill="#EEEEEE"/>
<path d="M61.5 34H60.5V35H61.5V34Z" fill="black"/>
<path d="M62.5 34H61.5V35H62.5V34Z" fill="black"/>
<path d="M63.5 34H62.5V35H63.5V34Z" fill="black"/>
<path d="M64.5 34H63.5V35H64.5V34Z" fill="black"/>
<path d="M65.5 34H64.5V35H65.5V34Z" fill="#EEEEEE"/>
<path d="M66.5 34H65.5V35H66.5V34Z" fill="#EEEEEE"/>
<path d="M67.5 34H66.5V35H67.5V34Z" fill="#EEEEEE"/>
<path d="M68.5 34H67.5V35H68.5V34Z" fill="#EEEEEE"/>
<path d="M46.5 35H45.5V36H46.5V35Z" fill="#EEEEEE"/>
<path d="M47.5 35H46.5V36H47.5V35Z" fill="#EEEEEE"/>
<path d="M48.5 35H47.5V36H48.5V35Z" fill="black"/>
<path d="M49.5 35H48.5V36H49.5V35Z" fill="#C7BCB1"/>
<path d="M50.5 35H49.5V36H50.5V35Z" fill="#90877F"/>
<path d="M51.5 35H50.5V36H51.5V35Z" fill="black"/>
<path d="M52.5 35H51.5V36H52.5V35Z" fill="#C7BCB1"/>
<path d="M53.5 35H52.5V36H53.5V35Z" fill="#C7BCB1"/>
<path d="M54.5 35H53.5V36H54.5V35Z" fill="#C7BCB1"/>
<path d="M55.5 35H54.5V36H55.5V35Z" fill="#C7BCB1"/>
<path d="M56.5 35H55.5V36H56.5V35Z" fill="#C7BCB1"/>
<path d="M57.5 35H56.5V36H57.5V35Z" fill="#90877F"/>
<path d="M58.5 35H57.5V36H58.5V35Z" fill="#90877F"/>
<path d="M59.5 35H58.5V36H59.5V35Z" fill="black"/>
<path d="M60.5 35H59.5V36H60.5V35Z" fill="black"/>
<path d="M61.5 35H60.5V36H61.5V35Z" fill="#742020"/>
<path d="M62.5 35H61.5V36H62.5V35Z" fill="#742020"/>
<path d="M63.5 35H62.5V36H63.5V35Z" fill="#742020"/>
<path d="M64.5 35H63.5V36H64.5V35Z" fill="#742020"/>
<path d="M65.5 35H64.5V36H65.5V35Z" fill="black"/>
<path d="M66.5 35H65.5V36H66.5V35Z" fill="black"/>
<path d="M67.5 35H66.5V36H67.5V35Z" fill="black"/>
<path d="M68.5 35H67.5V36H68.5V35Z" fill="#EEEEEE"/>
<path d="M47.5 36H46.5V37H47.5V36Z" fill="#EEEEEE"/>
<path d="M48.5 36H47.5V37H48.5V36Z" fill="black"/>
<path d="M49.5 36H48.5V37H49.5V36Z" fill="#C7BCB1"/>
<path d="M50.5 36H49.5V37H50.5V36Z" fill="#90877F"/>
<path d="M51.5 36H50.5V37H51.5V36Z" fill="black"/>
<path d="M52.5 36H51.5V37H52.5V36Z" fill="#C7BCB1"/>
<path d="M53.5 36H52.5V37H53.5V36Z" fill="#C7BCB1"/>
<path d="M54.5 36H53.5V37H54.5V36Z" fill="#C7BCB1"/>
<path d="M55.5 36H54.5V37H55.5V36Z" fill="#C7BCB1"/>
<path d="M56.5 36H55.5V37H56.5V36Z" fill="#C7BCB1"/>
<path d="M57.5 36H56.5V37H57.5V36Z" fill="#90877F"/>
<path d="M58.5 36H57.5V37H58.5V36Z" fill="#90877F"/>
<path d="M59.5 36H58.5V37H59.5V36Z" fill="black"/>
<path d="M60.5 36H59.5V37H60.5V36Z" fill="#742020"/>
<path d="M61.5 36H60.5V37H61.5V36Z" fill="#742020"/>
<path d="M62.5 36H61.5V37H62.5V36Z" fill="#AC3232"/>
<path d="M63.5 36H62.5V37H63.5V36Z" fill="#AC3232"/>
<path d="M64.5 36H63.5V37H64.5V36Z" fill="#AC3232"/>
<path d="M65.5 36H64.5V37H65.5V36Z" fill="#AC3232"/>
<path d="M66.5 36H65.5V37H66.5V36Z" fill="#AC3232"/>
<path d="M67.5 36H66.5V37H67.5V36Z" fill="black"/>
<path d="M68.5 36H67.5V37H68.5V36Z" fill="#EEEEEE"/>
<path d="M47.5 37H46.5V38H47.5V37Z" fill="#EEEEEE"/>
<path d="M48.5 37H47.5V38H48.5V37Z" fill="#EEEEEE"/>
<path d="M49.5 37H48.5V38H49.5V37Z" fill="black"/>
<path d="M50.5 37H49.5V38H50.5V37Z" fill="black"/>
<path d="M51.5 37H50.5V38H51.5V37Z" fill="#90877F"/>
<path d="M52.5 37H51.5V38H52.5V37Z" fill="#C7BCB1"/>
<path d="M53.5 37H52.5V38H53.5V37Z" fill="#C7BCB1"/>
<path d="M54.5 37H53.5V38H54.5V37Z" fill="#C7BCB1"/>
<path d="M55.5 37H54.5V38H55.5V37Z" fill="black"/>
<path d="M56.5 37H55.5V38H56.5V37Z" fill="#90877F"/>
<path d="M57.5 37H56.5V38H57.5V37Z" fill="#90877F"/>
<path d="M58.5 37H57.5V38H58.5V37Z" fill="#90877F"/>
<path d="M59.5 37H58.5V38H59.5V37Z" fill="black"/>
<path d="M60.5 37H59.5V38H60.5V37Z" fill="#742020"/>
<path d="M61.5 37H60.5V38H61.5V37Z" fill="#AC3232"/>
<path d="M62.5 37H61.5V38H62.5V37Z" fill="#AC3232"/>
<path d="M63.5 37H62.5V38H63.5V37Z" fill="#AC3232"/>
<path d="M64.5 37H63.5V38H64.5V37Z" fill="#AC3232"/>
<path d="M65.5 37H64.5V38H65.5V37Z" fill="#AC3232"/>
<path d="M66.5 37H65.5V38H66.5V37Z" fill="#742020"/>
<path d="M67.5 37H66.5V38H67.5V37Z" fill="black"/>
<path d="M68.5 37H67.5V38H68.5V37Z" fill="#EEEEEE"/>
<path d="M48.5 38H47.5V39H48.5V38Z" fill="#EEEEEE"/>
<path d="M49.5 38H48.5V39H49.5V38Z" fill="#EEEEEE"/>
<path d="M50.5 38H49.5V39H50.5V38Z" fill="black"/>
<path d="M51.5 38H50.5V39H51.5V38Z" fill="#C7BCB1"/>
<path d="M52.5 38H51.5V39H52.5V38Z" fill="#C7BCB1"/>
<path d="M53.5 38H52.5V39H53.5V38Z" fill="#C7BCB1"/>
<path d="M54.5 38H53.5V39H54.5V38Z" fill="black"/>
<path d="M55.5 38H54.5V39H55.5V38Z" fill="#EEEEEE"/>
<path d="M56.5 38H55.5V39H56.5V38Z" fill="black"/>
<path d="M57.5 38H56.5V39H57.5V38Z" fill="#90877F"/>
<path d="M58.5 38H57.5V39H58.5V38Z" fill="#90877F"/>
<path d="M59.5 38H58.5V39H59.5V38Z" fill="black"/>
<path d="M60.5 38H59.5V39H60.5V38Z" fill="#AC3232"/>
<path d="M61.5 38H60.5V39H61.5V38Z" fill="#AC3232"/>
<path d="M62.5 38H61.5V39H62.5V38Z" fill="#AC3232"/>
<path d="M63.5 38H62.5V39H63.5V38Z" fill="#AC3232"/>
<path d="M64.5 38H63.5V39H64.5V38Z" fill="#AC3232"/>
<path d="M65.5 38H64.5V39H65.5V38Z" fill="#AC3232"/>
<path d="M66.5 38H65.5V39H66.5V38Z" fill="#742020"/>
<path d="M67.5 38H66.5V39H67.5V38Z" fill="black"/>
<path d="M68.5 38H67.5V39H68.5V38Z" fill="#EEEEEE"/>
<path d="M69.5 38H68.5V39H69.5V38Z" fill="#EEEEEE"/>
<path d="M49.5 39H48.5V40H49.5V39Z" fill="#EEEEEE"/>
<path d="M50.5 39H49.5V40H50.5V39Z" fill="black"/>
<path d="M51.5 39H50.5V40H51.5V39Z" fill="#C7BCB1"/>
<path d="M52.5 39H51.5V40H52.5V39Z" fill="#C7BCB1"/>
<path d="M53.5 39H52.5V40H53.5V39Z" fill="#C7BCB1"/>
<path d="M54.5 39H53.5V40H54.5V39Z" fill="#90877F"/>
<path d="M55.5 39H54.5V40H55.5V39Z" fill="black"/>
<path d="M56.5 39H55.5V40H56.5V39Z" fill="#90877F"/>
<path d="M57.5 39H56.5V40H57.5V39Z" fill="#90877F"/>
<path d="M58.5 39H57.5V40H58.5V39Z" fill="#90877F"/>
<path d="M59.5 39H58.5V40H59.5V39Z" fill="black"/>
<path d="M60.5 39H59.5V40H60.5V39Z" fill="#AC3232"/>
<path d="M61.5 39H60.5V40H61.5V39Z" fill="#AC3232"/>
<path d="M62.5 39H61.5V40H62.5V39Z" fill="#AC3232"/>
<path d="M63.5 39H62.5V40H63.5V39Z" fill="#AC3232"/>
<path d="M64.5 39H63.5V40H64.5V39Z" fill="#AC3232"/>
<path d="M65.5 39H64.5V40H65.5V39Z" fill="#AC3232"/>
<path d="M66.5 39H65.5V40H66.5V39Z" fill="#742020"/>
<path d="M67.5 39H66.5V40H67.5V39Z" fill="#742020"/>
<path d="M68.5 39H67.5V40H68.5V39Z" fill="black"/>
<path d="M69.5 39H68.5V40H69.5V39Z" fill="#EEEEEE"/>
<path d="M49.5 40H48.5V41H49.5V40Z" fill="#EEEEEE"/>
<path d="M50.5 40H49.5V41H50.5V40Z" fill="black"/>
<path d="M51.5 40H50.5V41H51.5V40Z" fill="#90877F"/>
<path d="M52.5 40H51.5V41H52.5V40Z" fill="#90877F"/>
<path d="M53.5 40H52.5V41H53.5V40Z" fill="#90877F"/>
<path d="M54.5 40H53.5V41H54.5V40Z" fill="#90877F"/>
<path d="M55.5 40H54.5V41H55.5V40Z" fill="#90877F"/>
<path d="M56.5 40H55.5V41H56.5V40Z" fill="#90877F"/>
<path d="M57.5 40H56.5V41H57.5V40Z" fill="#90877F"/>
<path d="M58.5 40H57.5V41H58.5V40Z" fill="#90877F"/>
<path d="M59.5 40H58.5V41H59.5V40Z" fill="black"/>
<path d="M60.5 40H59.5V41H60.5V40Z" fill="#AC3232"/>
<path d="M61.5 40H60.5V41H61.5V40Z" fill="#AC3232"/>
<path d="M62.5 40H61.5V41H62.5V40Z" fill="#AC3232"/>
<path d="M63.5 40H62.5V41H63.5V40Z" fill="#AC3232"/>
<path d="M64.5 40H63.5V41H64.5V40Z" fill="#AC3232"/>
<path d="M65.5 40H64.5V41H65.5V40Z" fill="#AC3232"/>
<path d="M66.5 40H65.5V41H66.5V40Z" fill="#AC3232"/>
<path d="M67.5 40H66.5V41H67.5V40Z" fill="#742020"/>
<path d="M68.5 40H67.5V41H68.5V40Z" fill="black"/>
<path d="M69.5 40H68.5V41H69.5V40Z" fill="#EEEEEE"/>
<path d="M48.5 41H47.5V42H48.5V41Z" fill="#EEEEEE"/>
<path d="M49.5 41H48.5V42H49.5V41Z" fill="#EEEEEE"/>
<path d="M50.5 41H49.5V42H50.5V41Z" fill="black"/>
<path d="M51.5 41H50.5V42H51.5V41Z" fill="black"/>
<path d="M52.5 41H51.5V42H52.5V41Z" fill="black"/>
<path d="M53.5 41H52.5V42H53.5V41Z" fill="black"/>
<path d="M54.5 41H53.5V42H54.5V41Z" fill="black"/>
<path d="M55.5 41H54.5V42H55.5V41Z" fill="#90877F"/>
<path d="M56.5 41H55.5V42H56.5V41Z" fill="#90877F"/>
<path d="M57.5 41H56.5V42H57.5V41Z" fill="#90877F"/>
<path d="M58.5 41H57.5V42H58.5V41Z" fill="black"/>
<path d="M59.5 41H58.5V42H59.5V41Z" fill="black"/>
<path d="M60.5 41H59.5V42H60.5V41Z" fill="#742020"/>
<path d="M61.5 41H60.5V42H61.5V41Z" fill="#742020"/>
<path d="M62.5 41H61.5V42H62.5V41Z" fill="#AC3232"/>
<path d="M63.5 41H62.5V42H63.5V41Z" fill="#AC3232"/>
<path d="M64.5 41H63.5V42H64.5V41Z" fill="#AC3232"/>
<path d="M65.5 41H64.5V42H65.5V41Z" fill="#AC3232"/>
<path d="M66.5 41H65.5V42H66.5V41Z" fill="#AC3232"/>
<path d="M67.5 41H66.5V42H67.5V41Z" fill="#742020"/>
<path d="M68.5 41H67.5V42H68.5V41Z" fill="black"/>
<path d="M69.5 41H68.5V42H69.5V41Z" fill="#EEEEEE"/>
<path d="M70.5 41H69.5V42H70.5V41Z" fill="#EEEEEE"/>
<path d="M47.5 42H46.5V43H47.5V42Z" fill="#EEEEEE"/>
<path d="M48.5 42H47.5V43H48.5V42Z" fill="#EEEEEE"/>
<path d="M49.5 42H48.5V43H49.5V42Z" fill="black"/>
<path d="M50.5 42H49.5V43H50.5V42Z" fill="#AC3232"/>
<path d="M51.5 42H50.5V43H51.5V42Z" fill="#AC3232"/>
<path d="M52.5 42H51.5V43H52.5V42Z" fill="#AC3232"/>
<path d="M53.5 42H52.5V43H53.5V42Z" fill="#AC3232"/>
<path d="M54.5 42H53.5V43H54.5V42Z" fill="#742020"/>
<path d="M55.5 42H54.5V43H55.5V42Z" fill="black"/>
<path d="M56.5 42H55.5V43H56.5V42Z" fill="black"/>
<path d="M57.5 42H56.5V43H57.5V42Z" fill="black"/>
<path d="M58.5 42H57.5V43H58.5V42Z" fill="black"/>
<path d="M59.5 42H58.5V43H59.5V42Z" fill="#EEEEEE"/>
<path d="M60.5 42H59.5V43H60.5V42Z" fill="black"/>
<path d="M61.5 42H60.5V43H61.5V42Z" fill="#742020"/>
<path d="M62.5 42H61.5V43H62.5V42Z" fill="#AC3232"/>
<path d="M63.5 42H62.5V43H63.5V42Z" fill="#AC3232"/>
<path d="M64.5 42H63.5V43H64.5V42Z" fill="#AC3232"/>
<path d="M65.5 42H64.5V43H65.5V42Z" fill="#AC3232"/>
<path d="M66.5 42H65.5V43H66.5V42Z" fill="#AC3232"/>
<path d="M67.5 42H66.5V43H67.5V42Z" fill="#742020"/>
<path d="M68.5 42H67.5V43H68.5V42Z" fill="black"/>
<path d="M69.5 42H68.5V43H69.5V42Z" fill="black"/>
<path d="M70.5 42H69.5V43H70.5V42Z" fill="#EEEEEE"/>
<path d="M71.5 42H70.5V43H71.5V42Z" fill="#EEEEEE"/>
<path d="M47.5 43H46.5V44H47.5V43Z" fill="#EEEEEE"/>
<path d="M48.5 43H47.5V44H48.5V43Z" fill="black"/>
<path d="M49.5 43H48.5V44H49.5V43Z" fill="#AC3232"/>
<path d="M50.5 43H49.5V44H50.5V43Z" fill="#AC3232"/>
<path d="M51.5 43H50.5V44H51.5V43Z" fill="#AC3232"/>
<path d="M52.5 43H51.5V44H52.5V43Z" fill="#AC3232"/>
<path d="M53.5 43H52.5V44H53.5V43Z" fill="#AC3232"/>
<path d="M54.5 43H53.5V44H54.5V43Z" fill="#742020"/>
<path d="M55.5 43H54.5V44H55.5V43Z" fill="#742020"/>
<path d="M56.5 43H55.5V44H56.5V43Z" fill="#742020"/>
<path d="M57.5 43H56.5V44H57.5V43Z" fill="#742020"/>
<path d="M58.5 43H57.5V44H58.5V43Z" fill="black"/>
<path d="M59.5 43H58.5V44H59.5V43Z" fill="#EEEEEE"/>
<path d="M60.5 43H59.5V44H60.5V43Z" fill="black"/>
<path d="M61.5 43H60.5V44H61.5V43Z" fill="#742020"/>
<path d="M62.5 43H61.5V44H62.5V43Z" fill="#AC3232"/>
<path d="M63.5 43H62.5V44H63.5V43Z" fill="#AC3232"/>
<path d="M64.5 43H63.5V44H64.5V43Z" fill="#AC3232"/>
<path d="M65.5 43H64.5V44H65.5V43Z" fill="#AC3232"/>
<path d="M66.5 43H65.5V44H66.5V43Z" fill="#AC3232"/>
<path d="M67.5 43H66.5V44H67.5V43Z" fill="#AC3232"/>
<path d="M68.5 43H67.5V44H68.5V43Z" fill="#742020"/>
<path d="M69.5 43H68.5V44H69.5V43Z" fill="#742020"/>
<path d="M70.5 43H69.5V44H70.5V43Z" fill="black"/>
<path d="M71.5 43H70.5V44H71.5V43Z" fill="#EEEEEE"/>
<path d="M72.5 43H71.5V44H72.5V43Z" fill="#EEEEEE"/>
<path d="M47.5 44H46.5V45H47.5V44Z" fill="#EEEEEE"/>
<path d="M48.5 44H47.5V45H48.5V44Z" fill="black"/>
<path d="M49.5 44H48.5V45H49.5V44Z" fill="#AC3232"/>
<path d="M50.5 44H49.5V45H50.5V44Z" fill="#AC3232"/>
<path d="M51.5 44H50.5V45H51.5V44Z" fill="#AC3232"/>
<path d="M52.5 44H51.5V45H52.5V44Z" fill="#AC3232"/>
<path d="M53.5 44H52.5V45H53.5V44Z" fill="#AC3232"/>
<path d="M54.5 44H53.5V45H54.5V44Z" fill="#AC3232"/>
<path d="M55.5 44H54.5V45H55.5V44Z" fill="#AC3232"/>
<path d="M56.5 44H55.5V45H56.5V44Z" fill="#AC3232"/>
<path d="M57.5 44H56.5V45H57.5V44Z" fill="#742020"/>
<path d="M58.5 44H57.5V45H58.5V44Z" fill="black"/>
<path d="M59.5 44H58.5V45H59.5V44Z" fill="#EEEEEE"/>
<path d="M60.5 44H59.5V45H60.5V44Z" fill="#EEEEEE"/>
<path d="M61.5 44H60.5V45H61.5V44Z" fill="black"/>
<path d="M62.5 44H61.5V45H62.5V44Z" fill="#742020"/>
<path d="M63.5 44H62.5V45H63.5V44Z" fill="#742020"/>
<path d="M64.5 44H63.5V45H64.5V44Z" fill="#AC3232"/>
<path d="M65.5 44H64.5V45H65.5V44Z" fill="#AC3232"/>
<path d="M66.5 44H65.5V45H66.5V44Z" fill="#AC3232"/>
<path d="M67.5 44H66.5V45H67.5V44Z" fill="#AC3232"/>
<path d="M68.5 44H67.5V45H68.5V44Z" fill="#AC3232"/>
<path d="M69.5 44H68.5V45H69.5V44Z" fill="#742020"/>
<path d="M70.5 44H69.5V45H70.5V44Z" fill="#742020"/>
<path d="M71.5 44H70.5V45H71.5V44Z" fill="black"/>
<path d="M72.5 44H71.5V45H72.5V44Z" fill="#EEEEEE"/>
<path d="M73.5 44H72.5V45H73.5V44Z" fill="#EEEEEE"/>
<path d="M47.5 45H46.5V46H47.5V45Z" fill="#EEEEEE"/>
<path d="M48.5 45H47.5V46H48.5V45Z" fill="black"/>
<path d="M49.5 45H48.5V46H49.5V45Z" fill="#742020"/>
<path d="M50.5 45H49.5V46H50.5V45Z" fill="#742020"/>
<path d="M51.5 45H50.5V46H51.5V45Z" fill="#AC3232"/>
<path d="M52.5 45H51.5V46H52.5V45Z" fill="#AC3232"/>
<path d="M53.5 45H52.5V46H53.5V45Z" fill="#AC3232"/>
<path d="M54.5 45H53.5V46H54.5V45Z" fill="#AC3232"/>
<path d="M55.5 45H54.5V46H55.5V45Z" fill="#AC3232"/>
<path d="M56.5 45H55.5V46H56.5V45Z" fill="#AC3232"/>
<path d="M57.5 45H56.5V46H57.5V45Z" fill="#742020"/>
<path d="M58.5 45H57.5V46H58.5V45Z" fill="black"/>
<path d="M59.5 45H58.5V46H59.5V45Z" fill="#EEEEEE"/>
<path d="M60.5 45H59.5V46H60.5V45Z" fill="#EEEEEE"/>
<path d="M61.5 45H60.5V46H61.5V45Z" fill="#EEEEEE"/>
<path d="M62.5 45H61.5V46H62.5V45Z" fill="black"/>
<path d="M63.5 45H62.5V46H63.5V45Z" fill="black"/>
<path d="M64.5 45H63.5V46H64.5V45Z" fill="#742020"/>
<path d="M65.5 45H64.5V46H65.5V45Z" fill="#742020"/>
<path d="M66.5 45H65.5V46H66.5V45Z" fill="#AC3232"/>
<path d="M67.5 45H66.5V46H67.5V45Z" fill="#AC3232"/>
<path d="M68.5 45H67.5V46H68.5V45Z" fill="#AC3232"/>
<path d="M69.5 45H68.5V46H69.5V45Z" fill="#AC3232"/>
<path d="M70.5 45H69.5V46H70.5V45Z" fill="#AC3232"/>
<path d="M71.5 45H70.5V46H71.5V45Z" fill="#742020"/>
<path d="M72.5 45H71.5V46H72.5V45Z" fill="black"/>
<path d="M73.5 45H72.5V46H73.5V45Z" fill="#EEEEEE"/>
<path d="M74.5 45H73.5V46H74.5V45Z" fill="#EEEEEE"/>
<path d="M47.5 46H46.5V47H47.5V46Z" fill="#EEEEEE"/>
<path d="M48.5 46H47.5V47H48.5V46Z" fill="black"/>
<path d="M49.5 46H48.5V47H49.5V46Z" fill="#742020"/>
<path d="M50.5 46H49.5V47H50.5V46Z" fill="#742020"/>
<path d="M51.5 46H50.5V47H51.5V46Z" fill="#742020"/>
<path d="M52.5 46H51.5V47H52.5V46Z" fill="#AC3232"/>
<path d="M53.5 46H52.5V47H53.5V46Z" fill="#AC3232"/>
<path d="M54.5 46H53.5V47H54.5V46Z" fill="#AC3232"/>
<path d="M55.5 46H54.5V47H55.5V46Z" fill="#AC3232"/>
<path d="M56.5 46H55.5V47H56.5V46Z" fill="#AC3232"/>
<path d="M57.5 46H56.5V47H57.5V46Z" fill="#742020"/>
<path d="M58.5 46H57.5V47H58.5V46Z" fill="black"/>
<path d="M59.5 46H58.5V47H59.5V46Z" fill="#EEEEEE"/>
<path d="M61.5 46H60.5V47H61.5V46Z" fill="#EEEEEE"/>
<path d="M62.5 46H61.5V47H62.5V46Z" fill="#EEEEEE"/>
<path d="M63.5 46H62.5V47H63.5V46Z" fill="#EEEEEE"/>
<path d="M64.5 46H63.5V47H64.5V46Z" fill="black"/>
<path d="M65.5 46H64.5V47H65.5V46Z" fill="black"/>
<path d="M66.5 46H65.5V47H66.5V46Z" fill="#742020"/>
<path d="M67.5 46H66.5V47H67.5V46Z" fill="#AC3232"/>
<path d="M68.5 46H67.5V47H68.5V46Z" fill="#AC3232"/>
<path d="M69.5 46H68.5V47H69.5V46Z" fill="#AC3232"/>
<path d="M70.5 46H69.5V47H70.5V46Z" fill="#AC3232"/>
<path d="M71.5 46H70.5V47H71.5V46Z" fill="#AC3232"/>
<path d="M72.5 46H71.5V47H72.5V46Z" fill="#742020"/>
<path d="M73.5 46H72.5V47H73.5V46Z" fill="black"/>
<path d="M74.5 46H73.5V47H74.5V46Z" fill="#EEEEEE"/>
<path d="M75.5 46H74.5V47H75.5V46Z" fill="#EEEEEE"/>
<path d="M76.5 46H75.5V47H76.5V46Z" fill="#EEEEEE"/>
<path d="M47.5 47H46.5V48H47.5V47Z" fill="#EEEEEE"/>
<path d="M48.5 47H47.5V48H48.5V47Z" fill="black"/>
<path d="M49.5 47H48.5V48H49.5V47Z" fill="black"/>
<path d="M50.5 47H49.5V48H50.5V47Z" fill="black"/>
<path d="M51.5 47H50.5V48H51.5V47Z" fill="#742020"/>
<path d="M52.5 47H51.5V48H52.5V47Z" fill="#742020"/>
<path d="M53.5 47H52.5V48H53.5V47Z" fill="#AC3232"/>
<path d="M54.5 47H53.5V48H54.5V47Z" fill="#AC3232"/>
<path d="M55.5 47H54.5V48H55.5V47Z" fill="#AC3232"/>
<path d="M56.5 47H55.5V48H56.5V47Z" fill="#AC3232"/>
<path d="M57.5 47H56.5V48H57.5V47Z" fill="#742020"/>
<path d="M58.5 47H57.5V48H58.5V47Z" fill="black"/>
<path d="M59.5 47H58.5V48H59.5V47Z" fill="#EEEEEE"/>
<path d="M63.5 47H62.5V48H63.5V47Z" fill="#EEEEEE"/>
<path d="M64.5 47H63.5V48H64.5V47Z" fill="#EEEEEE"/>
<path d="M65.5 47H64.5V48H65.5V47Z" fill="#EEEEEE"/>
<path d="M66.5 47H65.5V48H66.5V47Z" fill="black"/>
<path d="M67.5 47H66.5V48H67.5V47Z" fill="#742020"/>
<path d="M68.5 47H67.5V48H68.5V47Z" fill="#742020"/>
<path d="M69.5 47H68.5V48H69.5V47Z" fill="#AC3232"/>
<path d="M70.5 47H69.5V48H70.5V47Z" fill="#AC3232"/>
<path d="M71.5 47H70.5V48H71.5V47Z" fill="#AC3232"/>
<path d="M72.5 47H71.5V48H72.5V47Z" fill="#AC3232"/>
<path d="M73.5 47H72.5V48H73.5V47Z" fill="#742020"/>
<path d="M74.5 47H73.5V48H74.5V47Z" fill="black"/>
<path d="M75.5 47H74.5V48H75.5V47Z" fill="black"/>
<path d="M76.5 47H75.5V48H76.5V47Z" fill="#EEEEEE"/>
<path d="M77.5 47H76.5V48H77.5V47Z" fill="#EEEEEE"/>
<path d="M47.5 48H46.5V49H47.5V48Z" fill="#EEEEEE"/>
<path d="M48.5 48H47.5V49H48.5V48Z" fill="#EEEEEE"/>
<path d="M49.5 48H48.5V49H49.5V48Z" fill="#EEEEEE"/>
<path d="M50.5 48H49.5V49H50.5V48Z" fill="#EEEEEE"/>
<path d="M51.5 48H50.5V49H51.5V48Z" fill="black"/>
<path d="M52.5 48H51.5V49H52.5V48Z" fill="black"/>
<path d="M53.5 48H52.5V49H53.5V48Z" fill="#AC3232"/>
<path d="M54.5 48H53.5V49H54.5V48Z" fill="#AC3232"/>
<path d="M55.5 48H54.5V49H55.5V48Z" fill="#AC3232"/>
<path d="M56.5 48H55.5V49H56.5V48Z" fill="#AC3232"/>
<path d="M57.5 48H56.5V49H57.5V48Z" fill="#742020"/>
<path d="M58.5 48H57.5V49H58.5V48Z" fill="black"/>
<path d="M59.5 48H58.5V49H59.5V48Z" fill="#EEEEEE"/>
<path d="M65.5 48H64.5V49H65.5V48Z" fill="#EEEEEE"/>
<path d="M66.5 48H65.5V49H66.5V48Z" fill="#EEEEEE"/>
<path d="M67.5 48H66.5V49H67.5V48Z" fill="black"/>
<path d="M68.5 48H67.5V49H68.5V48Z" fill="black"/>
<path d="M69.5 48H68.5V49H69.5V48Z" fill="#742020"/>
<path d="M70.5 48H69.5V49H70.5V48Z" fill="#742020"/>
<path d="M71.5 48H70.5V49H71.5V48Z" fill="#AC3232"/>
<path d="M72.5 48H71.5V49H72.5V48Z" fill="#AC3232"/>
<path d="M73.5 48H72.5V49H73.5V48Z" fill="#AC3232"/>
<path d="M74.5 48H73.5V49H74.5V48Z" fill="#742020"/>
<path d="M75.5 48H74.5V49H75.5V48Z" fill="#742020"/>
<path d="M76.5 48H75.5V49H76.5V48Z" fill="black"/>
<path d="M77.5 48H76.5V49H77.5V48Z" fill="#EEEEEE"/>
<path d="M78.5 48H77.5V49H78.5V48Z" fill="#EEEEEE"/>
<path d="M50.5 49H49.5V50H50.5V49Z" fill="#EEEEEE"/>
<path d="M51.5 49H50.5V50H51.5V49Z" fill="#EEEEEE"/>
<path d="M52.5 49H51.5V50H52.5V49Z" fill="black"/>
<path d="M53.5 49H52.5V50H53.5V49Z" fill="#AC3232"/>
<path d="M54.5 49H53.5V50H54.5V49Z" fill="#AC3232"/>
<path d="M55.5 49H54.5V50H55.5V49Z" fill="#AC3232"/>
<path d="M56.5 49H55.5V50H56.5V49Z" fill="#AC3232"/>
<path d="M57.5 49H56.5V50H57.5V49Z" fill="#742020"/>
<path d="M58.5 49H57.5V50H58.5V49Z" fill="black"/>
<path d="M59.5 49H58.5V50H59.5V49Z" fill="#EEEEEE"/>
<path d="M66.5 49H65.5V50H66.5V49Z" fill="#EEEEEE"/>
<path d="M67.5 49H66.5V50H67.5V49Z" fill="#EEEEEE"/>
<path d="M68.5 49H67.5V50H68.5V49Z" fill="#EEEEEE"/>
<path d="M69.5 49H68.5V50H69.5V49Z" fill="black"/>
<path d="M70.5 49H69.5V50H70.5V49Z" fill="black"/>
<path d="M71.5 49H70.5V50H71.5V49Z" fill="#742020"/>
<path d="M72.5 49H71.5V50H72.5V49Z" fill="#AC3232"/>
<path d="M73.5 49H72.5V50H73.5V49Z" fill="#AC3232"/>
<path d="M74.5 49H73.5V50H74.5V49Z" fill="#AC3232"/>
<path d="M75.5 49H74.5V50H75.5V49Z" fill="#742020"/>
<path d="M76.5 49H75.5V50H76.5V49Z" fill="#742020"/>
<path d="M77.5 49H76.5V50H77.5V49Z" fill="black"/>
<path d="M78.5 49H77.5V50H78.5V49Z" fill="#EEEEEE"/>
<path d="M79.5 49H78.5V50H79.5V49Z" fill="#EEEEEE"/>
<path d="M51.5 50H50.5V51H51.5V50Z" fill="#EEEEEE"/>
<path d="M52.5 50H51.5V51H52.5V50Z" fill="black"/>
<path d="M53.5 50H52.5V51H53.5V50Z" fill="#AC3232"/>
<path d="M54.5 50H53.5V51H54.5V50Z" fill="#AC3232"/>
<path d="M55.5 50H54.5V51H55.5V50Z" fill="#AC3232"/>
<path d="M56.5 50H55.5V51H56.5V50Z" fill="#AC3232"/>
<path d="M57.5 50H56.5V51H57.5V50Z" fill="#742020"/>
<path d="M58.5 50H57.5V51H58.5V50Z" fill="black"/>
<path d="M59.5 50H58.5V51H59.5V50Z" fill="#EEEEEE"/>
<path d="M68.5 50H67.5V51H68.5V50Z" fill="#EEEEEE"/>
<path d="M69.5 50H68.5V51H69.5V50Z" fill="#EEEEEE"/>
<path d="M70.5 50H69.5V51H70.5V50Z" fill="#EEEEEE"/>
<path d="M71.5 50H70.5V51H71.5V50Z" fill="black"/>
<path d="M72.5 50H71.5V51H72.5V50Z" fill="#742020"/>
<path d="M73.5 50H72.5V51H73.5V50Z" fill="#AC3232"/>
<path d="M74.5 50H73.5V51H74.5V50Z" fill="#AC3232"/>
<path d="M75.5 50H74.5V51H75.5V50Z" fill="#AC3232"/>
<path d="M76.5 50H75.5V51H76.5V50Z" fill="#AC3232"/>
<path d="M77.5 50H76.5V51H77.5V50Z" fill="#742020"/>
<path d="M78.5 50H77.5V51H78.5V50Z" fill="black"/>
<path d="M79.5 50H78.5V51H79.5V50Z" fill="#EEEEEE"/>
<path d="M80.5 50H79.5V51H80.5V50Z" fill="#EEEEEE"/>
<path d="M51.5 51H50.5V52H51.5V51Z" fill="#EEEEEE"/>
<path d="M52.5 51H51.5V52H52.5V51Z" fill="black"/>
<path d="M53.5 51H52.5V52H53.5V51Z" fill="#AC3232"/>
<path d="M54.5 51H53.5V52H54.5V51Z" fill="#AC3232"/>
<path d="M55.5 51H54.5V52H55.5V51Z" fill="#AC3232"/>
<path d="M56.5 51H55.5V52H56.5V51Z" fill="#AC3232"/>
<path d="M57.5 51H56.5V52H57.5V51Z" fill="#742020"/>
<path d="M58.5 51H57.5V52H58.5V51Z" fill="#742020"/>
<path d="M59.5 51H58.5V52H59.5V51Z" fill="#EEEEEE"/>
<path d="M70.5 51H69.5V52H70.5V51Z" fill="#EEEEEE"/>
<path d="M71.5 51H70.5V52H71.5V51Z" fill="black"/>
<path d="M72.5 51H71.5V52H72.5V51Z" fill="#742020"/>
<path d="M73.5 51H72.5V52H73.5V51Z" fill="#AC3232"/>
<path d="M74.5 51H73.5V52H74.5V51Z" fill="#AC3232"/>
<path d="M75.5 51H74.5V52H75.5V51Z" fill="#AC3232"/>
<path d="M76.5 51H75.5V52H76.5V51Z" fill="#AC3232"/>
<path d="M77.5 51H76.5V52H77.5V51Z" fill="#AC3232"/>
<path d="M78.5 51H77.5V52H78.5V51Z" fill="#742020"/>
<path d="M79.5 51H78.5V52H79.5V51Z" fill="black"/>
<path d="M80.5 51H79.5V52H80.5V51Z" fill="#EEEEEE"/>
<path d="M81.5 51H80.5V52H81.5V51Z" fill="#EEEEEE"/>
<path d="M51.5 52H50.5V53H51.5V52Z" fill="#EEEEEE"/>
<path d="M52.5 52H51.5V53H52.5V52Z" fill="black"/>
<path d="M53.5 52H52.5V53H53.5V52Z" fill="#AC3232"/>
<path d="M54.5 52H53.5V53H54.5V52Z" fill="#AC3232"/>
<path d="M55.5 52H54.5V53H55.5V52Z" fill="#AC3232"/>
<path d="M56.5 52H55.5V53H56.5V52Z" fill="#AC3232"/>
<path d="M57.5 52H56.5V53H57.5V52Z" fill="#742020"/>
<path d="M58.5 52H57.5V53H58.5V52Z" fill="#742020"/>
<path d="M59.5 52H58.5V53H59.5V52Z" fill="#EEEEEE"/>
<path d="M70.5 52H69.5V53H70.5V52Z" fill="#EEEEEE"/>
<path d="M71.5 52H70.5V53H71.5V52Z" fill="#EEEEEE"/>
<path d="M72.5 52H71.5V53H72.5V52Z" fill="black"/>
<path d="M73.5 52H72.5V53H73.5V52Z" fill="#742020"/>
<path d="M74.5 52H73.5V53H74.5V52Z" fill="#AC3232"/>
<path d="M75.5 52H74.5V53H75.5V52Z" fill="#AC3232"/>
<path d="M76.5 52H75.5V53H76.5V52Z" fill="#AC3232"/>
<path d="M77.5 52H76.5V53H77.5V52Z" fill="#AC3232"/>
<path d="M78.5 52H77.5V53H78.5V52Z" fill="#AC3232"/>
<path d="M79.5 52H78.5V53H79.5V52Z" fill="#742020"/>
<path d="M80.5 52H79.5V53H80.5V52Z" fill="black"/>
<path d="M81.5 52H80.5V53H81.5V52Z" fill="#EEEEEE"/>
<path d="M82.5 52H81.5V53H82.5V52Z" fill="#EEEEEE"/>
<path d="M51.5 53H50.5V54H51.5V53Z" fill="#EEEEEE"/>
<path d="M52.5 53H51.5V54H52.5V53Z" fill="black"/>
<path d="M53.5 53H52.5V54H53.5V53Z" fill="#AC3232"/>
<path d="M54.5 53H53.5V54H54.5V53Z" fill="#AC3232"/>
<path d="M55.5 53H54.5V54H55.5V53Z" fill="#AC3232"/>
<path d="M56.5 53H55.5V54H56.5V53Z" fill="#AC3232"/>
<path d="M57.5 53H56.5V54H57.5V53Z" fill="#742020"/>
<path d="M58.5 53H57.5V54H58.5V53Z" fill="#742020"/>
<path d="M59.5 53H58.5V54H59.5V53Z" fill="#EEEEEE"/>
<path d="M71.5 53H70.5V54H71.5V53Z" fill="#EEEEEE"/>
<path d="M72.5 53H71.5V54H72.5V53Z" fill="#EEEEEE"/>
<path d="M73.5 53H72.5V54H73.5V53Z" fill="black"/>
<path d="M74.5 53H73.5V54H74.5V53Z" fill="#742020"/>
<path d="M75.5 53H74.5V54H75.5V53Z" fill="#AC3232"/>
<path d="M76.5 53H75.5V54H76.5V53Z" fill="#AC3232"/>
<path d="M77.5 53H76.5V54H77.5V53Z" fill="#AC3232"/>
<path d="M78.5 53H77.5V54H78.5V53Z" fill="#AC3232"/>
<path d="M79.5 53H78.5V54H79.5V53Z" fill="#742020"/>
<path d="M80.5 53H79.5V54H80.5V53Z" fill="#742020"/>
<path d="M81.5 53H80.5V54H81.5V53Z" fill="black"/>
<path d="M82.5 53H81.5V54H82.5V53Z" fill="#EEEEEE"/>
<path d="M83.5 53H82.5V54H83.5V53Z" fill="#EEEEEE"/>
<path d="M51.5 54H50.5V55H51.5V54Z" fill="#EEEEEE"/>
<path d="M52.5 54H51.5V55H52.5V54Z" fill="black"/>
<path d="M53.5 54H52.5V55H53.5V54Z" fill="#AC3232"/>
<path d="M54.5 54H53.5V55H54.5V54Z" fill="#AC3232"/>
<path d="M55.5 54H54.5V55H55.5V54Z" fill="#AC3232"/>
<path d="M56.5 54H55.5V55H56.5V54Z" fill="#AC3232"/>
<path d="M57.5 54H56.5V55H57.5V54Z" fill="#742020"/>
<path d="M58.5 54H57.5V55H58.5V54Z" fill="#742020"/>
<path d="M59.5 54H58.5V55H59.5V54Z" fill="#EEEEEE"/>
<path d="M72.5 54H71.5V55H72.5V54Z" fill="#EEEEEE"/>
<path d="M73.5 54H72.5V55H73.5V54Z" fill="#EEEEEE"/>
<path d="M74.5 54H73.5V55H74.5V54Z" fill="black"/>
<path d="M75.5 54H74.5V55H75.5V54Z" fill="#742020"/>
<path d="M76.5 54H75.5V55H76.5V54Z" fill="#AC3232"/>
<path d="M77.5 54H76.5V55H77.5V54Z" fill="#AC3232"/>
<path d="M78.5 54H77.5V55H78.5V54Z" fill="#AC3232"/>
<path d="M79.5 54H78.5V55H79.5V54Z" fill="#AC3232"/>
<path d="M80.5 54H79.5V55H80.5V54Z" fill="#AC3232"/>
<path d="M81.5 54H80.5V55H81.5V54Z" fill="#742020"/>
<path d="M82.5 54H81.5V55H82.5V54Z" fill="black"/>
<path d="M83.5 54H82.5V55H83.5V54Z" fill="#EEEEEE"/>
<path d="M50.5 55H49.5V56H50.5V55Z" fill="#EEEEEE"/>
<path d="M51.5 55H50.5V56H51.5V55Z" fill="#EEEEEE"/>
<path d="M52.5 55H51.5V56H52.5V55Z" fill="black"/>
<path d="M53.5 55H52.5V56H53.5V55Z" fill="#AC3232"/>
<path d="M54.5 55H53.5V56H54.5V55Z" fill="#AC3232"/>
<path d="M55.5 55H54.5V56H55.5V55Z" fill="#AC3232"/>
<path d="M56.5 55H55.5V56H56.5V55Z" fill="#AC3232"/>
<path d="M57.5 55H56.5V56H57.5V55Z" fill="#742020"/>
<path d="M58.5 55H57.5V56H58.5V55Z" fill="black"/>
<path d="M59.5 55H58.5V56H59.5V55Z" fill="#EEEEEE"/>
<path d="M73.5 55H72.5V56H73.5V55Z" fill="#EEEEEE"/>
<path d="M74.5 55H73.5V56H74.5V55Z" fill="black"/>
<path d="M75.5 55H74.5V56H75.5V55Z" fill="black"/>
<path d="M76.5 55H75.5V56H76.5V55Z" fill="#742020"/>
<path d="M77.5 55H76.5V56H77.5V55Z" fill="#AC3232"/>
<path d="M78.5 55H77.5V56H78.5V55Z" fill="#AC3232"/>
<path d="M79.5 55H78.5V56H79.5V55Z" fill="#AC3232"/>
<path d="M80.5 55H79.5V56H80.5V55Z" fill="#AC3232"/>
<path d="M81.5 55H80.5V56H81.5V55Z" fill="#742020"/>
<path d="M82.5 55H81.5V56H82.5V55Z" fill="black"/>
<path d="M83.5 55H82.5V56H83.5V55Z" fill="#EEEEEE"/>
<path d="M84.5 55H83.5V56H84.5V55Z" fill="#EEEEEE"/>
<path d="M50.5 56H49.5V57H50.5V56Z" fill="#EEEEEE"/>
<path d="M51.5 56H50.5V57H51.5V56Z" fill="black"/>
<path d="M52.5 56H51.5V57H52.5V56Z" fill="#AC3232"/>
<path d="M53.5 56H52.5V57H53.5V56Z" fill="#AC3232"/>
<path d="M54.5 56H53.5V57H54.5V56Z" fill="#AC3232"/>
<path d="M55.5 56H54.5V57H55.5V56Z" fill="#AC3232"/>
<path d="M56.5 56H55.5V57H56.5V56Z" fill="#742020"/>
<path d="M57.5 56H56.5V57H57.5V56Z" fill="black"/>
<path d="M58.5 56H57.5V57H58.5V56Z" fill="#EEEEEE"/>
<path d="M59.5 56H58.5V57H59.5V56Z" fill="#EEEEEE"/>
<path d="M73.5 56H72.5V57H73.5V56Z" fill="#EEEEEE"/>
<path d="M74.5 56H73.5V57H74.5V56Z" fill="#EEEEEE"/>
<path d="M75.5 56H74.5V57H75.5V56Z" fill="black"/>
<path d="M76.5 56H75.5V57H76.5V56Z" fill="#742020"/>
<path d="M77.5 56H76.5V57H77.5V56Z" fill="#AC3232"/>
<path d="M78.5 56H77.5V57H78.5V56Z" fill="#AC3232"/>
<path d="M79.5 56H78.5V57H79.5V56Z" fill="#AC3232"/>
<path d="M80.5 56H79.5V57H80.5V56Z" fill="#AC3232"/>
<path d="M81.5 56H80.5V57H81.5V56Z" fill="#AC3232"/>
<path d="M82.5 56H81.5V57H82.5V56Z" fill="#742020"/>
<path d="M83.5 56H82.5V57H83.5V56Z" fill="black"/>
<path d="M84.5 56H83.5V57H84.5V56Z" fill="#EEEEEE"/>
<path d="M50.5 57H49.5V58H50.5V57Z" fill="#EEEEEE"/>
<path d="M51.5 57H50.5V58H51.5V57Z" fill="black"/>
<path d="M52.5 57H51.5V58H52.5V57Z" fill="#AC3232"/>
<path d="M53.5 57H52.5V58H53.5V57Z" fill="#AC3232"/>
<path d="M54.5 57H53.5V58H54.5V57Z" fill="#AC3232"/>
<path d="M55.5 57H54.5V58H55.5V57Z" fill="#AC3232"/>
<path d="M56.5 57H55.5V58H56.5V57Z" fill="#742020"/>
<path d="M57.5 57H56.5V58H57.5V57Z" fill="black"/>
<path d="M58.5 57H57.5V58H58.5V57Z" fill="#EEEEEE"/>
<path d="M74.5 57H73.5V58H74.5V57Z" fill="#EEEEEE"/>
<path d="M75.5 57H74.5V58H75.5V57Z" fill="black"/>
<path d="M76.5 57H75.5V58H76.5V57Z" fill="black"/>
<path d="M77.5 57H76.5V58H77.5V57Z" fill="#742020"/>
<path d="M78.5 57H77.5V58H78.5V57Z" fill="#AC3232"/>
<path d="M79.5 57H78.5V58H79.5V57Z" fill="#AC3232"/>
<path d="M80.5 57H79.5V58H80.5V57Z" fill="#AC3232"/>
<path d="M81.5 57H80.5V58H81.5V57Z" fill="#AC3232"/>
<path d="M82.5 57H81.5V58H82.5V57Z" fill="#742020"/>
<path d="M83.5 57H82.5V58H83.5V57Z" fill="black"/>
<path d="M84.5 57H83.5V58H84.5V57Z" fill="#EEEEEE"/>
<path d="M85.5 57H84.5V58H85.5V57Z" fill="#EEEEEE"/>
<path d="M50.5 58H49.5V59H50.5V58Z" fill="#EEEEEE"/>
<path d="M51.5 58H50.5V59H51.5V58Z" fill="black"/>
<path d="M52.5 58H51.5V59H52.5V58Z" fill="#AC3232"/>
<path d="M53.5 58H52.5V59H53.5V58Z" fill="#AC3232"/>
<path d="M54.5 58H53.5V59H54.5V58Z" fill="#AC3232"/>
<path d="M55.5 58H54.5V59H55.5V58Z" fill="#AC3232"/>
<path d="M56.5 58H55.5V59H56.5V58Z" fill="#742020"/>
<path d="M57.5 58H56.5V59H57.5V58Z" fill="black"/>
<path d="M58.5 58H57.5V59H58.5V58Z" fill="#EEEEEE"/>
<path d="M74.5 58H73.5V59H74.5V58Z" fill="#EEEEEE"/>
<path d="M75.5 58H74.5V59H75.5V58Z" fill="#EEEEEE"/>
<path d="M76.5 58H75.5V59H76.5V58Z" fill="black"/>
<path d="M77.5 58H76.5V59H77.5V58Z" fill="#742020"/>
<path d="M78.5 58H77.5V59H78.5V58Z" fill="#AC3232"/>
<path d="M79.5 58H78.5V59H79.5V58Z" fill="#AC3232"/>
<path d="M80.5 58H79.5V59H80.5V58Z" fill="#AC3232"/>
<path d="M81.5 58H80.5V59H81.5V58Z" fill="#AC3232"/>
<path d="M82.5 58H81.5V59H82.5V58Z" fill="#AC3232"/>
<path d="M83.5 58H82.5V59H83.5V58Z" fill="#742020"/>
<path d="M84.5 58H83.5V59H84.5V58Z" fill="black"/>
<path d="M85.5 58H84.5V59H85.5V58Z" fill="#EEEEEE"/>
<path d="M50.5 59H49.5V60H50.5V59Z" fill="#EEEEEE"/>
<path d="M51.5 59H50.5V60H51.5V59Z" fill="black"/>
<path d="M52.5 59H51.5V60H52.5V59Z" fill="#AC3232"/>
<path d="M53.5 59H52.5V60H53.5V59Z" fill="#AC3232"/>
<path d="M54.5 59H53.5V60H54.5V59Z" fill="#AC3232"/>
<path d="M55.5 59H54.5V60H55.5V59Z" fill="#AC3232"/>
<path d="M56.5 59H55.5V60H56.5V59Z" fill="#742020"/>
<path d="M57.5 59H56.5V60H57.5V59Z" fill="black"/>
<path d="M58.5 59H57.5V60H58.5V59Z" fill="#EEEEEE"/>
<path d="M75.5 59H74.5V60H75.5V59Z" fill="#EEEEEE"/>
<path d="M76.5 59H75.5V60H76.5V59Z" fill="black"/>
<path d="M77.5 59H76.5V60H77.5V59Z" fill="black"/>
<path d="M78.5 59H77.5V60H78.5V59Z" fill="#742020"/>
<path d="M79.5 59H78.5V60H79.5V59Z" fill="#AC3232"/>
<path d="M80.5 59H79.5V60H80.5V59Z" fill="#AC3232"/>
<path d="M81.5 59H80.5V60H81.5V59Z" fill="#AC3232"/>
<path d="M82.5 59H81.5V60H82.5V59Z" fill="#AC3232"/>
<path d="M83.5 59H82.5V60H83.5V59Z" fill="#742020"/>
<path d="M84.5 59H83.5V60H84.5V59Z" fill="black"/>
<path d="M85.5 59H84.5V60H85.5V59Z" fill="#EEEEEE"/>
<path d="M86.5 59H85.5V60H86.5V59Z" fill="#EEEEEE"/>
<path d="M50.5 60H49.5V61H50.5V60Z" fill="#EEEEEE"/>
<path d="M51.5 60H50.5V61H51.5V60Z" fill="black"/>
<path d="M52.5 60H51.5V61H52.5V60Z" fill="#AC3232"/>
<path d="M53.5 60H52.5V61H53.5V60Z" fill="#AC3232"/>
<path d="M54.5 60H53.5V61H54.5V60Z" fill="#AC3232"/>
<path d="M55.5 60H54.5V61H55.5V60Z" fill="#AC3232"/>
<path d="M56.5 60H55.5V61H56.5V60Z" fill="#742020"/>
<path d="M57.5 60H56.5V61H57.5V60Z" fill="black"/>
<path d="M58.5 60H57.5V61H58.5V60Z" fill="#EEEEEE"/>
<path d="M75.5 60H74.5V61H75.5V60Z" fill="#EEEEEE"/>
<path d="M76.5 60H75.5V61H76.5V60Z" fill="#EEEEEE"/>
<path d="M77.5 60H76.5V61H77.5V60Z" fill="black"/>
<path d="M78.5 60H77.5V61H78.5V60Z" fill="#742020"/>
<path d="M79.5 60H78.5V61H79.5V60Z" fill="#AC3232"/>
<path d="M80.5 60H79.5V61H80.5V60Z" fill="#AC3232"/>
<path d="M81.5 60H80.5V61H81.5V60Z" fill="#AC3232"/>
<path d="M82.5 60H81.5V61H82.5V60Z" fill="#AC3232"/>
<path d="M83.5 60H82.5V61H83.5V60Z" fill="#AC3232"/>
<path d="M84.5 60H83.5V61H84.5V60Z" fill="#742020"/>
<path d="M85.5 60H84.5V61H85.5V60Z" fill="black"/>
<path d="M86.5 60H85.5V61H86.5V60Z" fill="#EEEEEE"/>
<path d="M50.5 61H49.5V62H50.5V61Z" fill="#EEEEEE"/>
<path d="M51.5 61H50.5V62H51.5V61Z" fill="black"/>
<path d="M52.5 61H51.5V62H52.5V61Z" fill="#AC3232"/>
<path d="M53.5 61H52.5V62H53.5V61Z" fill="#AC3232"/>
<path d="M54.5 61H53.5V62H54.5V61Z" fill="#AC3232"/>
<path d="M55.5 61H54.5V62H55.5V61Z" fill="#AC3232"/>
<path d="M56.5 61H55.5V62H56.5V61Z" fill="#742020"/>
<path d="M57.5 61H56.5V62H57.5V61Z" fill="black"/>
<path d="M58.5 61H57.5V62H58.5V61Z" fill="#EEEEEE"/>
<path d="M76.5 61H75.5V62H76.5V61Z" fill="#EEEEEE"/>
<path d="M77.5 61H76.5V62H77.5V61Z" fill="black"/>
<path d="M78.5 61H77.5V62H78.5V61Z" fill="black"/>
<path d="M79.5 61H78.5V62H79.5V61Z" fill="#742020"/>
<path d="M80.5 61H79.5V62H80.5V61Z" fill="#AC3232"/>
<path d="M81.5 61H80.5V62H81.5V61Z" fill="#AC3232"/>
<path d="M82.5 61H81.5V62H82.5V61Z" fill="#AC3232"/>
<path d="M83.5 61H82.5V62H83.5V61Z" fill="#AC3232"/>
<path d="M84.5 61H83.5V62H84.5V61Z" fill="#742020"/>
<path d="M85.5 61H84.5V62H85.5V61Z" fill="black"/>
<path d="M86.5 61H85.5V62H86.5V61Z" fill="#EEEEEE"/>
<path d="M87.5 61H86.5V62H87.5V61Z" fill="#EEEEEE"/>
<path d="M50.5 62H49.5V63H50.5V62Z" fill="#EEEEEE"/>
<path d="M51.5 62H50.5V63H51.5V62Z" fill="black"/>
<path d="M52.5 62H51.5V63H52.5V62Z" fill="#AC3232"/>
<path d="M53.5 62H52.5V63H53.5V62Z" fill="#AC3232"/>
<path d="M54.5 62H53.5V63H54.5V62Z" fill="#AC3232"/>
<path d="M55.5 62H54.5V63H55.5V62Z" fill="#AC3232"/>
<path d="M56.5 62H55.5V63H56.5V62Z" fill="#742020"/>
<path d="M57.5 62H56.5V63H57.5V62Z" fill="black"/>
<path d="M58.5 62H57.5V63H58.5V62Z" fill="#EEEEEE"/>
<path d="M76.5 62H75.5V63H76.5V62Z" fill="#EEEEEE"/>
<path d="M77.5 62H76.5V63H77.5V62Z" fill="#EEEEEE"/>
<path d="M78.5 62H77.5V63H78.5V62Z" fill="black"/>
<path d="M79.5 62H78.5V63H79.5V62Z" fill="#742020"/>
<path d="M80.5 62H79.5V63H80.5V62Z" fill="#AC3232"/>
<path d="M81.5 62H80.5V63H81.5V62Z" fill="#AC3232"/>
<path d="M82.5 62H81.5V63H82.5V62Z" fill="#AC3232"/>
<path d="M83.5 62H82.5V63H83.5V62Z" fill="#AC3232"/>
<path d="M84.5 62H83.5V63H84.5V62Z" fill="#AC3232"/>
<path d="M85.5 62H84.5V63H85.5V62Z" fill="#742020"/>
<path d="M86.5 62H85.5V63H86.5V62Z" fill="black"/>
<path d="M87.5 62H86.5V63H87.5V62Z" fill="#EEEEEE"/>
<path d="M50.5 63H49.5V64H50.5V63Z" fill="#EEEEEE"/>
<path d="M51.5 63H50.5V64H51.5V63Z" fill="black"/>
<path d="M52.5 63H51.5V64H52.5V63Z" fill="#AC3232"/>
<path d="M53.5 63H52.5V64H53.5V63Z" fill="#AC3232"/>
<path d="M54.5 63H53.5V64H54.5V63Z" fill="#AC3232"/>
<path d="M55.5 63H54.5V64H55.5V63Z" fill="#AC3232"/>
<path d="M56.5 63H55.5V64H56.5V63Z" fill="#742020"/>
<path d="M57.5 63H56.5V64H57.5V63Z" fill="black"/>
<path d="M58.5 63H57.5V64H58.5V63Z" fill="#EEEEEE"/>
<path d="M77.5 63H76.5V64H77.5V63Z" fill="#EEEEEE"/>
<path d="M78.5 63H77.5V64H78.5V63Z" fill="#EEEEEE"/>
<path d="M79.5 63H78.5V64H79.5V63Z" fill="black"/>
<path d="M80.5 63H79.5V64H80.5V63Z" fill="#742020"/>
<path d="M81.5 63H80.5V64H81.5V63Z" fill="#AC3232"/>
<path d="M82.5 63H81.5V64H82.5V63Z" fill="#AC3232"/>
<path d="M83.5 63H82.5V64H83.5V63Z" fill="#AC3232"/>
<path d="M84.5 63H83.5V64H84.5V63Z" fill="#AC3232"/>
<path d="M85.5 63H84.5V64H85.5V63Z" fill="#742020"/>
<path d="M86.5 63H85.5V64H86.5V63Z" fill="black"/>
<path d="M87.5 63H86.5V64H87.5V63Z" fill="#EEEEEE"/>
<path d="M88.5 63H87.5V64H88.5V63Z" fill="#EEEEEE"/>
<path d="M50.5 64H49.5V65H50.5V64Z" fill="#EEEEEE"/>
<path d="M51.5 64H50.5V65H51.5V64Z" fill="black"/>
<path d="M52.5 64H51.5V65H52.5V64Z" fill="#AC3232"/>
<path d="M53.5 64H52.5V65H53.5V64Z" fill="#AC3232"/>
<path d="M54.5 64H53.5V65H54.5V64Z" fill="#AC3232"/>
<path d="M55.5 64H54.5V65H55.5V64Z" fill="#AC3232"/>
<path d="M56.5 64H55.5V65H56.5V64Z" fill="#742020"/>
<path d="M57.5 64H56.5V65H57.5V64Z" fill="black"/>
<path d="M58.5 64H57.5V65H58.5V64Z" fill="#EEEEEE"/>
<path d="M78.5 64H77.5V65H78.5V64Z" fill="#EEEEEE"/>
<path d="M79.5 64H78.5V65H79.5V64Z" fill="black"/>
<path d="M80.5 64H79.5V65H80.5V64Z" fill="#742020"/>
<path d="M81.5 64H80.5V65H81.5V64Z" fill="#AC3232"/>
<path d="M82.5 64H81.5V65H82.5V64Z" fill="#AC3232"/>
<path d="M83.5 64H82.5V65H83.5V64Z" fill="#AC3232"/>
<path d="M84.5 64H83.5V65H84.5V64Z" fill="#AC3232"/>
<path d="M85.5 64H84.5V65H85.5V64Z" fill="#AC3232"/>
<path d="M86.5 64H85.5V65H86.5V64Z" fill="#742020"/>
<path d="M87.5 64H86.5V65H87.5V64Z" fill="black"/>
<path d="M88.5 64H87.5V65H88.5V64Z" fill="#EEEEEE"/>
<path d="M50.5 65H49.5V66H50.5V65Z" fill="#EEEEEE"/>
<path d="M51.5 65H50.5V66H51.5V65Z" fill="black"/>
<path d="M52.5 65H51.5V66H52.5V65Z" fill="#AC3232"/>
<path d="M53.5 65H52.5V66H53.5V65Z" fill="#AC3232"/>
<path d="M54.5 65H53.5V66H54.5V65Z" fill="#AC3232"/>
<path d="M55.5 65H54.5V66H55.5V65Z" fill="#AC3232"/>
<path d="M56.5 65H55.5V66H56.5V65Z" fill="#742020"/>
<path d="M57.5 65H56.5V66H57.5V65Z" fill="black"/>
<path d="M58.5 65H57.5V66H58.5V65Z" fill="#EEEEEE"/>
<path d="M78.5 65H77.5V66H78.5V65Z" fill="#EEEEEE"/>
<path d="M79.5 65H78.5V66H79.5V65Z" fill="black"/>
<path d="M80.5 65H79.5V66H80.5V65Z" fill="#742020"/>
<path d="M81.5 65H80.5V66H81.5V65Z" fill="#AC3232"/>
<path d="M82.5 65H81.5V66H82.5V65Z" fill="#AC3232"/>
<path d="M83.5 65H82.5V66H83.5V65Z" fill="#AC3232"/>
<path d="M84.5 65H83.5V66H84.5V65Z" fill="#AC3232"/>
<path d="M85.5 65H84.5V66H85.5V65Z" fill="#742020"/>
<path d="M86.5 65H85.5V66H86.5V65Z" fill="#742020"/>
<path d="M87.5 65H86.5V66H87.5V65Z" fill="black"/>
<path d="M88.5 65H87.5V66H88.5V65Z" fill="#EEEEEE"/>
<path d="M50.5 66H49.5V67H50.5V66Z" fill="#EEEEEE"/>
<path d="M51.5 66H50.5V67H51.5V66Z" fill="black"/>
<path d="M52.5 66H51.5V67H52.5V66Z" fill="#AC3232"/>
<path d="M53.5 66H52.5V67H53.5V66Z" fill="#AC3232"/>
<path d="M54.5 66H53.5V67H54.5V66Z" fill="#AC3232"/>
<path d="M55.5 66H54.5V67H55.5V66Z" fill="#AC3232"/>
<path d="M56.5 66H55.5V67H56.5V66Z" fill="#742020"/>
<path d="M57.5 66H56.5V67H57.5V66Z" fill="black"/>
<path d="M58.5 66H57.5V67H58.5V66Z" fill="#EEEEEE"/>
<path d="M78.5 66H77.5V67H78.5V66Z" fill="#EEEEEE"/>
<path d="M79.5 66H78.5V67H79.5V66Z" fill="black"/>
<path d="M80.5 66H79.5V67H80.5V66Z" fill="#742020"/>
<path d="M81.5 66H80.5V67H81.5V66Z" fill="#AC3232"/>
<path d="M82.5 66H81.5V67H82.5V66Z" fill="#AC3232"/>
<path d="M83.5 66H82.5V67H83.5V66Z" fill="#AC3232"/>
<path d="M84.5 66H83.5V67H84.5V66Z" fill="#AC3232"/>
<path d="M85.5 66H84.5V67H85.5V66Z" fill="#742020"/>
<path d="M86.5 66H85.5V67H86.5V66Z" fill="#742020"/>
<path d="M87.5 66H86.5V67H87.5V66Z" fill="black"/>
<path d="M88.5 66H87.5V67H88.5V66Z" fill="#EEEEEE"/>
<path d="M50.5 67H49.5V68H50.5V67Z" fill="#EEEEEE"/>
<path d="M51.5 67H50.5V68H51.5V67Z" fill="black"/>
<path d="M52.5 67H51.5V68H52.5V67Z" fill="#AC3232"/>
<path d="M53.5 67H52.5V68H53.5V67Z" fill="#AC3232"/>
<path d="M54.5 67H53.5V68H54.5V67Z" fill="#AC3232"/>
<path d="M55.5 67H54.5V68H55.5V67Z" fill="#AC3232"/>
<path d="M56.5 67H55.5V68H56.5V67Z" fill="#742020"/>
<path d="M57.5 67H56.5V68H57.5V67Z" fill="black"/>
<path d="M58.5 67H57.5V68H58.5V67Z" fill="#EEEEEE"/>
<path d="M78.5 67H77.5V68H78.5V67Z" fill="#EEEEEE"/>
<path d="M79.5 67H78.5V68H79.5V67Z" fill="black"/>
<path d="M80.5 67H79.5V68H80.5V67Z" fill="#742020"/>
<path d="M81.5 67H80.5V68H81.5V67Z" fill="#742020"/>
<path d="M82.5 67H81.5V68H82.5V67Z" fill="#742020"/>
<path d="M83.5 67H82.5V68H83.5V67Z" fill="#742020"/>
<path d="M84.5 67H83.5V68H84.5V67Z" fill="#742020"/>
<path d="M85.5 67H84.5V68H85.5V67Z" fill="#742020"/>
<path d="M86.5 67H85.5V68H86.5V67Z" fill="#742020"/>
<path d="M87.5 67H86.5V68H87.5V67Z" fill="black"/>
<path d="M88.5 67H87.5V68H88.5V67Z" fill="#EEEEEE"/>
<path d="M50.5 68H49.5V69H50.5V68Z" fill="#EEEEEE"/>
<path d="M51.5 68H50.5V69H51.5V68Z" fill="black"/>
<path d="M52.5 68H51.5V69H52.5V68Z" fill="#AC3232"/>
<path d="M53.5 68H52.5V69H53.5V68Z" fill="#AC3232"/>
<path d="M54.5 68H53.5V69H54.5V68Z" fill="#AC3232"/>
<path d="M55.5 68H54.5V69H55.5V68Z" fill="#AC3232"/>
<path d="M56.5 68H55.5V69H56.5V68Z" fill="#742020"/>
<path d="M57.5 68H56.5V69H57.5V68Z" fill="black"/>
<path d="M58.5 68H57.5V69H58.5V68Z" fill="#EEEEEE"/>
<path d="M78.5 68H77.5V69H78.5V68Z" fill="#EEEEEE"/>
<path d="M79.5 68H78.5V69H79.5V68Z" fill="black"/>
<path d="M80.5 68H79.5V69H80.5V68Z" fill="#742020"/>
<path d="M81.5 68H80.5V69H81.5V68Z" fill="#742020"/>
<path d="M82.5 68H81.5V69H82.5V68Z" fill="#742020"/>
<path d="M83.5 68H82.5V69H83.5V68Z" fill="#742020"/>
<path d="M84.5 68H83.5V69H84.5V68Z" fill="#742020"/>
<path d="M85.5 68H84.5V69H85.5V68Z" fill="#742020"/>
<path d="M86.5 68H85.5V69H86.5V68Z" fill="black"/>
<path d="M87.5 68H86.5V69H87.5V68Z" fill="#EEEEEE"/>
<path d="M88.5 68H87.5V69H88.5V68Z" fill="#EEEEEE"/>
<path d="M50.5 69H49.5V70H50.5V69Z" fill="#EEEEEE"/>
<path d="M51.5 69H50.5V70H51.5V69Z" fill="black"/>
<path d="M52.5 69H51.5V70H52.5V69Z" fill="#AC3232"/>
<path d="M53.5 69H52.5V70H53.5V69Z" fill="#AC3232"/>
<path d="M54.5 69H53.5V70H54.5V69Z" fill="#AC3232"/>
<path d="M55.5 69H54.5V70H55.5V69Z" fill="#AC3232"/>
<path d="M56.5 69H55.5V70H56.5V69Z" fill="#742020"/>
<path d="M57.5 69H56.5V70H57.5V69Z" fill="black"/>
<path d="M58.5 69H57.5V70H58.5V69Z" fill="#EEEEEE"/>
<path d="M59.5 69H58.5V70H59.5V69Z" fill="#EEEEEE"/>
<path d="M78.5 69H77.5V70H78.5V69Z" fill="#EEEEEE"/>
<path d="M79.5 69H78.5V70H79.5V69Z" fill="#EEEEEE"/>
<path d="M80.5 69H79.5V70H80.5V69Z" fill="black"/>
<path d="M81.5 69H80.5V70H81.5V69Z" fill="black"/>
<path d="M82.5 69H81.5V70H82.5V69Z" fill="black"/>
<path d="M83.5 69H82.5V70H83.5V69Z" fill="black"/>
<path d="M84.5 69H83.5V70H84.5V69Z" fill="black"/>
<path d="M85.5 69H84.5V70H85.5V69Z" fill="black"/>
<path d="M86.5 69H85.5V70H86.5V69Z" fill="#EEEEEE"/>
<path d="M87.5 69H86.5V70H87.5V69Z" fill="#EEEEEE"/>
<path d="M50.5 70H49.5V71H50.5V70Z" fill="#EEEEEE"/>
<path d="M51.5 70H50.5V71H51.5V70Z" fill="#EEEEEE"/>
<path d="M52.5 70H51.5V71H52.5V70Z" fill="black"/>
<path d="M53.5 70H52.5V71H53.5V70Z" fill="#AC3232"/>
<path d="M54.5 70H53.5V71H54.5V70Z" fill="#AC3232"/>
<path d="M55.5 70H54.5V71H55.5V70Z" fill="#AC3232"/>
<path d="M56.5 70H55.5V71H56.5V70Z" fill="#742020"/>
<path d="M57.5 70H56.5V71H57.5V70Z" fill="#742020"/>
<path d="M58.5 70H57.5V71H58.5V70Z" fill="black"/>
<path d="M59.5 70H58.5V71H59.5V70Z" fill="#EEEEEE"/>
<path d="M79.5 70H78.5V71H79.5V70Z" fill="#EEEEEE"/>
<path d="M80.5 70H79.5V71H80.5V70Z" fill="#EEEEEE"/>
<path d="M81.5 70H80.5V71H81.5V70Z" fill="#EEEEEE"/>
<path d="M82.5 70H81.5V71H82.5V70Z" fill="#EEEEEE"/>
<path d="M83.5 70H82.5V71H83.5V70Z" fill="#EEEEEE"/>
<path d="M84.5 70H83.5V71H84.5V70Z" fill="#EEEEEE"/>
<path d="M85.5 70H84.5V71H85.5V70Z" fill="#EEEEEE"/>
<path d="M86.5 70H85.5V71H86.5V70Z" fill="#EEEEEE"/>
<path d="M51.5 71H50.5V72H51.5V71Z" fill="#EEEEEE"/>
<path d="M52.5 71H51.5V72H52.5V71Z" fill="black"/>
<path d="M53.5 71H52.5V72H53.5V71Z" fill="#AC3232"/>
<path d="M54.5 71H53.5V72H54.5V71Z" fill="#AC3232"/>
<path d="M55.5 71H54.5V72H55.5V71Z" fill="#AC3232"/>
<path d="M56.5 71H55.5V72H56.5V71Z" fill="#AC3232"/>
<path d="M57.5 71H56.5V72H57.5V71Z" fill="#742020"/>
<path d="M58.5 71H57.5V72H58.5V71Z" fill="black"/>
<path d="M59.5 71H58.5V72H59.5V71Z" fill="#EEEEEE"/>
<path d="M60.5 71H59.5V72H60.5V71Z" fill="#EEEEEE"/>
<path d="M51.5 72H50.5V73H51.5V72Z" fill="#EEEEEE"/>
<path d="M52.5 72H51.5V73H52.5V72Z" fill="black"/>
<path d="M53.5 72H52.5V73H53.5V72Z" fill="#AC3232"/>
<path d="M54.5 72H53.5V73H54.5V72Z" fill="#AC3232"/>
<path d="M55.5 72H54.5V73H55.5V72Z" fill="#AC3232"/>
<path d="M56.5 72H55.5V73H56.5V72Z" fill="#AC3232"/>
<path d="M57.5 72H56.5V73H57.5V72Z" fill="#AC3232"/>
<path d="M58.5 72H57.5V73H58.5V72Z" fill="#742020"/>
<path d="M59.5 72H58.5V73H59.5V72Z" fill="black"/>
<path d="M60.5 72H59.5V73H60.5V72Z" fill="#EEEEEE"/>
<path d="M51.5 73H50.5V74H51.5V73Z" fill="#EEEEEE"/>
<path d="M52.5 73H51.5V74H52.5V73Z" fill="black"/>
<path d="M53.5 73H52.5V74H53.5V73Z" fill="#AC3232"/>
<path d="M54.5 73H53.5V74H54.5V73Z" fill="#AC3232"/>
<path d="M55.5 73H54.5V74H55.5V73Z" fill="#AC3232"/>
<path d="M56.5 73H55.5V74H56.5V73Z" fill="#AC3232"/>
<path d="M57.5 73H56.5V74H57.5V73Z" fill="#AC3232"/>
<path d="M58.5 73H57.5V74H58.5V73Z" fill="#742020"/>
<path d="M59.5 73H58.5V74H59.5V73Z" fill="black"/>
<path d="M60.5 73H59.5V74H60.5V73Z" fill="#EEEEEE"/>
<path d="M61.5 73H60.5V74H61.5V73Z" fill="#EEEEEE"/>
<path d="M51.5 74H50.5V75H51.5V74Z" fill="#EEEEEE"/>
<path d="M52.5 74H51.5V75H52.5V74Z" fill="#EEEEEE"/>
<path d="M53.5 74H52.5V75H53.5V74Z" fill="black"/>
<path d="M54.5 74H53.5V75H54.5V74Z" fill="#742020"/>
<path d="M55.5 74H54.5V75H55.5V74Z" fill="#AC3232"/>
<path d="M56.5 74H55.5V75H56.5V74Z" fill="#AC3232"/>
<path d="M57.5 74H56.5V75H57.5V74Z" fill="#AC3232"/>
<path d="M58.5 74H57.5V75H58.5V74Z" fill="#742020"/>
<path d="M59.5 74H58.5V75H59.5V74Z" fill="#742020"/>
<path d="M60.5 74H59.5V75H60.5V74Z" fill="black"/>
<path d="M61.5 74H60.5V75H61.5V74Z" fill="#EEEEEE"/>
<path d="M52.5 75H51.5V76H52.5V75Z" fill="#EEEEEE"/>
<path d="M53.5 75H52.5V76H53.5V75Z" fill="black"/>
<path d="M54.5 75H53.5V76H54.5V75Z" fill="#742020"/>
<path d="M55.5 75H54.5V76H55.5V75Z" fill="#742020"/>
<path d="M56.5 75H55.5V76H56.5V75Z" fill="#742020"/>
<path d="M57.5 75H56.5V76H57.5V75Z" fill="#742020"/>
<path d="M58.5 75H57.5V76H58.5V75Z" fill="#742020"/>
<path d="M59.5 75H58.5V76H59.5V75Z" fill="#742020"/>
<path d="M60.5 75H59.5V76H60.5V75Z" fill="black"/>
<path d="M61.5 75H60.5V76H61.5V75Z" fill="#EEEEEE"/>
<path d="M52.5 76H51.5V77H52.5V76Z" fill="#EEEEEE"/>
<path d="M53.5 76H52.5V77H53.5V76Z" fill="#EEEEEE"/>
<path d="M54.5 76H53.5V77H54.5V76Z" fill="black"/>
<path d="M55.5 76H54.5V77H55.5V76Z" fill="#742020"/>
<path d="M56.5 76H55.5V77H56.5V76Z" fill="#742020"/>
<path d="M57.5 76H56.5V77H57.5V76Z" fill="#742020"/>
<path d="M58.5 76H57.5V77H58.5V76Z" fill="#742020"/>
<path d="M59.5 76H58.5V77H59.5V76Z" fill="#742020"/>
<path d="M60.5 76H59.5V77H60.5V76Z" fill="black"/>
<path d="M61.5 76H60.5V77H61.5V76Z" fill="#EEEEEE"/>
<path d="M53.5 77H52.5V78H53.5V77Z" fill="#EEEEEE"/>
<path d="M54.5 77H53.5V78H54.5V77Z" fill="#EEEEEE"/>
<path d="M55.5 77H54.5V78H55.5V77Z" fill="black"/>
<path d="M56.5 77H55.5V78H56.5V77Z" fill="black"/>
<path d="M57.5 77H56.5V78H57.5V77Z" fill="black"/>
<path d="M58.5 77H57.5V78H58.5V77Z" fill="black"/>
<path d="M59.5 77H58.5V78H59.5V77Z" fill="black"/>
<path d="M60.5 77H59.5V78H60.5V77Z" fill="#EEEEEE"/>
<path d="M61.5 77H60.5V78H61.5V77Z" fill="#EEEEEE"/>
<path d="M54.5 78H53.5V79H54.5V78Z" fill="#EEEEEE"/>
<path d="M55.5 78H54.5V79H55.5V78Z" fill="#EEEEEE"/>
<path d="M56.5 78H55.5V79H56.5V78Z" fill="#EEEEEE"/>
<path d="M57.5 78H56.5V79H57.5V78Z" fill="#EEEEEE"/>
<path d="M58.5 78H57.5V79H58.5V78Z" fill="#EEEEEE"/>
<path d="M59.5 78H58.5V79H59.5V78Z" fill="#EEEEEE"/>
<path d="M60.5 78H59.5V79H60.5V78Z" fill="#EEEEEE"/>
<path d="M33.1499 105H22.2539V85.944H33.1499V88.656H35.8859V102.264H33.1499V88.656H24.9659V102.264H33.1499V105ZM46.7738 94.104H41.3018V91.368H46.7738V94.104H49.4858V99.552H41.3018V102.288H46.7738V105H41.3018V102.288H38.5898V94.104H41.3018V96.84H46.7738V94.104ZM57.6785 88.656V91.368H60.4145V94.104H57.6785V105H54.9665V94.104H52.2305V91.368H54.9425V88.656H57.6785ZM57.6785 88.656V85.944H63.1265V88.656H57.6785ZM65.8409 105V102.264H63.1289V91.368H65.8409V102.264H71.2889V91.368H74.0249V105H65.8409ZM82.2008 94.104V96.816H87.6488V99.552H90.3608V102.288H87.6488V99.552H82.2008V96.816H79.4648V94.104H82.2008ZM82.2008 94.104V91.368H90.3608V94.104H82.2008ZM87.6488 102.288V105H79.4648V102.288H87.6488ZM101.289 94.104H95.8175V91.368H101.289V94.104H104.001V99.552H95.8175V102.288H101.289V105H95.8175V102.288H93.1055V94.104H95.8175V96.84H101.289V94.104Z" fill="white"/>
</svg>
