<svg width="57" height="57" viewBox="0 0 57 57" fill="none" xmlns="http://www.w3.org/2000/svg">
<circle cx="28.5" cy="28.5" r="27.5" fill="#CC00FF" stroke="white" stroke-width="2"/>
<path d="M9.16362 16.5085V15.7273H14.6182V16.5085H12.3312V23H11.4506V16.5085H9.16362ZM17.3596 23.1136C16.8341 23.1136 16.3807 22.9976 15.9996 22.7656C15.6208 22.5312 15.3284 22.2045 15.1224 21.7855C14.9188 21.3641 14.817 20.8741 14.817 20.3153C14.817 19.7566 14.9188 19.2642 15.1224 18.8381C15.3284 18.4096 15.6148 18.0758 15.9818 17.8366C16.3511 17.5952 16.782 17.4744 17.2744 17.4744C17.5585 17.4744 17.839 17.5218 18.116 17.6165C18.393 17.7112 18.6452 17.8651 18.8724 18.0781C19.0997 18.2888 19.2808 18.5682 19.4157 18.9162C19.5507 19.2642 19.6182 19.6927 19.6182 20.2017V20.5568H15.4136V19.8324H18.7659C18.7659 19.5246 18.7043 19.25 18.5812 19.0085C18.4605 18.767 18.2877 18.5765 18.0628 18.4368C17.8402 18.2971 17.5774 18.2273 17.2744 18.2273C16.9406 18.2273 16.6518 18.3101 16.4079 18.4759C16.1665 18.6392 15.9806 18.8523 15.8504 19.1151C15.7202 19.3778 15.6551 19.6596 15.6551 19.9602V20.4432C15.6551 20.8551 15.7261 21.2043 15.8682 21.4908C16.0126 21.7749 16.2126 21.9915 16.4683 22.1406C16.724 22.2874 17.0211 22.3608 17.3596 22.3608C17.5798 22.3608 17.7787 22.33 17.9562 22.2685C18.1362 22.2045 18.2912 22.1098 18.4214 21.9844C18.5516 21.8565 18.6523 21.6979 18.7233 21.5085L19.5329 21.7358C19.4477 22.0104 19.3045 22.2519 19.1032 22.4602C18.902 22.6662 18.6534 22.8272 18.3575 22.9432C18.0616 23.0568 17.729 23.1136 17.3596 23.1136ZM20.893 23V17.5455H21.7027V18.3693H21.7595C21.8589 18.0994 22.0389 17.8804 22.2993 17.7124C22.5597 17.5443 22.8532 17.4602 23.18 17.4602C23.2415 17.4602 23.3184 17.4614 23.4108 17.4638C23.5031 17.4661 23.5729 17.4697 23.6203 17.4744V18.3267C23.5919 18.3196 23.5268 18.3089 23.425 18.2947C23.3256 18.2782 23.2202 18.2699 23.1089 18.2699C22.8438 18.2699 22.607 18.3255 22.3987 18.4368C22.1927 18.5457 22.0294 18.6972 21.9086 18.8913C21.7903 19.0831 21.7311 19.3021 21.7311 19.5483V23H20.893ZM24.6137 23V17.5455H25.4234V18.3693H25.4802C25.5796 18.0994 25.7596 17.8804 26.02 17.7124C26.2804 17.5443 26.574 17.4602 26.9007 17.4602C26.9622 17.4602 27.0392 17.4614 27.1315 17.4638C27.2238 17.4661 27.2936 17.4697 27.341 17.4744V18.3267C27.3126 18.3196 27.2475 18.3089 27.1457 18.2947C27.0463 18.2782 26.9409 18.2699 26.8296 18.2699C26.5645 18.2699 26.3277 18.3255 26.1194 18.4368C25.9134 18.5457 25.7501 18.6972 25.6294 18.8913C25.511 19.0831 25.4518 19.3021 25.4518 19.5483V23H24.6137ZM30.3843 23.1136C29.8919 23.1136 29.4598 22.9964 29.0882 22.7621C28.7188 22.5277 28.43 22.1998 28.2217 21.7784C28.0157 21.357 27.9127 20.8646 27.9127 20.3011C27.9127 19.733 28.0157 19.237 28.2217 18.8132C28.43 18.3894 28.7188 18.0604 29.0882 17.826C29.4598 17.5916 29.8919 17.4744 30.3843 17.4744C30.8767 17.4744 31.3076 17.5916 31.6769 17.826C32.0486 18.0604 32.3374 18.3894 32.5434 18.8132C32.7517 19.237 32.8559 19.733 32.8559 20.3011C32.8559 20.8646 32.7517 21.357 32.5434 21.7784C32.3374 22.1998 32.0486 22.5277 31.6769 22.7621C31.3076 22.9964 30.8767 23.1136 30.3843 23.1136ZM30.3843 22.3608C30.7584 22.3608 31.0661 22.2649 31.3076 22.0732C31.5491 21.8814 31.7278 21.6293 31.8438 21.3168C31.9598 21.0043 32.0178 20.6657 32.0178 20.3011C32.0178 19.9366 31.9598 19.5968 31.8438 19.282C31.7278 18.9671 31.5491 18.7126 31.3076 18.5185C31.0661 18.3243 30.7584 18.2273 30.3843 18.2273C30.0103 18.2273 29.7025 18.3243 29.461 18.5185C29.2195 18.7126 29.0408 18.9671 28.9248 19.282C28.8088 19.5968 28.7508 19.9366 28.7508 20.3011C28.7508 20.6657 28.8088 21.0043 28.9248 21.3168C29.0408 21.6293 29.2195 21.8814 29.461 22.0732C29.7025 22.2649 30.0103 22.3608 30.3843 22.3608ZM34.1352 23V17.5455H34.9449V18.3693H35.0017C35.1011 18.0994 35.281 17.8804 35.5415 17.7124C35.8019 17.5443 36.0954 17.4602 36.4221 17.4602C36.4837 17.4602 36.5606 17.4614 36.653 17.4638C36.7453 17.4661 36.8151 17.4697 36.8625 17.4744V18.3267C36.8341 18.3196 36.769 18.3089 36.6672 18.2947C36.5677 18.2782 36.4624 18.2699 36.3511 18.2699C36.086 18.2699 35.8492 18.3255 35.6409 18.4368C35.4349 18.5457 35.2716 18.6972 35.1508 18.8913C35.0325 19.0831 34.9733 19.3021 34.9733 19.5483V23H34.1352ZM37.8559 23V17.5455H38.694V23H37.8559ZM38.282 16.6364C38.1187 16.6364 37.9778 16.5807 37.8595 16.4695C37.7435 16.3582 37.6855 16.2244 37.6855 16.0682C37.6855 15.9119 37.7435 15.7782 37.8595 15.6669C37.9778 15.5556 38.1187 15.5 38.282 15.5C38.4454 15.5 38.5851 15.5556 38.7011 15.6669C38.8195 15.7782 38.8786 15.9119 38.8786 16.0682C38.8786 16.2244 38.8195 16.3582 38.7011 16.4695C38.5851 16.5807 38.4454 16.6364 38.282 16.6364ZM44.0926 18.767L43.3398 18.9801C43.2924 18.8546 43.2226 18.7327 43.1302 18.6143C43.0403 18.4936 42.9172 18.3942 42.7609 18.3161C42.6047 18.2379 42.4046 18.1989 42.1608 18.1989C41.827 18.1989 41.5488 18.2758 41.3263 18.4297C41.1061 18.5812 40.996 18.7741 40.996 19.0085C40.996 19.2169 41.0718 19.3814 41.2233 19.5021C41.3748 19.6229 41.6115 19.7235 41.9335 19.804L42.7432 20.0028C43.2309 20.1212 43.5943 20.3023 43.8334 20.5462C44.0725 20.7876 44.192 21.099 44.192 21.4801C44.192 21.7926 44.1021 22.072 43.9221 22.3182C43.7446 22.5644 43.496 22.7585 43.1764 22.9006C42.8568 23.0426 42.4851 23.1136 42.0613 23.1136C41.505 23.1136 41.0445 22.9929 40.68 22.7514C40.3154 22.5099 40.0845 22.1572 39.9875 21.6932L40.7829 21.4943C40.8587 21.7879 41.0019 22.008 41.2126 22.1548C41.4257 22.3016 41.7039 22.375 42.0471 22.375C42.4378 22.375 42.7479 22.2921 42.9775 22.1264C43.2095 21.9583 43.3256 21.7571 43.3256 21.5227C43.3256 21.3333 43.2593 21.1747 43.1267 21.0469C42.9941 20.9167 42.7905 20.8196 42.5159 20.7557L41.6068 20.5426C41.1073 20.4242 40.7403 20.2408 40.5059 19.9922C40.2739 19.7412 40.1579 19.4276 40.1579 19.0511C40.1579 18.7434 40.2443 18.4711 40.4172 18.2344C40.5924 17.9976 40.8303 17.8118 41.1309 17.6768C41.434 17.5419 41.7773 17.4744 42.1608 17.4744C42.7006 17.4744 43.1243 17.5928 43.4321 17.8295C43.7422 18.0663 43.9624 18.3788 44.0926 18.767ZM47.8257 17.5455V18.2557H44.999V17.5455H47.8257ZM45.8229 16.2386H46.661V21.4375C46.661 21.6742 46.6953 21.8518 46.7639 21.9702C46.835 22.0862 46.9249 22.1643 47.0338 22.2045C47.1451 22.2424 47.2623 22.2614 47.3854 22.2614C47.4777 22.2614 47.5535 22.2566 47.6127 22.2472C47.6718 22.2353 47.7192 22.2259 47.7547 22.2188L47.9252 22.9716C47.8683 22.9929 47.789 23.0142 47.6872 23.0355C47.5854 23.0592 47.4564 23.071 47.3002 23.071C47.0634 23.071 46.8314 23.0201 46.6041 22.9183C46.3792 22.8165 46.1922 22.6615 46.0431 22.4531C45.8963 22.2448 45.8229 21.982 45.8229 21.6648V16.2386ZM6.38308 35.9091V26.8182H8.48535V27.5142H7.17853V35.2131H8.48535V35.9091H6.38308ZM9.70783 35V27.7273H12.1652C12.7358 27.7273 13.2021 27.8303 13.5644 28.0362C13.9289 28.2398 14.1988 28.5156 14.374 28.8636C14.5492 29.2116 14.6368 29.5999 14.6368 30.0284C14.6368 30.4569 14.5492 30.8464 14.374 31.1967C14.2012 31.5471 13.9337 31.8265 13.5715 32.0348C13.2093 32.2408 12.7452 32.3438 12.1794 32.3438H10.4181V31.5625H12.151C12.5416 31.5625 12.8553 31.495 13.0921 31.3601C13.3288 31.2251 13.5004 31.0429 13.607 30.8132C13.7159 30.5812 13.7703 30.3196 13.7703 30.0284C13.7703 29.7372 13.7159 29.4768 13.607 29.2472C13.5004 29.0175 13.3276 28.8376 13.0885 28.7074C12.8494 28.5748 12.5322 28.5085 12.1368 28.5085H10.5885V35H9.70783ZM18.1702 35.1136C17.6446 35.1136 17.1913 34.9976 16.8101 34.7656C16.4313 34.5312 16.1389 34.2045 15.933 33.7855C15.7294 33.3641 15.6276 32.8741 15.6276 32.3153C15.6276 31.7566 15.7294 31.2642 15.933 30.8381C16.1389 30.4096 16.4254 30.0758 16.7923 29.8366C17.1617 29.5952 17.5925 29.4744 18.085 29.4744C18.3691 29.4744 18.6496 29.5218 18.9266 29.6165C19.2036 29.7112 19.4557 29.8651 19.683 30.0781C19.9102 30.2888 20.0914 30.5682 20.2263 30.9162C20.3612 31.2642 20.4287 31.6927 20.4287 32.2017V32.5568H16.2242V31.8324H19.5764C19.5764 31.5246 19.5149 31.25 19.3918 31.0085C19.271 30.767 19.0982 30.5765 18.8733 30.4368C18.6508 30.2971 18.388 30.2273 18.085 30.2273C17.7512 30.2273 17.4623 30.3101 17.2185 30.4759C16.977 30.6392 16.7912 30.8523 16.661 31.1151C16.5307 31.3778 16.4656 31.6596 16.4656 31.9602V32.4432C16.4656 32.8551 16.5367 33.2043 16.6787 33.4908C16.8231 33.7749 17.0232 33.9915 17.2789 34.1406C17.5345 34.2874 17.8316 34.3608 18.1702 34.3608C18.3904 34.3608 18.5892 34.33 18.7668 34.2685C18.9467 34.2045 19.1018 34.1098 19.232 33.9844C19.3622 33.8565 19.4628 33.6979 19.5338 33.5085L20.3435 33.7358C20.2583 34.0104 20.115 34.2519 19.9138 34.4602C19.7126 34.6662 19.464 34.8272 19.1681 34.9432C18.8721 35.0568 18.5395 35.1136 18.1702 35.1136ZM22.5416 31.7188V35H21.7036V29.5455H22.5132V30.3977H22.5843C22.7121 30.1207 22.9062 29.8982 23.1666 29.7301C23.4271 29.5597 23.7632 29.4744 24.1752 29.4744C24.5445 29.4744 24.8676 29.5502 25.1446 29.7017C25.4216 29.8509 25.637 30.0781 25.7909 30.3835C25.9448 30.6866 26.0218 31.0701 26.0218 31.5341V35H25.1837V31.5909C25.1837 31.1624 25.0724 30.8286 24.8499 30.5895C24.6273 30.348 24.3219 30.2273 23.9337 30.2273C23.6662 30.2273 23.4271 30.2853 23.2164 30.4013C23.008 30.5173 22.8435 30.6866 22.7227 30.9091C22.602 31.1316 22.5416 31.4015 22.5416 31.7188ZM29.9253 29.5455V30.2557H27.0986V29.5455H29.9253ZM27.9225 28.2386H28.7606V33.4375C28.7606 33.6742 28.7949 33.8518 28.8635 33.9702C28.9346 34.0862 29.0245 34.1643 29.1334 34.2045C29.2447 34.2424 29.3619 34.2614 29.485 34.2614C29.5773 34.2614 29.6531 34.2566 29.7123 34.2472C29.7715 34.2353 29.8188 34.2259 29.8543 34.2188L30.0248 34.9716C29.968 34.9929 29.8886 35.0142 29.7868 35.0355C29.685 35.0592 29.556 35.071 29.3998 35.071C29.163 35.071 28.931 35.0201 28.7037 34.9183C28.4788 34.8165 28.2918 34.6615 28.1427 34.4531C27.9959 34.2448 27.9225 33.982 27.9225 33.6648V28.2386ZM34.6235 32.7699V29.5455H35.4616V35H34.6235V34.0767H34.5667C34.4388 34.3537 34.24 34.5893 33.9701 34.7834C33.7002 34.9751 33.3593 35.071 32.9474 35.071C32.6064 35.071 32.3034 34.9964 32.0383 34.8473C31.7731 34.6958 31.5648 34.4685 31.4133 34.1655C31.2617 33.8601 31.186 33.4754 31.186 33.0114V29.5455H32.0241V32.9545C32.0241 33.3523 32.1353 33.6695 32.3579 33.9062C32.5828 34.143 32.8692 34.2614 33.2172 34.2614C33.4256 34.2614 33.6375 34.2081 33.8529 34.1016C34.0707 33.995 34.253 33.8317 34.3998 33.6115C34.5489 33.3913 34.6235 33.1108 34.6235 32.7699ZM37.8346 31.7188V35H36.9965V29.5455H37.8062V30.3977H37.8772C38.0051 30.1207 38.1992 29.8982 38.4596 29.7301C38.72 29.5597 39.0562 29.4744 39.4681 29.4744C39.8374 29.4744 40.1606 29.5502 40.4376 29.7017C40.7146 29.8509 40.93 30.0781 41.0839 30.3835C41.2378 30.6866 41.3147 31.0701 41.3147 31.5341V35H40.4767V31.5909C40.4767 31.1624 40.3654 30.8286 40.1428 30.5895C39.9203 30.348 39.6149 30.2273 39.2267 30.2273C38.9591 30.2273 38.72 30.2853 38.5093 30.4013C38.301 30.5173 38.1365 30.6866 38.0157 30.9091C37.895 31.1316 37.8346 31.4015 37.8346 31.7188ZM45.0479 37.1591C44.643 37.1591 44.295 37.107 44.0038 37.0028C43.7126 36.901 43.47 36.7661 43.2758 36.598C43.0841 36.4323 42.9314 36.2547 42.8177 36.0653L43.4854 35.5966C43.5611 35.696 43.657 35.8097 43.773 35.9375C43.889 36.0677 44.0476 36.1802 44.2488 36.2749C44.4524 36.3719 44.7188 36.4205 45.0479 36.4205C45.4882 36.4205 45.8516 36.3139 46.1381 36.1009C46.4245 35.8878 46.5677 35.554 46.5677 35.0994V33.9915H46.4967C46.4352 34.0909 46.3476 34.214 46.2339 34.3608C46.1227 34.5052 45.9617 34.6342 45.751 34.7479C45.5426 34.8591 45.2609 34.9148 44.9058 34.9148C44.4655 34.9148 44.0701 34.8106 43.7197 34.6023C43.3717 34.3939 43.0959 34.0909 42.8923 33.6932C42.6911 33.2955 42.5905 32.8125 42.5905 32.2443C42.5905 31.6856 42.6887 31.1991 42.8852 30.7848C43.0817 30.3681 43.3551 30.0462 43.7055 29.8189C44.0559 29.5893 44.4607 29.4744 44.92 29.4744C45.2751 29.4744 45.5568 29.5336 45.7652 29.652C45.9759 29.768 46.1369 29.9006 46.2481 30.0497C46.3618 30.1965 46.4494 30.3172 46.5109 30.4119H46.5961V29.5455H47.4058V35.1562C47.4058 35.625 47.2993 36.0062 47.0862 36.2997C46.8755 36.5956 46.5914 36.8123 46.2339 36.9496C45.8788 37.0893 45.4835 37.1591 45.0479 37.1591ZM45.0194 34.1619C45.3556 34.1619 45.6397 34.085 45.8717 33.9311C46.1037 33.7772 46.2801 33.5559 46.4008 33.267C46.5216 32.9782 46.5819 32.6326 46.5819 32.2301C46.5819 31.8371 46.5228 31.4903 46.4044 31.1896C46.286 30.889 46.1108 30.6534 45.8788 30.483C45.6468 30.3125 45.3604 30.2273 45.0194 30.2273C44.6643 30.2273 44.3684 30.3172 44.1317 30.4972C43.8973 30.6771 43.7209 30.9186 43.6025 31.2216C43.4865 31.5246 43.4285 31.8608 43.4285 32.2301C43.4285 32.6089 43.4877 32.9439 43.6061 33.2351C43.7268 33.5239 43.9044 33.7512 44.1388 33.9169C44.3755 34.0803 44.6691 34.1619 45.0194 34.1619ZM50.616 27.3864V36.4773H48.5138V35.7812H49.8206V28.0824H48.5138V27.3864H50.616Z" fill="black"/>
</svg>
