<svg width="57" height="57" viewBox="0 0 57 57" fill="none" xmlns="http://www.w3.org/2000/svg">
<circle cx="28.5" cy="28.5" r="27.5" fill="black" stroke="#FE0000" stroke-width="2"/>
<path d="M15.1942 27V19.7273H17.7368C18.2434 19.7273 18.6613 19.8149 18.9903 19.9901C19.3194 20.1629 19.5644 20.3961 19.7254 20.6896C19.8864 20.9808 19.9669 21.304 19.9669 21.6591C19.9669 21.9716 19.9113 22.2296 19.8 22.4332C19.6911 22.6368 19.5467 22.7978 19.3667 22.9162C19.1892 23.0346 18.9962 23.1222 18.7879 23.179V23.25C19.0104 23.2642 19.2342 23.3423 19.4591 23.4844C19.684 23.6264 19.8722 23.83 20.0237 24.0952C20.1752 24.3603 20.251 24.6847 20.251 25.0682C20.251 25.4328 20.1681 25.7607 20.0024 26.0518C19.8367 26.343 19.5751 26.5739 19.2176 26.7443C18.8601 26.9148 18.3949 27 17.822 27H15.1942ZM16.0748 26.2188H17.822C18.3973 26.2188 18.8057 26.1075 19.0471 25.8849C19.291 25.66 19.4129 25.3878 19.4129 25.0682C19.4129 24.822 19.3502 24.5947 19.2247 24.3864C19.0992 24.1757 18.9205 24.0076 18.6885 23.8821C18.4565 23.7543 18.1818 23.6903 17.8646 23.6903H16.0748V26.2188ZM16.0748 22.9233H17.7084C17.9735 22.9233 18.2126 22.8712 18.4257 22.767C18.6411 22.6629 18.8116 22.5161 18.9371 22.3267C19.0649 22.1373 19.1288 21.9148 19.1288 21.6591C19.1288 21.3395 19.0175 21.0684 18.795 20.8459C18.5725 20.621 18.2197 20.5085 17.7368 20.5085H16.0748V22.9233ZM23.8003 27.1136C23.3079 27.1136 22.8759 26.9964 22.5042 26.7621C22.1349 26.5277 21.846 26.1998 21.6377 25.7784C21.4317 25.357 21.3287 24.8646 21.3287 24.3011C21.3287 23.733 21.4317 23.237 21.6377 22.8132C21.846 22.3894 22.1349 22.0604 22.5042 21.826C22.8759 21.5916 23.3079 21.4744 23.8003 21.4744C24.2928 21.4744 24.7236 21.5916 25.093 21.826C25.4646 22.0604 25.7535 22.3894 25.9594 22.8132C26.1678 23.237 26.2719 23.733 26.2719 24.3011C26.2719 24.8646 26.1678 25.357 25.9594 25.7784C25.7535 26.1998 25.4646 26.5277 25.093 26.7621C24.7236 26.9964 24.2928 27.1136 23.8003 27.1136ZM23.8003 26.3608C24.1744 26.3608 24.4822 26.2649 24.7236 26.0732C24.9651 25.8814 25.1439 25.6293 25.2599 25.3168C25.3759 25.0043 25.4339 24.6657 25.4339 24.3011C25.4339 23.9366 25.3759 23.5968 25.2599 23.282C25.1439 22.9671 24.9651 22.7126 24.7236 22.5185C24.4822 22.3243 24.1744 22.2273 23.8003 22.2273C23.4263 22.2273 23.1185 22.3243 22.877 22.5185C22.6356 22.7126 22.4568 22.9671 22.3408 23.282C22.2248 23.5968 22.1668 23.9366 22.1668 24.3011C22.1668 24.6657 22.2248 25.0043 22.3408 25.3168C22.4568 25.6293 22.6356 25.8814 22.877 26.0732C23.1185 26.2649 23.4263 26.3608 23.8003 26.3608ZM27.5512 27V21.5455H28.3609V22.3977H28.4319C28.5455 22.1065 28.729 21.8804 28.9823 21.7195C29.2356 21.5561 29.5399 21.4744 29.895 21.4744C30.2548 21.4744 30.5543 21.5561 30.7934 21.7195C31.0349 21.8804 31.2231 22.1065 31.358 22.3977H31.4149C31.5545 22.116 31.7641 21.8923 32.0434 21.7266C32.3228 21.5585 32.6578 21.4744 33.0484 21.4744C33.5361 21.4744 33.935 21.6271 34.2451 21.9325C34.5553 22.2356 34.7103 22.7079 34.7103 23.3494V27H33.8722V23.3494C33.8722 22.947 33.7622 22.6593 33.542 22.4865C33.3218 22.3137 33.0626 22.2273 32.7643 22.2273C32.3808 22.2273 32.0837 22.3433 31.873 22.5753C31.6623 22.8049 31.5569 23.0961 31.5569 23.4489V27H30.7046V23.2642C30.7046 22.9541 30.604 22.7043 30.4028 22.5149C30.2016 22.3232 29.9423 22.2273 29.6251 22.2273C29.4073 22.2273 29.2037 22.2853 29.0143 22.4013C28.8273 22.5173 28.6758 22.6783 28.5597 22.8842C28.4461 23.0878 28.3893 23.3234 28.3893 23.5909V27H27.5512ZM36.3563 27V19.7273H37.1943V22.4119H37.2654C37.3269 22.3172 37.4121 22.1965 37.521 22.0497C37.6323 21.9006 37.7909 21.768 37.9969 21.652C38.2052 21.5336 38.4869 21.4744 38.8421 21.4744C39.3013 21.4744 39.7062 21.5893 40.0566 21.8189C40.4069 22.0485 40.6804 22.3741 40.8769 22.7955C41.0734 23.2169 41.1716 23.714 41.1716 24.2869C41.1716 24.8646 41.0734 25.3653 40.8769 25.7891C40.6804 26.2105 40.4081 26.5372 40.0601 26.7692C39.7121 26.9988 39.3108 27.1136 38.8563 27.1136C38.5059 27.1136 38.2253 27.0556 38.0146 26.9396C37.8039 26.8213 37.6418 26.6875 37.5281 26.5384C37.4145 26.3868 37.3269 26.2614 37.2654 26.1619H37.1659V27H36.3563ZM37.1801 24.2727C37.1801 24.6847 37.2405 25.0481 37.3612 25.3629C37.482 25.6754 37.6584 25.9205 37.8904 26.098C38.1224 26.2732 38.4065 26.3608 38.7426 26.3608C39.093 26.3608 39.3854 26.2685 39.6198 26.0838C39.8565 25.8968 40.0341 25.6458 40.1524 25.331C40.2732 25.0137 40.3335 24.661 40.3335 24.2727C40.3335 23.8892 40.2744 23.5436 40.156 23.2358C40.04 22.9257 39.8636 22.6806 39.6269 22.5007C39.3925 22.3184 39.0977 22.2273 38.7426 22.2273C38.4017 22.2273 38.1153 22.3137 37.8833 22.4865C37.6512 22.657 37.4761 22.8961 37.3577 23.2038C37.2393 23.5092 37.1801 23.8655 37.1801 24.2727ZM17.9827 39.9091V30.8182H20.085V31.5142H18.7781V39.2131H20.085V39.9091H17.9827ZM27.4438 35.3636C27.4438 36.1307 27.3053 36.7936 27.0283 37.3523C26.7513 37.911 26.3714 38.3419 25.8884 38.6449C25.4055 38.9479 24.8538 39.0994 24.2336 39.0994C23.6133 39.0994 23.0617 38.9479 22.5787 38.6449C22.0958 38.3419 21.7158 37.911 21.4388 37.3523C21.1618 36.7936 21.0233 36.1307 21.0233 35.3636C21.0233 34.5966 21.1618 33.9337 21.4388 33.375C21.7158 32.8163 22.0958 32.3854 22.5787 32.0824C23.0617 31.7794 23.6133 31.6278 24.2336 31.6278C24.8538 31.6278 25.4055 31.7794 25.8884 32.0824C26.3714 32.3854 26.7513 32.8163 27.0283 33.375C27.3053 33.9337 27.4438 34.5966 27.4438 35.3636ZM26.5915 35.3636C26.5915 34.7339 26.4862 34.2024 26.2755 33.7692C26.0671 33.3359 25.7842 33.008 25.4268 32.7855C25.0716 32.563 24.6739 32.4517 24.2336 32.4517C23.7932 32.4517 23.3943 32.563 23.0368 32.7855C22.6817 33.008 22.3988 33.3359 22.1881 33.7692C21.9798 34.2024 21.8756 34.7339 21.8756 35.3636C21.8756 35.9934 21.9798 36.5249 22.1881 36.9581C22.3988 37.3913 22.6817 37.7192 23.0368 37.9418C23.3943 38.1643 23.7932 38.2756 24.2336 38.2756C24.6739 38.2756 25.0716 38.1643 25.4268 37.9418C25.7842 37.7192 26.0671 37.3913 26.2755 36.9581C26.4862 36.5249 26.5915 35.9934 26.5915 35.3636ZM34.6917 31.7273V39H33.8394L29.8763 33.2898H29.8053V39H28.9246V31.7273H29.7769L33.7542 37.4517H33.8252V31.7273H34.6917ZM38.0164 30.8182V39.9091H35.9142V39.2131H37.221V31.5142H35.9142V30.8182H38.0164Z" fill="white"/>
</svg>
